<svg width="629" height="746" viewBox="0 0 629 746" fill="none" xmlns="http://www.w3.org/2000/svg">
<path d="M308.629 745.24C306.469 745.24 304.56 743.68 304.19 741.47C286.4 635.12 292.54 522.28 321.95 415.14C351.36 308.01 403.689 207.85 473.279 125.48C474.889 123.58 477.729 123.34 479.629 124.95C481.529 126.56 481.77 129.4 480.16 131.3C339.6 297.64 277.139 525.19 313.069 739.98C313.479 742.44 311.819 744.76 309.369 745.17C309.119 745.21 308.869 745.23 308.619 745.23L308.629 745.24Z" fill="#687A52"/>
<path d="M305.28 524.74C303.15 524.74 301.26 523.23 300.85 521.06C289.94 462.5 274.001 414.52 250.681 370.07C222.831 316.96 177.891 279.77 130.461 270.58C128.021 270.11 126.421 267.74 126.891 265.3C127.361 262.86 129.721 261.26 132.171 261.73C158.711 266.87 183.771 279.5 206.641 299.27C227.091 316.95 245.081 339.98 258.661 365.88C282.401 411.15 298.621 459.94 309.701 519.41C310.161 521.86 308.54 524.21 306.09 524.67C305.81 524.72 305.531 524.75 305.261 524.75L305.28 524.74Z" fill="#687A52"/>
<path d="M329.619 409.14C329.039 409.14 328.449 409.03 327.879 408.79C325.579 407.83 324.499 405.18 325.469 402.89C338.399 372.06 359.329 344.22 385.999 322.39C411.829 301.24 443.139 285.57 476.549 277.06C543.349 260.06 618.269 276.27 672.069 319.36C674.009 320.92 674.329 323.75 672.769 325.7C671.209 327.64 668.379 327.96 666.429 326.4C614.789 285.04 542.879 269.48 478.769 285.8C412.589 302.64 358.389 347.71 333.779 406.38C333.059 408.11 331.379 409.15 329.619 409.15V409.14Z" fill="#687A52"/>
<path d="M299.64 661.19C298.07 661.19 296.55 660.37 295.72 658.91C258.22 593.12 179.48 553.23 104.25 561.92C101.78 562.2 99.5397 560.43 99.2497 557.96C98.9597 555.49 100.74 553.25 103.21 552.96C181.92 543.87 264.31 585.6 303.55 654.44C304.78 656.6 304.03 659.36 301.87 660.59C301.17 660.99 300.4 661.18 299.64 661.18V661.19Z" fill="#687A52"/>
<path d="M366.849 308.05C364.509 308.05 362.539 306.25 362.359 303.88C357.269 236.21 330.839 161.05 291.659 102.83C290.269 100.76 290.819 97.9602 292.879 96.5702C294.949 95.1802 297.749 95.7302 299.139 97.7902C339.149 157.25 366.149 234.04 371.349 303.2C371.539 305.68 369.679 307.85 367.189 308.03C367.079 308.03 366.959 308.04 366.849 308.04V308.05Z" fill="#687A52"/>
<path d="M300.82 657.91C300.25 657.91 299.67 657.8 299.11 657.57C296.81 656.62 295.71 653.99 296.65 651.69C330.21 569.98 404.58 507.18 490.76 487.79C493.201 487.24 495.6 488.77 496.15 491.2C496.7 493.63 495.17 496.04 492.74 496.59C409.39 515.34 337.45 576.09 304.99 655.12C304.27 656.86 302.59 657.92 300.82 657.92V657.91Z" fill="#687A52"/>
<path d="M143.549 433.5C153.859 441.07 168.079 439.53 180.599 436.84C199.609 432.77 218.89 426.46 233.16 413.26C247.44 400.06 255.45 378.51 248.01 360.54C246.35 356.52 244.059 352.91 241.359 349.57C229.889 335.32 211.14 325.94 202.88 309.26C201.68 306.86 194.08 305 191.4 304.96C176.68 321.95 161.81 339.21 150.12 358.29C145.52 365.79 141.39 373.58 137.98 381.75C134.36 390.41 131.539 399.61 131.849 408.98C132.139 418.35 135.969 427.97 143.539 433.51L143.549 433.5Z" fill="#E95071"/>
<path d="M219.771 343.131C226.811 352.541 232.92 363.271 233.65 375.001C234.38 386.731 228.42 399.521 217.4 403.621C211.32 405.881 204.581 405.321 198.261 406.771C191.391 408.351 185.27 412.251 178.53 414.341C171.79 416.431 163.46 416.221 158.87 410.871C155.88 407.391 155.14 402.401 155.87 397.871C156.6 393.341 158.61 389.131 160.6 384.991C165.65 374.501 170.7 364.001 175.75 353.511C180.41 343.831 185.06 334.151 189.72 324.471C193.78 316.021 197.59 314.221 203.2 321.891C208.5 329.151 214.391 335.941 219.771 343.131Z" fill="#FA6B8A"/>
<path opacity="0.22" d="M154.689 368.08C158.369 369.81 162.839 370.59 166.889 371.05C177.449 372.26 188.549 373.4 198.339 369.28C205.199 366.4 211.13 361.04 218.49 359.99C225.7 358.97 238.599 362.85 245.929 359.36C234.459 345.11 215.709 335.73 207.449 319.05C206.249 316.65 198.649 314.79 195.969 314.75C181.249 331.74 166.379 349 154.689 368.08Z" fill="#F4F0ED"/>
<path d="M95.3898 414.12C100.87 413.61 105.72 410.53 110.27 407.44C124.49 397.81 138.21 387.43 151.33 376.35C153.73 374.33 156.12 372.26 158.47 370.15C166.32 363.08 173.63 355.42 179.19 346.49C186.41 334.89 190.42 320.74 187.52 307.38C182.57 306.53 178.24 304.74 173.72 302.56C161.68 296.76 149.3 291.68 136.64 287.35C122.54 282.5 108.09 278.58 93.4599 275.63C84.1799 273.75 74.1997 272.35 65.5497 276.21C57.2297 279.93 51.49 288.25 49.52 297.16C47.56 306.07 49.0299 315.46 52.2099 324.01C55.6199 333.22 60.9898 341.68 63.8298 351.08C68.1598 365.38 66.4598 381.09 71.5698 395.14C75.3098 405.42 84.4998 415.12 95.3798 414.13L95.3898 414.12Z" fill="#E95071"/>
<path d="M107.44 294.38C101.28 292.69 94.99 290.98 88.6 291.29C82.21 291.6 75.6001 294.27 72.1401 299.64C68.9501 304.59 68.9101 311.02 70.4601 316.7C72.0101 322.38 74.97 327.55 77.54 332.84C82.61 343.3 86.2201 354.47 88.2101 365.92C89.4401 373 90.6401 381.14 96.7101 384.98C102.59 388.7 110.32 386.55 116.66 383.69C135.11 375.37 150.99 361.63 162.25 344.85C166.53 338.47 175.47 326.31 174.31 318.19C172.95 308.68 155.34 307.54 148 305.53C134.48 301.81 120.95 298.1 107.43 294.38H107.44Z" fill="#FA6B8A"/>
<path opacity="0.22" d="M138 360.05C140.66 364.94 148.03 363.7 153.01 366.16C155.04 367.15 156.67 368.79 158.47 370.15C166.32 363.08 173.63 355.42 179.19 346.49C186.41 334.89 190.42 320.74 187.52 307.38C182.57 306.53 178.24 304.74 173.72 302.56C161.68 296.76 149.3 291.68 136.64 287.35C135.82 288.31 135.11 289.44 134.53 290.7C130.13 300.31 129.14 311.47 127.99 321.84C127.38 327.39 126.89 333.49 130.07 338.07C132.3 341.29 136.18 343.44 137.3 347.2C138.54 351.37 135.92 356.25 138 360.06V360.05Z" fill="#F4F0ED"/>
<path d="M82.8404 285.86C89.0304 292.22 97.2206 296.28 105.481 299.51C113.891 302.8 122.611 305.36 131.481 307.18C140.611 309.05 149.911 310.09 159.211 310.27C172.601 310.5 189.2 315.16 199.36 303.84C204.52 298.1 206.631 290.16 207.021 282.44C207.411 274.73 206.29 267.02 205.8 259.32C205.58 255.89 205.511 252.47 205.441 249.04C205.321 241.11 205.35 233.17 204.31 225.32C202.83 214.07 198.79 202.63 190.36 195.05C180.89 186.57 166.7 184.23 154.62 188.15C144.2 191.53 135.651 198.94 127.431 206.17C115.441 216.7 103.441 227.22 91.4506 237.75C83.9106 244.37 75.9005 251.79 74.1805 261.69C72.6705 270.44 76.6404 279.49 82.8304 285.86H82.8404Z" fill="#E95071"/>
<path d="M197.52 252.77C194.03 235.25 186.869 218.14 174.829 204.94C170.499 200.19 164.659 195.7 158.299 196.64C154.359 197.23 151.039 199.81 147.939 202.31C140.009 208.68 132.069 215.06 124.139 221.43C118.719 225.78 113.269 230.16 108.669 235.38C104.479 240.13 101.049 245.5 97.6394 250.84C94.0194 256.51 90.2394 263.08 91.9594 269.59C93.4894 275.38 98.9294 279.19 104.199 282.02C120.779 290.92 139.349 295.13 157.919 297.25C170.399 298.68 199.229 305.78 200.659 287.07C201.509 275.94 199.7 263.66 197.52 252.76V252.77Z" fill="#FA6B8A"/>
<path opacity="0.22" d="M131.481 307.18C140.611 309.05 149.911 310.09 159.211 310.27C172.601 310.5 189.201 315.16 199.361 303.84C204.521 298.1 206.631 290.16 207.021 282.44C207.411 274.73 206.29 267.02 205.8 259.32C205.58 255.89 205.511 252.47 205.441 249.04C205.121 248.71 204.781 248.4 204.411 248.08C199.601 243.88 193.09 242.24 186.79 241.23C182.61 240.55 178.261 240.1 174.241 241.41C170.391 242.67 167.231 245.4 163.681 247.34C160.301 249.19 156.49 250.33 153.53 252.78C149.86 255.8 147.931 260.4 146.141 264.81C142.191 274.59 138.231 284.36 134.271 294.13C132.901 297.53 131.491 301.01 131.361 304.68C131.331 305.53 131.361 306.37 131.471 307.19L131.481 307.18Z" fill="#F4F0ED"/>
<path d="M226.98 367.25C227.79 368.23 228.58 369.18 229.31 370.09C233.94 375.82 239.51 381.61 247.56 382.76C255.78 383.92 264.5 379.9 271.97 375.34C282.7 368.77 293.03 359.99 296.46 349.03C300.7 335.52 293.52 322.2 296.46 308.55C298.2 300.5 303.32 293.01 305.97 285.07C308.61 277.12 307.91 267.48 300.5 263.87C293.2 260.31 283.44 264.24 275.28 268.11C268.89 271.14 262.45 274.2 256.19 277.54C246.16 282.87 236.6 288.88 228.48 296.49C217.4 306.88 208.53 322.15 209.23 336C209.8 347.19 219.63 358.45 226.97 367.27L226.98 367.25Z" fill="#E95071"/>
<path d="M259.731 292.3C264.051 291.47 269.201 291.3 271.471 294.36C273.121 296.59 272.571 299.86 271.091 302.54C269.611 305.22 267.341 307.53 265.431 310C260.371 316.55 257.821 324.48 258.391 331.9C258.781 337.03 260.591 341.88 260.621 347.06C260.651 352.24 258.271 358.26 252.951 360.87C245.991 364.28 238.431 360.16 233.701 355.42C228.421 350.12 224.331 343.83 221.631 336.97C219.661 331.98 215.811 322.56 217.531 316.84C219.281 311.02 229.581 304.96 234.921 301.8C242.591 297.26 251.071 293.97 259.731 292.3Z" fill="#FA6B8A"/>
<path opacity="0.22" d="M226.98 367.25C230.22 365.3 232.16 361.76 232.9 358.38C233.7 354.76 233.42 351.15 233.74 347.52C234.32 340.69 237.01 333.94 239.68 327.3C244 316.5 248.34 305.7 252.66 294.91C254.32 290.79 259.26 281.46 256.19 277.51C246.16 282.84 236.6 288.85 228.48 296.46C217.4 306.85 208.53 322.12 209.23 335.97C209.8 347.16 219.63 358.42 226.97 367.24L226.98 367.25Z" fill="#F4F0ED"/>
<path d="M203.93 315.06C207.33 315.26 210.66 314.06 213.86 312.89C225.89 308.49 237.92 304.09 249.95 299.68C253.96 298.21 257.97 296.75 261.98 295.28C274.55 290.67 288.06 285.31 294.94 273.82C301.54 262.81 300.16 248.3 294.06 237C287.96 225.69 277.79 217.13 267.08 210.02C256.37 202.92 244.89 196.98 234.58 189.3C225.65 182.65 216.34 174.26 205.22 175.03C196.7 175.63 189.33 181.87 185.32 189.41C181.31 196.95 180.15 205.67 179.63 214.2C178.83 227.08 179.36 240.04 181.16 252.83C181.59 255.81 182.07 258.77 182.64 261.72C183.99 268.8 186.74 275.65 188.1 282.65C189.38 289.32 187.72 296.07 189.95 302.72C192.03 308.99 197.35 314.66 203.94 315.05L203.93 315.06Z" fill="#E95071"/>
<path d="M267.47 269.86C271.26 265.36 274.81 259.72 273.55 253.97C272.41 248.76 267.7 245.22 263.33 242.17C251.64 234.02 239.96 225.86 228.27 217.71C222.62 213.77 215.41 209.67 209.27 212.8C203.59 215.69 202.27 223.08 201.62 229.42C199.78 247.6 197.98 266.41 202.13 284.41C203.14 288.8 204.5 293.11 206.3 297.23C208.73 302.81 209.21 303.06 215.12 301.73C224.6 299.6 233.76 295.92 242.15 291.04C251.71 285.49 260.35 278.31 267.47 269.84V269.86Z" fill="#FA6B8A"/>
<path opacity="0.22" d="M203.931 315.06C207.331 315.26 210.661 314.06 213.861 312.89C225.891 308.49 237.921 304.09 249.951 299.68C250.171 295.01 248.571 290.42 244.741 287.81C241.181 285.38 236.421 285.08 233.011 282.43C225.811 276.8 227.901 263.64 220.031 259C213.861 255.35 205.961 259.63 198.851 258.58C192.671 257.68 187.271 252.74 181.141 252.84C181.571 255.82 182.051 258.78 182.621 261.73C183.971 268.81 186.721 275.66 188.081 282.66C189.361 289.33 187.701 296.08 189.931 302.73C192.011 309 197.331 314.67 203.921 315.06H203.931Z" fill="#F4F0ED"/>
<path d="M202.81 264.43C209.94 270.13 213.23 279.25 216.02 287.94C218.57 295.9 221.01 304.27 219.56 312.5C217.75 322.78 210.26 330.99 203.1 338.58C198.28 343.68 193.37 348.86 187.29 352.37C181.21 355.88 173.68 357.54 167.08 355.14C159.67 352.44 154.82 345.22 152 337.85C147.07 324.97 146.88 310.34 151.47 297.34C157.24 281.01 183.19 248.76 202.82 264.43H202.81Z" fill="#FFB23D"/>
<path d="M199.451 285.661C202.911 293.951 203.861 303.271 202.141 312.081C200.431 320.901 196.051 329.181 189.741 335.571C187.031 338.321 183.751 340.811 179.921 341.281C175.801 341.781 171.661 339.781 168.771 336.801C165.881 333.821 164.071 329.961 162.661 326.061C158.781 315.371 157.641 302.911 163.241 293.021C167.051 286.281 173.33 282.261 179.53 277.991C183.32 275.381 187.111 272.871 191.591 275.491C195.391 277.721 197.791 281.701 199.451 285.671V285.661Z" fill="#FFBD59"/>
<path d="M173.05 308.08C172.72 314.48 176.681 319.89 181.881 320.15C187.081 320.41 191.561 315.44 191.891 309.03C192.221 302.63 188.26 297.22 183.06 296.96C177.86 296.7 173.38 301.67 173.05 308.08Z" fill="#FFA112"/>
<path d="M601.07 528.92C599.82 538.07 591.05 545.46 580.24 549.57C577.1 550.77 573.79 551.69 570.44 552.29C555.56 554.96 540.05 552.76 525.06 550.57C505.89 547.76 486.22 544.81 469.64 536.83C430.17 517.83 439.25 478.42 467.8 455.12C482.46 443.16 501.51 435.02 521.02 428.48C524.01 427.48 527.18 426.55 530.42 425.75C543.79 422.48 558.54 421.68 567.64 429.31C576.62 436.83 575.29 449.18 583.47 457.23C589.29 462.96 599.43 465.98 603.04 472.73C607.91 481.81 598.31 491.51 597.06 501.3C595.89 510.56 602.33 519.67 601.08 528.92H601.07Z" fill="#E95071"/>
<path d="M511.18 447.46C521 444.47 534.65 443.36 539.79 450.52C544.12 456.56 538.94 464.23 540.93 470.97C542.83 477.37 550.68 481.57 554.65 487.36C560.05 495.24 557.66 504.84 555.13 513.55C552.74 521.78 549.75 530.75 540.96 535.69C533.59 539.83 523.79 540.12 514.75 539.43C489.76 537.52 439.42 525.37 442.3 499.91C445.02 475.83 485.35 455.34 511.19 447.46H511.18Z" fill="#FA6B8A"/>
<path opacity="0.22" d="M580.24 549.57C577.1 550.77 573.79 551.69 570.44 552.29C555.56 554.96 540.05 552.76 525.06 550.57C505.89 547.76 486.22 544.81 469.64 536.83C430.17 517.83 439.25 478.42 467.8 455.12C482.46 443.16 501.51 435.02 521.02 428.48C524.01 427.48 527.18 426.55 530.42 425.75C525.37 432.72 517.24 440.48 515.52 443.69C511.06 452 509.23 461.5 512.85 470.05C515.53 476.37 520.98 481.78 524.01 488.01C528.47 497.18 527.4 507.51 531.38 516.82C535.35 526.06 544.44 533.9 555.86 537.91C561.28 539.8 567.2 540.89 572.34 543.22C575.63 544.72 578.64 546.95 580.26 549.58L580.24 549.57Z" fill="#F4F0ED"/>
<path d="M242.06 31.56C246.54 28.02 253.61 28.48 260.19 31.28C262.11 32.09 263.97 33.1 265.72 34.27C273.49 39.46 279.46 47.08 285.2 54.48C292.54 63.94 300.041 73.69 304.011 84.35C313.461 109.73 292.53 123.4 269.82 121.55C258.16 120.6 246.19 116.06 234.69 110.62C232.93 109.79 231.12 108.84 229.33 107.81C221.97 103.54 215.051 97.57 214.271 90.28C213.491 83.08 219.37 78.15 219.18 71.06C219.04 66.01 215.82 60.32 217.1 55.77C218.82 49.64 227.251 49.43 232.011 45.6C236.501 41.97 237.53 35.16 242.05 31.57L242.06 31.56Z" fill="#E95071"/>
<path d="M247.21 106.37C241.55 103.5 234.99 98.14 235.77 92.75C236.43 88.2 242.02 87.01 244.02 83.15C245.92 79.48 244.22 74.25 244.93 69.96C245.9 64.13 251.08 60.88 255.94 58.08C260.53 55.44 265.71 52.72 271.74 54.29C276.8 55.6 281.29 59.67 285.02 63.86C295.34 75.42 312.56 102.4 300.37 112.51C288.84 122.08 262.09 113.93 247.2 106.37H247.21Z" fill="#FA6B8A"/>
<path opacity="0.22" d="M260.19 31.28C262.11 32.09 263.97 33.1 265.72 34.27C273.49 39.46 279.46 47.08 285.2 54.48C292.54 63.94 300.04 73.69 304.01 84.35C313.46 109.73 292.53 123.4 269.82 121.55C258.16 120.6 246.19 116.06 234.69 110.62C232.93 109.79 231.12 108.84 229.33 107.81C234.57 106.87 241.51 106.89 243.66 106.2C249.21 104.41 254.09 100.96 256.14 95.6C257.65 91.64 257.54 86.89 258.86 82.82C260.8 76.82 265.7 72.68 267.92 66.82C270.11 61 269.42 53.61 266.05 46.93C264.45 43.76 262.27 40.75 260.98 37.5C260.16 35.42 259.77 33.14 260.17 31.27L260.19 31.28Z" fill="#F4F0ED"/>
<path d="M315.25 131.22C318.64 128.31 321.25 124.35 322.03 119.95C322.81 115.55 321.59 110.72 318.43 107.56C315.27 104.4 310.11 103.23 306.08 105.17C310.73 96.9601 311.98 89.3901 313.19 80.0401C314.4 70.6801 312.89 60.7701 307.73 52.8701C312.28 69.6301 308.45 88.8001 298.95 103.33C290.97 104.74 281.99 104.28 274.61 100.92C277.69 108.21 284.16 113.27 292.04 114.05C286.81 113.84 281.26 117.46 278.09 121.63C274.92 125.79 273.03 130.77 270.78 135.49C268.53 140.22 265.72 144.92 261.35 147.8C276.31 142.53 288.51 131.99 294.57 117.33C295.19 121.99 297.5 125.94 301.25 128.77C305 131.6 310.61 131.9 315.25 131.22Z" fill="#687A52"/>
<path d="M413.96 519.36C410.21 512.69 411.48 503.58 416.92 498.19C422.36 492.8 431.47 491.61 438.11 495.41C433.46 488.68 434.03 478.83 436.57 471.06C439.11 463.29 443.84 456.46 448.25 449.57C452.66 442.68 456.88 435.4 458.16 427.33C461.93 442.84 458.72 457.25 451.87 471.67C460.22 464.39 469.89 460.2 480.92 459.15C470.75 464.97 462.43 474.21 457.54 484.87C455.68 488.92 454.31 493.18 452.27 497.14C450.23 501.1 447.4 504.83 443.46 506.9C449.36 508.34 452.11 512.73 456.94 516.41C461.77 520.09 466.53 524.01 472.11 526.39C477.69 528.77 484.38 529.42 489.7 526.5C486.46 534.12 477.29 537.1 469.03 536.43C460.77 535.76 453.25 531.58 446.24 527.16C453.66 532.17 458.02 540.8 459.72 549.59C461.42 558.38 459.47 567.81 454.44 575.22C453.92 562.58 450.73 549.68 442.07 540.46C439.73 537.97 436.93 535.95 434.57 533.47C432.21 530.99 430.25 527.87 430.22 524.45C428.09 527.14 423.38 527.48 420.01 526.83C416.64 526.18 415.62 522.37 413.94 519.37L413.96 519.36Z" fill="#687A52"/>
<path d="M646.299 340.61C623.409 321.05 609.08 289.72 580.52 280.22C610.23 272.65 637.17 272.44 663.5 288.16C689.82 303.88 709.489 330.37 716.919 360.12C716.119 358.77 671.679 362.29 646.309 340.61H646.299Z" fill="#7EA175"/>
<path d="M580.52 280.22C636.48 277.87 679.639 324.25 716.909 360.12C675.919 328.35 635.54 283.33 580.52 280.22Z" fill="#687A52"/>
<path d="M618.539 287.4C624.249 294.87 624.139 305.23 622.889 314.13C622.219 304.09 621.669 292.8 613.629 285.81C624.229 283.26 635.479 282.86 646.039 285.72C636.829 285.23 627.569 285.62 618.539 287.39V287.4Z" fill="#687A52"/>
<path d="M182.089 637.13C207.029 625.83 237.999 624.35 256.219 603.91C251.849 631.46 242.329 654.04 219.719 670.38C197.109 686.71 167.899 693.61 140.379 689.11C141.799 688.93 150.199 651.59 182.089 637.14V637.13Z" fill="#7EA175"/>
<path d="M256.219 603.91C238.039 651.51 183.759 670.87 140.379 689.1C181.679 666.29 233.819 648.76 256.219 603.91Z" fill="#687A52"/>
<path d="M236.539 633.09C228.239 635.17 219.629 631.35 212.639 627.11C221.269 630.16 230.899 633.77 239.629 629.56C237.949 639.34 234.229 648.88 228.039 656.67C231.759 649.15 234.779 641.27 236.539 633.09Z" fill="#687A52"/>
<path d="M221.459 645.29C212.359 644.29 203.5 640.69 196.52 634.76C205.05 639.76 214.709 642.79 224.579 643.26C220.909 655.13 214.069 666.2 204.609 674.29C211.809 665.55 217.619 655.88 221.459 645.28V645.29Z" fill="#687A52"/>
<path d="M206.808 655.82C197.398 653.69 188.358 649.83 180.578 644.15C189.898 648.74 199.768 652.24 209.978 654.11C205.808 665 199.148 678.19 186.488 680.35C197.238 676.61 202.638 665.73 206.818 655.83L206.808 655.82Z" fill="#687A52"/>
<path d="M187.869 665.41C179.659 664.27 171.829 659.4 167.689 652.25C173.879 659.09 182.599 663.25 191.779 663.39C186.869 672.11 180.189 679.95 171.799 685.47C177.839 679.36 183.369 672.71 187.869 665.41Z" fill="#687A52"/>
<path d="M170.15 674.68C164.4 673.12 158.92 670.35 154.59 666.27C160.75 669.35 167.07 671.8 173.79 673.14C170.45 679.2 165.36 684.54 158.92 687.24C163.29 683.56 167.15 679.45 170.14 674.68H170.15Z" fill="#687A52"/>
<path d="M488.641 279.16C490.101 256.89 504.131 236.96 521.741 223.24C539.341 209.52 560.371 201.05 581.091 192.75C591.061 201.02 588.711 217.66 582.111 228.8C575.521 239.95 564.081 247.21 552.871 253.71C532.711 265.41 511.611 275.23 488.641 279.16Z" fill="#7EA175"/>
<path d="M488.641 279.16C511.821 242.82 558.991 228.9 582.751 192.95C563.341 232.18 515.681 246.57 488.641 279.16Z" fill="#687A52"/>
<path d="M519.671 266.08C513.551 263.75 506.831 263.68 500.691 265.89C501.141 260.63 501.131 253.46 501.171 248.13C502.821 252.72 503.451 257.6 503.411 262.46C509.001 261.16 515.301 262.32 519.671 266.09V266.08Z" fill="#687A52"/>
<path d="M538.53 253C529.87 252.21 521.33 252.77 513 255.11C513.26 248.11 513.75 241.15 514.93 234.24C515.56 240.1 515.69 245.96 515.6 251.84C523.12 250 531.3 250.22 538.53 253Z" fill="#687A52"/>
<path d="M555.35 241.93C545.44 242.21 535.72 243.05 526.07 245.11C527 237.88 527.44 230.69 527.59 223.39C529.02 229.46 529.34 235.77 528.88 241.98C537.58 240.2 546.68 239.98 555.35 241.93Z" fill="#687A52"/>
<path d="M566.82 233.55C558.14 231.73 549.31 232.02 540.93 234.83C541.06 227.99 541.39 221.16 542.41 214.39C543.14 220.07 543.4 225.75 543.45 231.46C551.13 229.3 559.77 229.84 566.82 233.56V233.55Z" fill="#687A52"/>
<path d="M578.18 222.89L578.14 223.1H578.06L578.12 223.09L578.15 222.9L577.49 222.95L578.06 223.09C570.1 222.45 562.1 222.61 554.24 224.06C555.77 218.15 556.74 212.21 557.27 206.09C558.35 210.96 558.31 216.07 557.45 220.99C564.37 219.91 571.61 220.4 578.18 222.9V222.89Z" fill="#687A52"/>
<path d="M578.15 222.89L578.13 223.08H578.06L577.5 222.94L578.15 222.89Z" fill="#687A52"/>
<path d="M580.761 209.59C575.581 210.54 570.581 212.15 565.971 214.67C565.921 209.96 565.961 205.16 566.961 200.53C567.821 203.84 568.21 207.25 568.4 210.66C572.28 209.02 576.681 208.47 580.751 209.6L580.761 209.59Z" fill="#687A52"/>
<path opacity="0.32" d="M570.21 218.88C562.76 217.9 555.58 218.15 548.48 219.2C541.41 220.3 534.47 222.36 528.03 225.69C521.58 229.02 515.73 233.67 511.13 239.62C506.58 245.56 503.21 252.89 502.68 260.99C507.22 255.23 511.88 250.5 517.03 246.44C522.14 242.38 527.62 238.97 533.36 235.98C539.13 232.98 545.19 230.38 551.42 227.75C557.63 225.07 564.04 222.51 570.22 218.87L570.21 218.88Z" fill="white"/>
<path opacity="0.32" d="M711.649 351.25C708.139 342.45 703.489 334.28 698.049 326.41C692.569 318.58 686.159 311.14 678.719 304.6C671.269 298.05 662.779 292.52 653.689 288.75C644.629 285.04 634.829 283.04 625.949 284.49C634.809 288.24 642.649 292.38 650.069 297.25C657.479 302.08 664.419 307.5 671.079 313.32C677.759 319.18 684.219 325.47 690.789 331.94C697.409 338.38 704.019 345.09 711.649 351.25Z" fill="white"/>
<path d="M179.609 562.78C158.249 556.3 142.039 538.11 132.669 517.85C123.309 497.59 119.829 475.19 116.449 453.13C126.769 445.3 142.429 451.37 151.789 460.32C161.149 469.27 165.629 482.07 169.409 494.45C176.219 516.74 180.999 539.52 179.599 562.78H179.609Z" fill="#7EA175"/>
<path d="M179.609 562.78C149.479 531.96 146.059 484.43 116.449 453.12C150.239 480.93 154.009 529.05 179.609 562.78Z" fill="#687A52"/>
<path d="M173.918 529.6C170.258 535.03 168.668 541.56 169.418 548.04C164.398 546.41 157.409 544.79 152.229 543.54C157.069 542.98 161.968 543.47 166.688 544.61C166.688 538.87 169.248 533 173.918 529.6Z" fill="#687A52"/>
<path d="M165.47 508.26C162.74 516.51 161.34 524.96 161.73 533.61C154.98 531.77 148.3 529.71 141.84 526.99C147.69 527.71 153.43 528.91 159.13 530.33C159.04 522.58 161.12 514.67 165.47 508.26Z" fill="#687A52"/>
<path d="M158.499 489.36C156.529 499.07 155.129 508.73 154.949 518.6C148.119 516.06 141.219 514 134.139 512.19C140.369 512.18 146.589 513.3 152.539 515.16C152.779 506.29 154.639 497.37 158.499 489.37V489.36Z" fill="#687A52"/>
<path d="M152.948 476.29C149.208 484.33 147.478 492.99 148.308 501.8C141.678 500.12 135.098 498.24 128.738 495.71C134.438 496.29 140.028 497.32 145.598 498.57C145.238 490.6 147.728 482.31 152.948 476.29Z" fill="#687A52"/>
<path d="M145.139 462.8L145.329 462.88L145.299 462.95V462.89L145.129 462.82L145.029 463.47L145.299 462.95C142.859 470.56 141.209 478.39 140.829 486.37C135.419 483.53 129.86 481.24 124.02 479.34C129.01 479.39 133.979 480.59 138.579 482.55C139.099 475.57 141.219 468.63 145.139 462.8Z" fill="#687A52"/>
<path d="M145.139 462.83L145.319 462.9L145.309 462.96L145.039 463.48L145.139 462.83Z" fill="#687A52"/>
<path d="M132 458.07C131.75 463.33 132.189 468.56 133.579 473.63C128.979 472.61 124.319 471.48 120.029 469.45C123.449 469.36 126.859 469.76 130.219 470.34C129.509 466.19 129.97 461.78 132 458.07Z" fill="#687A52"/>
<path d="M488.641 279.16C488.791 305.11 499.231 330.86 517.201 349.58C535.171 368.3 560.471 379.79 586.391 381.01C584.911 355.4 573.341 329.5 555.681 310.9C538.021 292.29 514.141 281.98 488.641 279.17V279.16Z" fill="#7EA175"/>
<path d="M586.39 381.01C564.44 370.81 551.78 348.57 536.93 330.71C522.17 312.3 506.15 295.05 488.65 279.16C508.18 292.68 524.98 309.9 539.94 328.28C554.84 346.39 566.12 368.09 586.4 381.01H586.39Z" fill="#687A52"/>
<path d="M514.89 287.91C509.15 287.11 503.54 286.64 497.8 286.93C497.36 293.41 496.34 299.89 494.24 306.06C494.32 299.75 495.02 290.85 495.4 284.5C502.04 284.06 508.9 284.95 514.89 287.91Z" fill="#687A52"/>
<path d="M529.531 296.57C522.051 293.73 514.061 292.87 506.371 294.84C505.921 301.67 504.521 308.46 501.871 314.77C502.841 307.59 503.701 300.12 503.931 292.9C512.381 290.08 522.351 291.27 529.531 296.57Z" fill="#687A52"/>
<path d="M540.271 307.69C533.321 304.28 525.211 303.82 517.871 306.12C517.521 313.98 514.061 321.92 508.111 327.05C512.741 320.28 515.471 312.38 515.351 304.22C523.491 301.22 533.591 301.87 540.281 307.69H540.271Z" fill="#687A52"/>
<path d="M554.42 317.93C545.04 315.4 535.38 315.04 525.91 316.93C524.18 324.86 521.41 332.62 517.24 339.6C519.84 331.54 522.24 323.1 523.76 314.79C533.87 312.35 545.16 313.01 554.42 317.93Z" fill="#687A52"/>
<path d="M563.612 331.89C555.142 327.95 545.712 327.14 536.712 329.26C536.072 336.8 533.422 344.24 528.762 350.22C532.062 343 534.052 335.2 534.312 327.29C544.012 324.31 555.582 325.46 563.602 331.89H563.612Z" fill="#687A52"/>
<path d="M571.681 346.95C564.231 343.34 556.191 341.85 548.041 342.76C547.891 349.17 545.891 355.66 542.041 360.77C544.611 354.29 545.861 347.49 545.521 340.58C554.551 338.81 564.711 340.8 571.681 346.94V346.95Z" fill="#687A52"/>
<path d="M575.2 358.13C569.62 356.84 564.19 356 558.52 356.06C558.86 360.63 559.02 365.25 558.65 369.83C557.12 364.55 556.33 359.09 555.75 353.64C562.46 353.05 569.56 354.36 575.2 358.14V358.13Z" fill="#687A52"/>
<path d="M179.431 563.24C153.551 565.1 128.541 577.21 111.041 596.38C93.5407 615.54 83.7409 641.54 84.2409 667.49C109.701 664.33 134.771 651.08 152.181 632.23C169.581 613.38 178.301 588.88 179.431 563.25V563.24Z" fill="#7EA175"/>
<path d="M84.25 667.48C92.98 644.9 114.33 630.8 131.18 614.81C148.57 598.86 164.73 581.75 179.43 563.24C167.23 583.62 151.16 601.51 133.8 617.65C116.71 633.71 95.8 646.4 84.25 667.48Z" fill="#687A52"/>
<path d="M172.431 590.01C172.851 584.23 172.951 578.6 172.281 572.89C165.781 572.88 159.251 572.29 152.961 570.6C159.261 570.26 168.191 570.38 174.551 570.34C175.431 576.93 174.991 583.84 172.431 590.01Z" fill="#687A52"/>
<path d="M164.751 605.18C167.091 597.53 167.431 589.5 164.951 581.95C158.111 581.95 151.241 581 144.771 578.78C152.001 579.28 159.511 579.64 166.731 579.39C170.101 587.64 169.571 597.67 164.751 605.17V605.18Z" fill="#687A52"/>
<path d="M154.372 616.64C157.312 609.48 157.242 601.36 154.462 594.18C146.602 594.34 138.442 591.42 132.932 585.82C139.992 589.99 148.052 592.2 156.182 591.54C159.712 599.47 159.722 609.58 154.372 616.64Z" fill="#687A52"/>
<path d="M145.08 631.42C146.99 621.89 146.7 612.23 144.2 602.91C136.17 601.7 128.25 599.45 121 595.75C129.21 597.81 137.79 599.65 146.19 600.62C149.29 610.55 149.38 621.86 145.07 631.42H145.08Z" fill="#687A52"/>
<path d="M131.75 641.52C135.12 632.81 135.31 623.34 132.6 614.51C125.04 614.37 117.43 612.21 111.16 607.96C118.58 610.78 126.49 612.24 134.41 611.99C138.02 621.47 137.64 633.09 131.75 641.52Z" fill="#687A52"/>
<path d="M117.262 650.56C120.372 642.89 121.332 634.77 119.882 626.7C113.482 626.97 106.872 625.4 101.512 621.9C108.152 624.04 115.022 624.84 121.882 624.04C124.242 632.94 122.922 643.2 117.252 650.57L117.262 650.56Z" fill="#687A52"/>
<path d="M106.33 654.81C107.25 649.16 107.73 643.68 107.3 638.03C102.76 638.68 98.1603 639.13 93.5703 639.07C98.7403 637.2 104.13 636.05 109.54 635.11C110.58 641.77 109.73 648.94 106.34 654.82L106.33 654.81Z" fill="#687A52"/>
<path opacity="0.32" d="M581.679 374.44C579.959 365.13 576.999 356.2 573.209 347.42C569.369 338.67 564.539 330.12 558.519 322.25C552.499 314.37 545.259 307.28 537.069 301.81C528.919 296.4 519.689 292.52 510.699 292.2C518.659 297.61 525.529 303.2 531.859 309.43C538.179 315.61 543.929 322.29 549.319 329.3C554.729 336.35 559.829 343.78 564.999 351.42C570.229 359.03 575.399 366.91 581.679 374.43V374.44Z" fill="white"/>
<path d="M304.16 515.63C330.04 513.77 355.05 501.66 372.55 482.49C390.05 463.33 399.85 437.33 399.35 411.38C373.89 414.54 348.82 427.79 331.41 446.64C314.01 465.49 305.29 489.99 304.16 515.62V515.63Z" fill="#7EA175"/>
<path d="M399.34 411.391C390.61 433.971 369.26 448.071 352.41 464.061C335.02 480.011 318.86 497.121 304.16 515.631C316.36 495.251 332.43 477.361 349.79 461.221C366.88 445.161 387.79 432.471 399.34 411.391Z" fill="#687A52"/>
<path d="M311.159 488.86C310.739 494.64 310.639 500.27 311.309 505.98C317.799 505.99 324.339 506.58 330.629 508.27C324.329 508.61 315.399 508.49 309.039 508.53C308.159 501.94 308.599 495.03 311.159 488.86Z" fill="#687A52"/>
<path d="M318.841 473.69C316.501 481.34 316.161 489.37 318.641 496.92C325.481 496.92 332.351 497.87 338.821 500.09C331.591 499.59 324.081 499.23 316.861 499.48C313.491 491.23 314.021 481.2 318.841 473.7V473.69Z" fill="#687A52"/>
<path d="M329.221 462.24C326.281 469.4 326.351 477.52 329.131 484.7C336.991 484.54 345.151 487.46 350.661 493.06C343.601 488.89 335.541 486.68 327.401 487.34C323.871 479.41 323.861 469.3 329.211 462.24H329.221Z" fill="#687A52"/>
<path d="M338.51 447.45C336.6 456.98 336.89 466.64 339.39 475.96C347.42 477.17 355.34 479.42 362.59 483.12C354.38 481.06 345.8 479.22 337.4 478.25C334.3 468.32 334.21 457.01 338.52 447.45H338.51Z" fill="#687A52"/>
<path d="M351.84 437.351C348.47 446.061 348.28 455.531 350.99 464.361C358.55 464.501 366.16 466.661 372.43 470.911C365.01 468.091 357.1 466.631 349.18 466.881C345.57 457.401 345.95 445.781 351.84 437.351Z" fill="#687A52"/>
<path d="M366.33 428.31C363.22 435.98 362.26 444.1 363.71 452.17C370.11 451.9 376.72 453.47 382.08 456.97C375.44 454.83 368.57 454.03 361.71 454.83C359.35 445.93 360.67 435.67 366.34 428.3L366.33 428.31Z" fill="#687A52"/>
<path d="M377.26 424.06C376.34 429.71 375.859 435.19 376.289 440.84C380.829 440.19 385.43 439.74 390.02 439.8C384.85 441.67 379.459 442.82 374.049 443.76C373.009 437.1 373.86 429.93 377.25 424.05L377.26 424.06Z" fill="#687A52"/>
<path d="M138.93 557.84C123.57 536.92 99.9997 522.22 74.4597 517.62C48.9197 513.02 21.6998 518.58 0.00976562 532.82C16.2498 552.68 40.8195 566.84 66.0396 571.53C91.2596 576.22 116.65 570.54 138.93 557.84Z" fill="#7EA175"/>
<path d="M0 532.81C23.76 528.17 47.0698 538.73 69.5798 544.47C92.3398 550.7 115.43 555.25 138.93 557.83C115.18 558.36 91.4798 554.29 68.5698 548.2C45.8798 542.29 24 531.36 0 532.81Z" fill="#687A52"/>
<path d="M112.539 566.17C117.659 563.45 122.469 560.53 126.949 556.92C123.499 551.42 120.519 545.57 118.589 539.35C122.239 544.5 126.889 552.12 130.319 557.48C125.209 561.74 119.129 565.05 112.539 566.16V566.17Z" fill="#687A52"/>
<path d="M95.6094 567.76C103.329 565.67 110.299 561.67 115.369 555.55C111.729 549.76 108.869 543.44 107.299 536.78C110.729 543.16 114.419 549.71 118.479 555.69C113.299 562.94 104.529 567.83 95.6094 567.75V567.76Z" fill="#687A52"/>
<path d="M80.3906 565.07C88.0206 563.74 94.8507 559.36 99.4407 553.18C95.1107 546.61 93.2405 538.16 95.0505 530.5C95.2805 538.7 97.7106 546.7 102.601 553.23C97.7706 560.44 89.2206 565.84 80.3906 565.07Z" fill="#687A52"/>
<path d="M62.9199 565.09C71.9999 561.63 80.0298 556.24 86.5798 549.16C83.3198 541.72 81.0098 533.82 80.2798 525.72C82.9098 533.77 85.9198 542.01 89.5798 549.63C82.8198 557.54 73.3099 563.64 62.9199 565.09Z" fill="#687A52"/>
<path d="M47.2793 559.19C56.4493 557.4 64.5594 552.52 70.5894 545.52C66.6794 539.04 64.4595 531.46 64.7095 523.89C66.2795 531.67 69.2494 539.15 73.6794 545.71C67.5794 553.82 57.5495 559.69 47.2695 559.19H47.2793Z" fill="#687A52"/>
<path d="M31.9102 551.74C40.0602 550.29 47.4402 546.77 53.5002 541.24C49.8602 535.96 47.67 529.54 47.78 523.14C49.51 529.89 52.4901 536.14 56.8201 541.52C50.5501 548.26 41.1602 552.61 31.9102 551.74Z" fill="#687A52"/>
<path d="M22.4902 544.75C27.7602 542.51 32.6502 540 37.2102 536.63C34.2402 533.13 31.4103 529.49 29.0203 525.56C33.3603 528.93 37.2001 532.89 40.8801 536.96C35.8001 541.38 29.2802 544.49 22.5002 544.75H22.4902Z" fill="#687A52"/>
<path d="M402.179 317.89C392.019 297.03 394.989 270.43 409.499 252.32C424.009 234.21 449.309 225.5 471.889 230.85C476.809 240.67 471.529 252.31 462.959 259.18C454.379 266.05 443.599 269.47 434.179 275.12C419.019 284.22 406.749 300.81 402.179 317.89Z" fill="#7EA175"/>
<path d="M402.18 317.89C397.38 276 433.37 240.35 471.89 230.85C435.92 245.71 403.2 276.82 402.18 317.89Z" fill="#687A52"/>
<path d="M414.939 287.64C410.389 290.37 407.119 294.3 404.079 298.53C401.299 293.43 399.239 287.76 399.129 281.9C400.959 285.78 402.689 289.89 404.549 293.78C407.249 290.71 410.839 288.14 414.929 287.65L414.939 287.64Z" fill="#687A52"/>
<path d="M426.059 273.75C419.939 274.42 414.309 277.25 410.109 281.7C407.649 275.97 406.409 269.47 407.869 263.33C408.539 268.15 409.489 272.8 411.139 277.29C415.289 274.03 420.879 272.42 426.059 273.75Z" fill="#687A52"/>
<path d="M443.059 266.48C435.639 264.33 428.049 263.88 420.549 265.42C419.119 259.74 419.069 253.59 420.859 248C420.919 252.95 421.339 257.75 422.439 262.53C429.459 261.27 437.149 262.43 443.049 266.47L443.059 266.48Z" fill="#687A52"/>
<path d="M459.099 255.99C449.759 254.06 440.229 253.43 430.779 254.74C430.779 249.32 431.819 243.82 434.319 239C433.529 243.33 433.069 247.67 433.129 252.04C441.899 250.69 451.199 251.83 459.089 255.99H459.099Z" fill="#687A52"/>
<path d="M468.77 245.86C460.76 243.13 452.09 242.82 444.01 245.38C444.69 240.85 446.6 236.34 450 233.21C448.54 236.07 447.48 239.05 446.91 242.14C454.24 240.03 462.7 241.16 468.77 245.86Z" fill="#687A52"/>
<path d="M256.261 604.56C273.581 585.91 278.961 557.05 269.521 533.41C260.081 509.77 236.301 492.55 210.901 490.96C202.601 499.7 204.421 513.6 211.231 523.54C218.041 533.48 228.261 540.52 236.341 549.46C249.351 563.85 256.921 585.18 256.261 604.56Z" fill="#7EA175"/>
<path d="M256.26 604.56C274.68 562.13 248.29 513.23 210.9 490.96C243.9 518.04 268.31 561.14 256.26 604.56Z" fill="#687A52"/>
<path d="M252.521 568.74C256.421 573.06 258.601 578.23 260.441 583.63C264.991 579.17 268.961 573.88 270.941 567.76C267.781 571.24 264.661 575.01 261.461 578.49C259.601 574.41 256.661 570.56 252.521 568.74Z" fill="#687A52"/>
<path d="M245.291 550.62C251.501 553.28 256.501 558.05 259.491 564.05C263.901 558.82 267.271 552.4 267.711 545.49C265.471 550.33 262.981 554.91 259.821 559.1C256.511 554.36 251.151 550.88 245.301 550.62H245.291Z" fill="#687A52"/>
<path d="M229.771 537.55C238.241 537.66 246.351 539.61 253.721 543.63C257.031 538.12 259.051 531.69 258.961 525.25C257.311 530.42 255.351 535.33 252.661 539.99C245.701 536.42 237.251 535.18 229.771 537.55Z" fill="#687A52"/>
<path d="M216.291 521.43C226.711 522.38 236.911 524.77 246.401 529.16C248.131 523.47 248.791 517.36 247.711 511.51C247.151 516.3 246.251 521.01 244.791 525.57C236.021 521.35 225.891 519.58 216.291 521.43Z" fill="#687A52"/>
<path d="M209.371 507.71C218.651 507.4 227.851 509.85 235.501 515.12C236.231 510.14 235.671 504.8 233.101 500.43C233.711 503.9 233.891 507.36 233.491 510.79C226.471 506.23 217.231 504.72 209.361 507.72L209.371 507.71Z" fill="#687A52"/>
<path d="M402.23 317.99C407.37 338.57 419.32 357.38 435.76 370.78C452.201 384.18 473.04 392.09 494.23 392.97C489.51 371.03 477.62 351.37 460.54 336.81C443.47 322.25 424.63 319.19 402.23 317.99Z" fill="#7EA175"/>
<path d="M402.23 317.99C433.01 342.67 469.75 361.24 494.23 392.97C465.96 365.02 429.63 346.78 402.23 317.99Z" fill="#687A52"/>
<path d="M425.591 328.27C422.281 328.4 418.981 328.49 415.671 328.45C417.761 333.31 418.091 339.13 416.161 344.04C416.681 337.59 414.991 331.36 411.541 325.98C420.221 325.8 428.891 325.91 437.511 327.17C433.541 327.8 429.561 328.06 425.591 328.28V328.27Z" fill="#687A52"/>
<path d="M451.291 334.78C442.831 335.1 433.991 335.62 425.641 336.88C427.731 341.9 427.181 348.13 423.891 352.43C426.191 346.63 425.391 340.06 421.871 335.05C431.521 333.02 441.641 332.5 451.291 334.78Z" fill="#687A52"/>
<path d="M462.49 343.86C453.2 340.95 444.09 345.35 434.7 344.94C435.7 350.92 435.52 357.16 433.82 362.98C434.05 355.94 433.39 349.01 431.58 342.24C441.74 343.53 453.05 338.13 462.48 343.86H462.49Z" fill="#687A52"/>
<path d="M458.78 354.45C454.67 354.18 450.57 353.93 446.46 353.78C447.31 359.57 447.68 365.44 447.19 371.26C446.1 365.17 444.73 357.19 443.48 351.22C453.33 351.21 463.27 352.29 472.65 355.41C467.97 355.17 463.37 354.74 458.78 354.46V354.45Z" fill="#687A52"/>
<path d="M479.64 366.671C473.11 364.891 466.64 363.71 459.92 363.84C460.9 368.75 460.8 373.95 459.26 378.71C459.22 372.81 458.43 367.07 456.75 361.46C464.65 360.7 473 362.22 479.64 366.68V366.671Z" fill="#687A52"/>
<path d="M485.5 375.68C481.06 374.07 476.56 372.73 471.88 372.18C473.65 376.09 474.49 380.54 473.73 384.79C472.58 379.25 470.42 373.93 467.26 369.25C473.8 369.35 480.61 371.15 485.49 375.68H485.5Z" fill="#687A52"/>
<path d="M596.04 202.07C591.53 214.04 578.76 220.5 566.81 225.08C548.66 232.04 529.05 237.27 509.9 233.99C490.73 230.72 472.26 217.02 468.69 197.91C467.89 193.63 467.84 189.36 468.28 185.09C470.12 166.89 480.71 148.8 478.53 130.31C478.22 127.64 483.58 121.94 485.81 120.44C507.41 126.65 529.29 133 549.5 142.61C557.45 146.38 565.15 150.66 572.47 155.65C580.23 160.93 587.61 167.1 592.46 175.13C597.33 183.14 599.37 193.29 596.04 202.07Z" fill="#E95071"/>
<path d="M482.86 167.91C482.09 179.64 482.83 191.96 488.61 202.2C494.39 212.44 506.37 219.9 517.84 217.32C524.16 215.9 529.51 211.74 535.6 209.51C542.22 207.08 549.48 207.01 556.26 205.09C563.04 203.17 569.91 198.45 570.85 191.46C571.46 186.91 569.35 182.33 566.27 178.93C563.19 175.53 559.2 173.1 555.28 170.71C545.32 164.67 535.37 158.63 525.41 152.59C516.23 147.02 507.04 141.45 497.86 135.88C489.85 131.02 485.67 131.58 485.16 141.07C484.68 150.05 483.44 158.95 482.86 167.92V167.91Z" fill="#FA6B8A"/>
<path opacity="0.22" d="M551.009 153.32C548.869 156.77 545.549 159.86 542.399 162.47C534.209 169.25 525.519 176.25 515.079 178.15C507.759 179.48 499.869 178.23 493.129 181.36C486.529 184.44 477.839 194.73 469.789 195.8C471.629 177.6 482.219 159.51 480.039 141.02C479.729 138.35 485.089 132.65 487.319 131.15C508.919 137.36 530.799 143.71 551.009 153.32Z" fill="#F4F0ED"/>
<path d="M625.829 159.55C620.959 162.11 615.219 162.18 609.709 162.07C592.539 161.76 575.379 160.54 558.339 158.41C555.219 158.02 552.089 157.6 548.969 157.11C538.539 155.46 528.229 153.04 518.699 148.58C506.319 142.8 495.239 133.12 490.379 120.34C494.059 116.93 496.719 113.06 499.319 108.77C506.249 97.34 513.849 86.33 522.099 75.79C531.269 64.03 541.239 52.86 551.899 42.41C558.649 35.78 566.249 29.15 575.599 27.67C584.599 26.25 593.959 30.09 600.459 36.48C606.969 42.88 610.859 51.55 612.849 60.45C615.009 70.03 615.129 80.04 617.869 89.47C622.039 103.82 632.039 116.06 635.419 130.62C637.889 141.27 635.479 154.41 625.819 159.53L625.829 159.55Z" fill="#E95071"/>
<path d="M550.409 65.7702C554.649 60.9902 558.989 56.1202 564.509 52.9002C570.029 49.6802 577.029 48.3102 582.859 50.9202C588.229 53.3202 591.769 58.6902 593.569 64.3002C595.369 69.9002 595.699 75.8502 596.439 81.6902C597.889 93.2202 600.969 104.55 605.549 115.24C608.379 121.84 611.809 129.32 608.819 135.85C605.919 142.17 598.269 144.59 591.389 145.65C571.389 148.74 550.589 145.89 531.989 137.97C524.919 134.96 510.799 129.64 507.339 122.21C503.289 113.5 517.429 102.94 522.479 97.2402L550.399 65.7602L550.409 65.7702Z" fill="#FA6B8A"/>
<path opacity="0.22" d="M560.619 137.48C561.059 143.03 554.199 146.01 551.369 150.79C550.209 152.72 549.729 154.99 548.969 157.12C538.539 155.47 528.229 153.05 518.699 148.59C506.319 142.81 495.239 133.13 490.379 120.35C494.059 116.94 496.719 113.07 499.319 108.78C506.249 97.3498 513.849 86.3398 522.099 75.7998C523.309 76.1598 524.519 76.7098 525.689 77.4598C534.619 83.1198 541.539 91.9298 548.159 99.9898C551.699 104.31 555.439 109.15 555.269 114.73C555.149 118.65 553.079 122.56 554.189 126.32C555.429 130.49 560.279 133.15 560.619 137.48Z" fill="#F4F0ED"/>
<path d="M566.379 45.2102C564.669 53.9202 560.019 61.7902 554.849 69.0002C549.589 76.3402 543.679 83.2502 537.239 89.6102C530.609 96.1502 523.379 102.11 515.689 107.32C504.599 114.82 493.219 127.78 478.539 123.84C471.079 121.84 464.989 116.34 460.439 110.08C455.909 103.83 452.649 96.7602 448.849 90.0402C447.159 87.0502 445.359 84.1402 443.539 81.2302C439.309 74.5202 434.959 67.8802 431.549 60.7302C426.649 50.4902 423.789 38.7002 426.729 27.7502C430.039 15.4702 440.659 5.77019 452.919 2.48019C463.499 -0.369809 474.699 1.18019 485.539 2.75019C501.329 5.03019 517.129 7.31019 532.919 9.59019C542.849 11.0202 553.609 12.8702 560.449 20.2302C566.489 26.7402 568.099 36.4902 566.389 45.2102H566.379Z" fill="#E95071"/>
<path d="M452.209 80.0404C445.579 63.4504 442.239 45.2104 445.139 27.5804C446.179 21.2404 448.619 14.2904 454.459 11.6104C458.079 9.95041 462.269 10.3104 466.239 10.7104C476.369 11.7204 486.489 12.7404 496.619 13.7504C503.539 14.4404 510.489 15.1404 517.189 17.0004C523.299 18.6904 529.099 21.3204 534.869 23.9404C540.999 26.7204 547.749 30.1604 549.859 36.5504C551.739 42.2404 549.259 48.4004 546.379 53.6504C537.339 70.1504 524.069 83.8104 509.669 95.7204C499.989 103.72 479.699 125.4 468.299 110.51C461.509 101.64 456.339 90.3604 452.209 80.0504V80.0404Z" fill="#FA6B8A"/>
<path opacity="0.22" d="M537.239 89.6103C530.609 96.1503 523.379 102.11 515.689 107.32C504.599 114.82 493.219 127.78 478.539 123.84C471.079 121.84 464.989 116.34 460.439 110.08C455.909 103.83 452.649 96.7603 448.849 90.0403C447.159 87.0503 445.359 84.1403 443.539 81.2303C443.629 80.7803 443.749 80.3303 443.879 79.8603C445.619 73.7203 450.179 68.7903 454.909 64.5003C458.039 61.6503 461.439 58.9003 465.519 57.8003C469.439 56.7603 473.569 57.3203 477.599 57.0103C481.439 56.7103 485.249 55.5903 489.079 56.0303C493.809 56.5603 497.929 59.3703 501.829 62.0803C510.469 68.1203 519.129 74.1503 527.779 80.1803C530.779 82.2803 533.859 84.4303 535.969 87.4303C536.459 88.1303 536.879 88.8503 537.249 89.5903L537.239 89.6103Z" fill="#F4F0ED"/>
<path d="M489.979 192.05C489.829 193.32 489.689 194.54 489.569 195.7C488.809 203.03 487.309 210.92 481.179 216.28C474.929 221.74 465.429 223.12 456.669 223.38C444.089 223.73 430.649 222 421.789 214.69C410.859 205.68 409.619 190.6 399.709 180.76C393.859 174.96 385.479 171.48 378.929 166.26C372.379 161.04 367.709 152.58 371.949 145.5C376.129 138.54 386.449 136.5 395.399 135.3C402.409 134.36 409.479 133.41 416.539 132.79C427.849 131.79 439.149 131.6 450.109 133.55C465.059 136.21 480.829 144.17 487.789 156.16C493.409 165.85 491.319 180.65 489.979 192.05Z" fill="#E95071"/>
<path d="M421.639 147.11C417.559 148.77 413.159 151.44 412.929 155.24C412.759 158.01 415.009 160.45 417.709 161.89C420.409 163.33 423.569 164.02 426.519 165.06C434.329 167.79 440.789 173.05 444.369 179.58C446.839 184.09 447.969 189.14 450.769 193.5C453.569 197.86 458.849 201.61 464.729 200.89C472.419 199.95 476.509 192.37 477.889 185.82C479.419 178.5 479.409 171 477.939 163.77C476.869 158.52 474.959 148.52 470.389 144.67C465.749 140.75 453.809 141.28 447.609 141.55C438.709 141.93 429.809 143.8 421.629 147.12L421.639 147.11Z" fill="#FA6B8A"/>
<path opacity="0.22" d="M489.979 192.05C486.199 192.19 482.649 190.28 480.179 187.85C477.539 185.25 475.799 182.07 473.549 179.21C469.339 173.81 463.399 169.61 457.539 165.51C448.029 158.82 438.499 152.13 428.989 145.45C425.349 142.9 416.119 137.77 416.539 132.8C427.849 131.8 439.149 131.61 450.109 133.56C465.059 136.22 480.829 144.18 487.789 156.17C493.409 165.86 491.319 180.66 489.979 192.06V192.05Z" fill="#F4F0ED"/>
<path d="M480.819 135.75C478.079 137.77 474.639 138.58 471.309 139.34C458.829 142.21 446.34 145.09 433.86 147.96C429.7 148.91 425.54 149.88 421.38 150.83C408.33 153.82 394.079 156.7 382.049 150.83C370.509 145.2 363.76 132.29 362.7 119.49C361.64 106.68 365.5 93.9601 370.6 82.1601C375.7 70.3701 382.079 59.1301 386.539 47.0701C390.389 36.6201 393.63 24.5101 403.36 19.0901C410.83 14.9401 420.4 16.1501 427.89 20.2901C435.36 24.4301 441.09 31.1001 446.18 37.9601C453.87 48.3201 460.5 59.4701 465.97 71.1701C467.23 73.9001 468.44 76.6501 469.58 79.4301C472.31 86.1001 473.74 93.3401 476.42 99.9501C478.98 106.24 484.059 110.99 485.819 117.78C487.489 124.17 486.129 131.82 480.819 135.75Z" fill="#E95071"/>
<path d="M402.909 132.52C397.279 130.81 391.229 128.02 389.149 122.52C387.259 117.53 389.279 112 391.279 107.06C396.629 93.8501 401.969 80.6401 407.319 67.4301C409.909 61.0401 413.709 53.6801 420.559 52.9501C426.899 52.2701 432.039 57.7401 436.039 62.7101C447.499 76.9401 459.269 91.7301 465.619 109.08C467.169 113.31 468.379 117.66 469.119 122.1C470.119 128.1 469.859 128.57 464.179 130.69C455.069 134.08 445.389 135.99 435.689 136.48C424.649 137.04 413.499 135.74 402.909 132.53V132.52Z" fill="#FA6B8A"/>
<path opacity="0.22" d="M480.819 135.75C478.079 137.77 474.639 138.58 471.309 139.34C458.829 142.21 446.339 145.09 433.859 147.96C431.129 144.16 429.969 139.44 431.749 135.17C433.409 131.19 437.239 128.34 438.639 124.26C441.599 115.62 432.679 105.72 436.729 97.5399C439.909 91.1099 448.869 90.3899 454.249 85.6399C458.939 81.5199 460.769 74.4299 465.959 71.1699C467.219 73.8999 468.429 76.6499 469.569 79.4299C472.299 86.0999 473.729 93.3399 476.409 99.9499C478.969 106.24 484.049 110.99 485.809 117.78C487.479 124.17 486.119 131.82 480.809 135.75H480.819Z" fill="#F4F0ED"/>
<path d="M454.14 92.7001C451.27 101.36 453.49 110.81 455.89 119.61C458.09 127.67 460.62 136.02 466.32 142.12C473.44 149.75 484.2 152.54 494.34 154.99C501.16 156.64 508.11 158.3 515.12 157.92C522.13 157.54 529.35 154.83 533.56 149.21C538.3 142.9 538.421 134.21 536.771 126.49C533.881 113.01 526.06 100.64 515.11 92.2501C501.37 81.7101 462.02 68.8401 454.12 92.6901L454.14 92.7001Z" fill="#FFB23D"/>
<path d="M468.541 108.66C470.161 117.49 474.451 125.82 480.701 132.27C486.951 138.72 495.131 143.28 503.901 145.19C507.671 146.01 511.781 146.32 515.251 144.61C518.981 142.78 521.351 138.85 522.151 134.77C522.951 130.7 522.361 126.48 521.411 122.43C518.831 111.36 512.991 100.29 502.901 95.05C496.031 91.48 488.581 91.54 481.051 91.35C476.451 91.23 471.901 91.19 469.581 95.84C467.611 99.79 467.771 104.43 468.551 108.66H468.541Z" fill="#FFBD59"/>
<path d="M502.03 127.91C506.245 124.851 506.609 118.164 502.843 112.975C499.077 107.785 492.607 106.058 488.392 109.117C484.177 112.176 483.813 118.863 487.579 124.053C491.345 129.242 497.815 130.969 502.03 127.91Z" fill="#FFA112"/>
<path opacity="0.32" d="M486.57 380.03C484.11 372.23 480.57 365.1 476.29 358.34C471.98 351.62 466.79 345.33 460.61 339.99C454.42 334.63 447.21 330.31 439.31 327.68C431.44 325.1 422.77 324.16 414.65 326.33C422.34 328.97 429.07 332.06 435.38 335.87C441.68 339.64 447.5 344 453.04 348.77C458.6 353.56 463.91 358.77 469.32 364.15C474.77 369.48 480.2 375.07 486.58 380.05L486.57 380.03Z" fill="white"/>
<path opacity="0.32" d="M22.4902 528.51C30.2602 525.13 38.2603 523.01 46.5103 521.67C54.7503 520.39 63.28 520.06 71.78 521.09C80.3 522.12 88.7401 524.6 96.3701 528.73C103.93 532.86 110.8 538.7 114.88 546.2C107.4 542.24 100.24 539.29 92.8401 537.14C85.4701 534.97 77.9801 533.55 70.3801 532.6C62.7501 531.66 54.9602 531.19 46.9802 530.75C39.0002 530.25 30.8502 529.94 22.4902 528.52V528.51Z" fill="white"/>
<path opacity="0.32" d="M126.561 466.76C125.631 475.18 125.981 483.45 127.151 491.73C128.371 499.98 130.581 508.22 134.081 516.04C137.591 523.87 142.461 531.2 148.661 537.26C154.851 543.26 162.461 548.09 170.821 549.76C164.821 543.79 159.881 537.83 155.631 531.39C151.371 525 147.801 518.26 144.641 511.28C141.481 504.27 138.721 496.97 135.941 489.48C133.101 482.01 130.391 474.31 126.551 466.75L126.561 466.76Z" fill="white"/>
<path opacity="0.32" d="M385.259 421.04C376.929 422.56 369.099 425.26 361.499 428.75C353.939 432.28 346.679 436.75 340.189 442.35C333.689 447.96 328.059 454.72 324.029 462.39C320.049 470.04 317.599 478.71 318.399 487.2C322.399 479.74 326.699 473.3 331.649 467.39C336.559 461.48 341.989 456.13 347.769 451.11C353.579 446.08 359.789 441.34 366.169 436.53C372.519 431.67 379.119 426.87 385.259 421.03V421.04Z" fill="white"/>
<path opacity="0.32" d="M458.961 229.67C451.481 230.45 444.561 232.38 437.901 235.06C431.291 237.78 425.01 241.4 419.53 246.14C414.04 250.88 409.43 256.77 406.34 263.63C403.3 270.47 401.73 278.39 403.11 286.38C406.19 279.72 409.611 274.03 413.671 268.89C417.691 263.75 422.22 259.16 427.11 254.91C432.02 250.65 437.311 246.7 442.751 242.7C448.161 238.65 453.811 234.66 458.961 229.67Z" fill="white"/>
<path opacity="0.32" d="M163.71 566.91C153.77 570.64 144.55 575.68 135.66 581.61C126.83 587.58 118.44 594.63 111.08 602.85C103.7 611.08 97.4804 620.51 93.2604 630.68C89.1004 640.8 86.8802 651.8 88.5602 661.85C92.7602 651.95 97.4103 643.22 102.89 634.97C108.32 626.74 114.42 619.05 120.98 611.69C127.58 604.3 134.67 597.19 141.96 589.94C149.22 582.64 156.78 575.35 163.71 566.92V566.91Z" fill="white"/>
<path opacity="0.32" d="M226.2 631.37C217.73 631.37 209.54 632.64 201.44 634.71C193.37 636.83 185.43 639.94 178.05 644.29C170.65 648.64 163.91 654.29 158.57 661.13C153.29 667.94 149.33 676.04 148.6 684.54C153.87 677.92 159.25 672.35 165.17 667.42C171.05 662.48 177.35 658.18 183.94 654.28C190.56 650.37 197.51 646.82 204.64 643.22C211.75 639.57 219.1 636.03 226.2 631.38V631.37Z" fill="white"/>
<path opacity="0.32" d="M269.37 566.94C270.28 559.46 269.96 552.26 268.84 545.15C267.67 538.07 265.54 531.12 262.15 524.69C258.76 518.25 254.05 512.4 248.04 507.83C242.05 503.31 234.68 499.97 226.57 499.5C232.38 504.02 237.161 508.66 241.271 513.79C245.391 518.89 248.85 524.36 251.89 530.1C254.94 535.87 257.61 541.93 260.3 548.16C263.04 554.37 265.66 560.79 269.37 566.95V566.94Z" fill="white"/>
</svg>
