<svg width="1451" height="1869" viewBox="0 0 1451 1869" fill="none" xmlns="http://www.w3.org/2000/svg">
<path fill-rule="evenodd" clip-rule="evenodd" d="M846.548 7.9953C842.382 13.0204 841.288 23.3441 843.529 36.5906C845.84 50.2929 844.178 64.4458 838.612 78.3358C830.344 98.9778 829.668 99.3693 800.755 100.383C773.617 101.338 771.322 100.49 771.322 89.5122C771.322 82.9641 778.561 71.2567 787.409 63.4912C805.42 47.6865 807.506 37.0947 795.071 24.6526C783.623 13.2081 770.298 14.0662 756.249 27.1625C741.696 40.72 741.599 45.2786 755.595 58.3159C763.836 65.9957 766.244 73.847 764.979 88.9491C762.678 116.402 753.986 117.4 742.57 91.5287C729.787 62.5419 710.612 48.4052 684.096 48.4052C646.737 48.4052 614.687 94.2263 616.58 144.938C617.015 156.678 618.13 159.338 619.551 152.034C622.741 135.655 634.844 127.149 654.174 127.696C674.851 128.286 694.53 146.038 707.41 175.722L717.271 198.461L736.495 187.118C777.419 162.963 831.963 186.909 839.207 232.204L842.51 252.889L864.56 248.964C876.689 246.802 894.438 245.156 904.015 245.301C923.897 245.606 948.274 259.566 948.274 270.651C948.274 279.559 919.828 297.938 884.93 311.587C871.107 316.993 864.624 321.524 870.522 321.664C882.448 321.943 928.723 298.297 948.746 281.694C955.856 275.794 968.318 262.939 976.425 253.125C1013.57 208.189 974.849 150.805 916.101 163.709C896.583 167.994 895.692 161.896 913.087 143.12C924.246 131.08 924.965 128.34 917.967 124.425C913.157 121.733 910.524 114.493 911.597 106.915C912.943 97.3689 916.771 93.9903 926.241 93.9903C945.561 93.9903 952.944 109.436 940.306 123.401C931.506 133.129 931.356 134.196 939.239 131.172C951.202 126.576 956.628 104.062 948.215 93.9206C939.083 82.9158 919.586 83.9294 908.685 95.9746C901.087 104.373 900.663 108.315 906.057 120.162C911.72 132.587 910.975 135.95 899.966 147.673C893.065 155.015 885.89 161.027 884.024 161.027C882.158 161.027 876.474 151.605 871.391 140.085C866.308 128.565 856.243 115.27 849.025 110.54L835.893 101.938L845.25 76.7323C852.001 58.5412 858.173 50.6898 867.418 48.5071C885.998 44.1202 892.786 30.8522 885.091 13.9643C877.96 -1.69021 857.246 -4.89725 846.548 7.9953ZM878.941 13.9964C888.48 25.4946 878.871 40.3607 861.895 40.3607C852.463 40.3607 848.596 36.9767 847.267 27.5594C844.398 7.29811 865.782 -1.85646 878.941 13.9964ZM792.953 32.6595C797.382 40.9346 797.211 45.7398 792.272 51.6873C782.331 63.6681 763.606 58.7771 761.472 43.6482C758.405 21.9819 782.701 13.503 792.953 32.6595ZM720.333 72.1202C729.851 82.2132 739.128 97.8999 740.94 106.979C742.897 116.756 747.578 123.487 752.42 123.487C758.485 123.487 760.598 129.466 760.598 146.628C760.598 167.94 759.064 170.498 741.165 179.036C730.478 184.131 721.432 187.595 721.057 186.732C701.099 140.401 680.401 122.071 648.539 122.51C624.763 122.838 621.31 116.885 632.56 94.9771C655.547 50.2286 690.986 40.9989 720.333 72.1202ZM822.525 108.835C825.625 116.901 806.729 175.035 801.645 173.094C799.715 172.354 792.363 171.753 785.307 171.753C769.998 171.753 764.727 156.576 770.48 129.048C773.295 115.587 777.998 109.462 787.586 106.792C808.739 100.892 819.726 101.536 822.525 108.835ZM853.229 122.157C864.994 135.151 874.04 160.663 870.667 171.303C869.117 176.172 860.452 184.533 851.406 189.875C835.738 199.136 834.472 199.147 824.59 190.202C812.08 178.881 811.957 175.958 822.472 140.551C831.143 111.35 839.132 106.572 853.229 122.157ZM473.029 171.206C482.161 280.696 515.584 355.955 592.359 439.901C620.688 470.872 649.708 504.916 656.856 515.551L669.848 534.895L663.397 632.195L656.947 729.5H599.378H541.81L557.307 712.908C566.079 703.512 577.49 681.137 583.614 661.311C595.582 622.558 608.494 527.312 602.58 521.418C592.123 511.003 550.127 588.728 535.434 645.694L525.573 683.915L516.699 662.464C495.39 610.969 466.949 552.282 445.366 515.288C426.159 482.359 423.065 473.436 427.724 464.34C430.829 458.269 436.786 440.035 440.964 423.812C445.146 407.589 451.205 387.521 454.439 379.219C457.672 370.917 460.128 360.057 459.903 355.086C459.678 350.114 456.594 355.703 453.061 367.501C447.934 384.587 443.773 389.285 432.625 390.594C419.252 392.155 418.212 390.363 409.364 350.597C399.509 306.283 401.927 293.707 420.845 290.854C432.416 289.111 452.492 308.122 456.476 324.597C458.954 334.825 459.098 334.798 459.694 323.981C460.648 306.578 441.328 285.893 421.52 283.11C411.89 281.753 399.975 278.884 395.042 276.733C389.192 274.18 382.199 276.695 374.934 283.962C368.81 290.087 359.453 295.101 354.145 295.101C348.836 295.101 342.203 297.327 339.399 300.051C336.594 302.776 327.066 305.789 318.218 306.755C306.287 308.058 301.686 311.624 300.415 320.575C299.477 327.209 295.429 332.642 291.423 332.642C287.418 332.642 279.648 338.074 274.152 344.708C268.661 351.342 259.438 359.446 253.657 362.707C243.651 368.354 234.97 397.737 234.3 428.253C233.694 455.539 271.744 477.597 318.599 477.125C330.186 477.013 357.19 478.514 378.612 480.472C412.533 483.566 418.845 485.845 427.537 498.164C437.666 512.505 476.402 587.414 476.402 592.654C476.402 594.225 462.525 586.256 445.57 574.951C428.614 563.64 399.187 547.589 380.178 539.276C337.5 520.619 244.954 493.573 238.069 497.751C228.836 503.355 324.39 587.752 362.853 607.965C403.326 629.235 451.715 643.693 482.44 643.693C502.285 643.693 502.323 643.742 518.136 685.256L533.965 726.819L472.434 728.337C431.682 729.34 408.378 727.758 403.434 723.655C393.02 715.015 393.471 671.13 404.013 667.086C408.437 665.386 412.056 658.222 412.056 651.164C412.056 641.006 409.225 638.33 398.484 638.33C383.374 638.33 375.148 651.829 384.532 661.214C391.991 668.674 392.634 702.686 385.32 702.686C375.261 702.686 351.63 660.522 354.826 648.284C361.083 624.365 338.262 607.021 321.971 623.314C310.775 634.512 314.647 649.641 330.283 655.781C338.396 658.967 356.386 676.858 370.263 695.537L395.503 729.5H336.717H277.932L294.056 707.244C302.92 695.001 309.848 679.92 309.445 673.726C308.721 662.576 308.689 662.576 306.464 673.983C305.225 680.322 295.911 694.802 285.771 706.161L267.331 726.819L268.645 694.775C269.797 666.62 271.588 661.906 283.364 655.969C292.533 651.352 293.922 649.19 287.766 649.137C273.653 649.013 261.92 664.308 261.835 682.955C261.695 711.572 254.301 716.656 241.721 696.786L230.691 679.368L252.242 648.799C275.015 616.503 276.312 600.639 257.019 590.31C240.574 581.51 225.189 597.481 221.211 627.47C217.216 657.605 209.151 663.273 186.769 651.7C148.162 631.734 114.3 657.079 143.851 683.824C154.318 693.306 177.107 693.284 215.028 683.765C224.525 681.379 229.254 684.328 237.002 697.441C249.394 718.421 246.091 721.96 224.525 710.805C205.398 700.911 180.807 701.785 177.289 712.479C175.364 718.34 176.908 718.372 186.051 712.661C195.504 706.756 200.55 707.443 220.149 717.284L243.147 728.836L160.479 729.168C115.013 729.35 79.0916 730.782 80.6573 732.348C84.3894 736.081 1367.08 736.097 1370.81 732.364C1372.38 730.788 1352.16 729.425 1325.86 729.329C1292.99 729.211 1274.89 726.771 1267.95 721.51C1259.19 714.886 1255.36 714.908 1239.15 721.681C1215.12 731.721 1215.53 731.871 1222.86 715.793C1229.4 701.425 1233.45 701.147 1287.08 711.368C1306.94 715.149 1325.19 697.167 1318.9 680.022C1313.3 664.764 1285.99 660.849 1268.86 672.852C1247.94 687.503 1241.99 682.956 1255.21 662.431C1266.04 645.629 1269.03 644.047 1283.41 647.571C1312.45 654.687 1351.91 652.542 1354.65 643.693C1356.66 637.199 1355.77 636.941 1350.04 642.353C1338 653.711 1283.51 648.772 1287.53 636.689C1288.56 633.589 1299.6 627.331 1312.07 622.788C1330.11 616.208 1336.82 615.843 1345.06 620.987C1353.66 626.36 1354.89 626.108 1352.35 619.479C1348.33 609.011 1322.1 609.258 1301.41 619.957C1279.55 631.262 1278.03 627.755 1295.62 606.678L1310.29 589.104L1344.06 596.081C1381.67 603.846 1394.79 599.878 1397.77 579.837C1401.54 554.357 1379.31 545.632 1349.67 560.964C1326.82 572.779 1323.82 565.936 1343.31 546.447L1359.77 529.988L1389.77 536.708C1424.9 544.57 1437.85 538.504 1435.17 515.444C1433.82 503.902 1430.85 501.618 1417.46 501.822C1408.62 501.961 1395.65 504.031 1388.64 506.423C1367.87 513.513 1379.74 501.537 1410.94 483.925C1426.52 475.136 1442.47 464.072 1446.39 459.352C1455.92 447.87 1449.81 425.442 1435.96 421.045C1420.46 416.122 1409.91 426.794 1392.56 464.983C1376.17 501.033 1367.88 509.668 1360.65 498.239C1356.94 492.394 1355.94 492.812 1355.88 500.234C1355.75 515.111 1347.62 511.207 1336.77 491.058C1331.27 480.852 1325.72 473.564 1324.42 474.862C1323.12 476.16 1328.44 486.875 1336.25 498.668C1344.05 510.467 1350.44 522.131 1350.44 524.587C1350.44 527.049 1343.2 536 1334.35 544.479C1325.5 552.957 1318.26 557.028 1318.26 553.526C1318.26 542.038 1308.33 546.876 1306.55 559.227C1304.99 570.14 1303.42 569.255 1290.09 549.938C1273.6 526.019 1271.12 507.034 1283.85 502.149C1295.26 497.767 1294.79 497.639 1305.34 508.182C1311.7 514.548 1313.83 515.09 1312.1 509.909C1307.74 496.829 1292.57 490.2 1282.07 496.786C1266.78 506.369 1267.96 524.995 1285.65 553.451C1294.74 568.081 1302.18 581.322 1302.18 582.872C1302.18 587.833 1283.55 609.569 1279.62 609.193C1277.53 608.995 1272.44 613.462 1268.31 619.12C1261.2 628.838 1260.01 628.076 1246.63 605.241C1238.84 591.951 1232.47 576.989 1232.47 571.996C1232.47 559.892 1247.53 554.668 1259.99 562.45C1266.39 566.445 1270 566.708 1270 563.179C1270 560.144 1264.04 554.942 1256.76 551.622C1246.63 547.005 1241.58 547.187 1235.31 552.389C1222.68 562.879 1225.51 583.462 1243.19 609.665C1262.47 638.228 1262.61 640.052 1247.22 661.638L1235.15 678.552L1231.93 654.419L1228.72 630.286L1227.91 656.763L1227.11 683.24L1209.93 667.489L1192.74 651.738L1207.25 671.489C1215.22 682.355 1221.75 693.928 1221.75 697.21C1221.75 706.917 1196.25 729.5 1185.3 729.5C1173.1 729.5 1154.24 697.216 1159.07 684.618C1163.05 674.241 1179.17 673.147 1189.17 682.575C1194.89 687.975 1195.82 687.787 1193.94 681.615C1190.03 668.733 1174.69 661.761 1164.46 668.213C1145.72 680.033 1143.6 690.533 1156.45 707.909C1165.69 720.41 1166.86 724.958 1161.39 727.055C1157.45 728.567 1119.35 729.136 1076.72 728.315L999.215 726.819L1023.34 715.074C1036.62 708.612 1053.18 698.342 1060.17 692.249C1070.79 682.982 1071.74 679.823 1066 672.889C1060.34 666.078 1060.63 663.096 1067.63 656.098C1079.88 643.838 1094.94 651.094 1091.76 667.73C1090.37 674.981 1091.3 679.636 1093.82 678.075C1101.21 673.506 1099.1 650.939 1090.63 643.908C1081.8 636.582 1061.34 641.157 1059.98 650.756C1059.49 654.248 1058.89 664.18 1058.64 672.83C1058.31 684.8 1053.86 691.112 1040.03 699.237L1021.85 709.904L1024.3 693.258C1026.15 680.639 1024.48 676.016 1017.4 674.166C1012.05 672.766 1008.85 674.326 1009.89 677.818C1018.81 707.486 1017.97 712.253 1003.19 715.777C995.107 717.707 984.27 720.539 979.106 722.073C963.245 726.787 967.964 710.693 1002.05 643.817L1034.38 580.394L1083.82 578.394C1116.82 577.059 1137.73 578.657 1146.67 583.194C1167.9 593.963 1184.21 592.016 1184.21 578.71C1184.21 569.448 1186.71 567.84 1197.83 569.963C1206.43 571.61 1210.71 570.36 1209.45 566.569C1205.35 554.25 1187.32 556.754 1175.76 571.25C1165.55 584.063 1162.7 585.044 1152.11 579.375L1140.07 572.929L1157.1 557.366C1166.48 548.801 1178.22 541.722 1183.2 541.636C1191.49 541.486 1191.46 541.009 1182.87 536.005C1171.06 529.13 1170.66 511.85 1182.21 507.421C1187 505.576 1194.64 507.131 1199.16 510.869C1205.97 516.489 1206.95 516.269 1204.77 509.619C1200.87 497.708 1178 496.185 1169.88 507.297C1166.09 512.478 1164.35 522.131 1166.01 528.754C1168.42 538.327 1164.85 543.637 1148.57 554.7C1137.31 562.353 1123.83 568.612 1118.62 568.612C1107.72 568.612 1105.83 552.62 1115.57 542.87C1120.58 537.866 1120.58 536.434 1115.57 536.434C1107.67 536.434 1107.04 522.276 1114.74 517.519C1117.82 515.615 1123.9 517.02 1128.27 520.64C1134.8 526.068 1135.6 525.681 1132.82 518.42C1129.01 508.493 1114.15 506.756 1105.66 515.245C1102.5 518.409 1101.16 532.46 1102.59 547.423L1105.14 573.975H1074.97C1058.37 573.975 1044.79 572.162 1044.79 569.953C1044.79 562.139 1114.09 473.693 1135.05 454.756C1148.13 442.942 1154.37 433.658 1151.31 430.591C1144.1 423.383 1151.61 407.723 1162.26 407.723C1167.25 407.723 1174.54 410.743 1178.45 414.427C1184.17 419.827 1185.09 419.64 1183.22 413.467C1175.63 388.502 1145.36 394.52 1142.17 421.624C1141.09 430.859 1129.01 450.15 1112.3 469.349C1075.51 511.604 1046.57 551.67 1018.31 599.449C1005.66 620.836 993.139 638.33 990.48 638.33C983.809 638.33 964.403 605.536 964.382 594.215C964.371 588.97 973.074 580.357 984.469 574.339C995.531 568.499 1001.56 563.619 997.874 563.485C988.421 563.152 989.477 541.797 998.947 541.797C1003.23 541.797 1009.35 546.018 1012.55 551.182C1017.97 559.902 1018.27 559.849 1016.84 550.415C1015.99 544.833 1011.28 537.732 1006.37 534.638C993.504 526.539 978.796 539.85 982.833 555.934C985.048 564.761 982.876 569.802 975.053 573.991C961.186 581.413 956.521 571.175 960.451 541.899C962.446 527.017 961.106 520.243 955.76 518.189C945.196 514.14 946.462 500.24 957.947 494.094C968.607 488.387 977.058 491.932 982.184 504.256C984.093 508.847 985.01 506.541 984.329 498.893C982.034 473.242 942.912 480.45 942.912 506.52C942.912 512.944 945.073 520.495 947.711 523.295C950.349 526.1 953.481 544.677 954.671 564.59C956.993 603.568 951.454 610.186 931.581 592.193C926.359 587.468 919.195 584.561 915.667 585.741C912.138 586.916 921.409 593.651 936.273 600.709C951.137 607.767 969.519 621.34 977.122 630.876L990.952 648.203L972.431 688.855C955.374 726.283 952.639 729.5 937.871 729.5C910.567 729.5 898.953 685.009 922.224 669.548C933.485 662.072 933.405 661.927 918.203 662.195C906.213 662.405 902.695 660.045 902.695 651.813C902.695 637.724 921.388 634.367 930.493 646.815C936.375 654.864 937.55 655.068 937.55 648.059C937.55 635.96 924.053 626.5 909.693 628.532C900.593 629.825 896.867 634.346 895.574 645.688C894.604 654.156 896.416 663.692 899.596 666.872C908.369 675.646 907.033 718.775 897.987 718.775C887.022 718.775 876.431 703.581 876.142 687.423C875.933 675.882 873.348 673.19 862.479 673.19C852.001 673.19 848.72 676.262 847.444 687.251C846.414 696.111 848.865 702.487 854.066 704.482C861.004 707.148 861.289 705.995 855.83 697.258C850.983 689.487 850.881 685.326 855.444 680.762C864.71 671.495 874.517 680.623 870.876 695.129C868.565 704.354 870.662 709.717 878.485 714.608C884.426 718.319 889.29 723.188 889.29 725.43C889.29 727.666 862.747 729.5 830.306 729.5C774.041 729.5 766.212 727.538 775.344 715.712C777.553 712.849 775.36 714.779 770.464 720.003C763.976 726.921 753.327 729.5 731.245 729.5H700.927L713.175 707.705C719.91 695.719 740.747 669.891 759.472 650.311C806.289 601.369 849.234 523.558 860.484 467.295C862.613 456.66 866.12 452.359 871.112 454.279C876.93 456.51 878.566 450.53 878.566 427.067C878.566 410.528 876.753 396.997 874.544 397.003C872.335 397.008 862.452 414.963 852.586 436.908C829.159 489.02 789.478 549.021 752.549 588.171C718.526 624.242 691.099 663.751 678.642 694.641L669.993 716.093L669.854 665.145L669.714 614.197L695.115 583.66C709.089 566.864 727.545 539.11 736.135 521.986C744.726 504.857 753.702 489.524 756.093 487.899C761.842 484.001 781.885 425.442 778.599 422.155C773.413 416.969 743.798 436.002 729.626 453.63C721.593 463.621 707.206 485.738 697.656 502.776C688.106 519.814 680.261 529.307 680.229 523.869C680.095 503.575 701.893 408.828 716.816 364.82C730.811 323.546 733.486 319.363 745.096 320.602C752.147 321.353 780.84 322.972 808.857 324.195L859.798 326.415L816.901 322.388C793.307 320.178 763.971 315.513 751.713 312.021C699.973 297.305 646.34 242.92 629.417 188.008C625.299 174.644 621.782 168.535 621.605 174.435C620.677 205.422 667.489 272.673 706.155 295.916C716.928 302.389 726.5 308.23 727.427 308.889C728.355 309.554 722.054 330.25 713.427 354.887C704.799 379.519 694.702 412.545 690.997 428.269C683.366 460.607 679.774 459.379 670.181 421.131C660.845 383.906 644.919 358.684 597.378 305.827C546.727 249.505 515.128 206.028 493.132 162.368C483.845 143.935 474.729 128.85 472.874 128.85C471.019 128.85 471.088 147.909 473.029 171.206ZM965.578 177.98C988.474 189.708 990.533 226.262 969.707 251.254L959.32 263.717L940.118 249.066C919.243 233.143 884.641 229.609 862.999 241.193C853.095 246.497 850.977 245.494 846.344 233.293C838.07 211.536 839.776 205.55 857.943 192.615C888.711 170.707 938.231 163.971 965.578 177.98ZM501.921 228.456C521.884 277.511 547.789 315.775 593.282 363.382C615.122 386.239 637.16 416.03 646.952 435.922C672.754 488.339 676.964 541.218 652.073 500.234C647.145 492.12 621.524 461.964 595.132 433.213C538.314 371.319 524.646 349.342 503.68 286.209C488.901 241.713 476.568 181.626 483.529 188.057C485.25 189.649 493.529 207.83 501.921 228.456ZM530.646 234.768C549.371 260.58 581.415 299.756 601.856 321.835C639.471 362.471 659.413 397.303 668.534 438.297C675.918 471.489 669.945 470.47 653.37 435.707C645.322 418.841 621.31 385.735 600.006 362.138C552.39 309.399 533.3 282.348 515.669 242.662C498.205 203.336 492.274 187.842 494.677 187.842C495.733 187.842 511.921 208.961 530.646 234.768ZM401.251 291.079C401.203 294.769 398.978 301.247 396.297 305.484C392.259 311.866 389.98 311.978 382.972 306.165C370.135 295.509 372.665 284.375 387.926 284.375C395.299 284.375 401.294 287.395 401.251 291.079ZM379.76 311.067C394.774 326.083 406.694 357.236 406.694 381.461C406.694 399.164 404.721 402.65 393.036 405.583C385.529 407.471 378.746 408.12 377.969 407.026C377.191 405.937 368.499 392.208 358.654 376.516C348.654 360.583 339.189 350.527 337.205 353.74C331.87 362.374 302.705 329.778 306.63 319.556C310.303 309.978 323.907 308.401 329.184 316.944C331.409 320.548 335.661 318.537 340.53 311.581C350.343 297.568 366.059 297.364 379.76 311.067ZM332.047 335.768C332.304 342.016 333.575 343.287 335.286 339.013C336.835 335.141 336.642 330.513 334.862 328.732C333.082 326.952 331.816 330.116 332.047 335.768ZM330.17 363.479C343.173 377.487 358.45 395.329 364.118 403.116L374.419 417.28L360.949 426.107C348.466 434.291 346.133 434.291 328.953 426.14C306.051 415.269 272.639 379.106 272.639 365.19C272.639 352.672 286.329 338.005 298.003 338.005C302.689 338.005 317.162 349.471 330.17 363.479ZM271.98 378.919C279.97 396.461 277.878 398.724 259.979 391.919C244.408 385.998 242.536 380.983 252.263 371.255C261.599 361.918 264.8 363.162 271.98 378.919ZM7.59227 400.06C-10.6338 418.294 3.97817 439.531 51.1814 463.401C72.5551 474.208 77.4668 474.385 68.8766 464.034C65.2035 459.61 58.0718 455.99 53.026 455.99C47.9802 455.99 34.4032 447.736 22.853 437.643C5.04524 422.091 2.77168 417.806 7.91401 409.488C11.2493 404.092 18.9708 399.856 25.073 400.076C31.1751 400.296 34.9394 398.483 33.438 396.053C29.0839 389.006 16.7348 390.921 7.59227 400.06ZM436.229 402.43C442.218 412.126 423.225 466.099 411.643 472.299C398.811 479.168 344.026 473.768 338.669 465.101C334.24 457.931 375.454 421.908 404.013 407.986C429.236 395.694 431.794 395.254 436.229 402.43ZM302.174 420.932C340.734 444.154 339.045 442.127 331.532 456.161C325.982 466.533 321.945 467.665 298.523 465.413C266.296 462.318 243.796 447.012 241.378 426.547C237.914 397.239 259.524 395.244 302.174 420.932ZM96.76 424.885C93.2209 428.424 90.3253 443.162 90.3253 457.636C90.3253 479.217 88.8293 483.378 82.0032 480.756C76.566 478.67 75.0109 479.721 77.5204 483.775C80.0514 487.873 78.4481 488.87 72.8178 486.714C55.0797 479.903 27.0999 476.653 24.3598 481.083C22.7941 483.62 30.5209 485.926 41.5349 486.215C67.5682 486.897 90.2288 498.202 78.6036 504.707C74.1584 507.195 60.5384 510.826 48.3287 512.778C28.3546 515.974 25.6199 515.052 21.0353 503.591C18.2308 496.582 15.7803 493.67 15.5926 497.113C14.2789 521.391 33.4594 526.304 74.6249 512.226C91.2155 506.552 101.323 498.877 108.171 486.752C113.565 477.206 114.889 472.417 111.12 476.101C99.3284 487.637 95.6875 483.593 95.6875 458.977C95.6875 440.432 98.3311 433.294 107.608 426.799C115.93 420.964 117.061 418.449 111.361 418.449C106.868 418.449 100.299 421.345 96.76 424.885ZM1445.73 442.582C1446.69 449.672 1441.23 457.298 1429.64 465.08C1391.68 490.565 1385.54 486.929 1404.34 450.085C1413.6 431.916 1417.61 428.778 1429.81 430.189C1439.51 431.304 1444.75 435.391 1445.73 442.582ZM764.802 451.968C761.525 461.551 757.311 470.604 755.445 472.079C753.579 473.553 745.573 488.178 737.658 504.578C716.649 548.109 678.106 600.511 675.816 588.653C670.728 562.31 711.319 478.139 742.168 451.051C766.255 429.894 772.271 430.14 764.802 451.968ZM1327.2 448.841C1319.16 456.88 1324.39 460.977 1334.68 454.692C1344.11 448.932 1346.86 449.468 1353.45 458.355C1357.69 464.083 1361.16 466.372 1361.16 463.45C1361.16 450.058 1336.57 439.477 1327.2 448.841ZM848.291 483.77C828.74 549.611 798.927 600.752 753.037 647.168C738.028 662.351 718.505 687.042 709.657 702.031C691.774 732.338 672.191 740.725 679.967 714.752C693.276 670.288 711.078 642.422 757.922 592.745C774.614 575.047 802.943 537.035 820.874 508.279C838.81 479.522 854.173 455.99 855.01 455.99C855.851 455.99 852.827 468.491 848.291 483.77ZM866.05 493.096C864.077 512.006 863.471 528.486 864.71 529.725C868.024 533.039 874.748 474.031 871.997 465.772C870.705 461.894 868.029 474.186 866.05 493.096ZM145.02 478.514C141.481 482.054 138.547 495.933 138.505 509.351C138.387 543.288 132.687 551.08 114.144 542.634C106.181 539.003 98.6903 537.003 97.5053 538.193C96.3149 539.384 102.658 543.385 111.602 547.09C130.938 555.097 132.258 560.82 115.796 565.233C92.6364 571.438 63.3053 568.95 60.0666 560.498C56.0825 550.115 66.3349 537.727 81.333 534.804C91.6283 532.798 91.3924 532.444 79.3329 531.801C51.5568 530.32 41.5402 563.716 66.3725 575.031C77.306 580.014 86.7702 579.209 114.943 570.891C144.044 562.305 151.872 557.409 161.412 541.797C172.452 523.729 172.474 523.375 162.012 532.412C156.039 537.576 149.524 541.797 147.545 541.797C141.18 541.797 143.717 485.18 150.382 478.514C153.921 474.975 155.61 472.079 154.135 472.079C152.661 472.079 148.559 474.975 145.02 478.514ZM173.782 513.411C170.876 521.053 171.487 521.67 176.785 516.414C180.453 512.773 182.099 508.445 180.447 506.798C178.796 505.147 175.798 508.123 173.782 513.411ZM1429.9 519.005C1431.45 529.929 1429.43 531.066 1408.46 530.991C1395.72 530.942 1381.72 528.647 1377.36 525.885C1371.05 521.901 1373.25 519.182 1388.08 512.666C1413.01 501.714 1427.77 503.951 1429.9 519.005ZM375.615 544.757C398.34 554.684 426.089 568.666 437.28 575.825C458.686 589.522 490.644 620.724 486.735 624.118C483.952 626.537 289.922 523.686 281.643 515.406C272.993 506.756 327.881 523.901 375.615 544.757ZM376.258 575.316C452.331 615.983 475.775 630.752 466.359 632.088C446.32 634.919 382.012 611.853 348.632 589.86C316.266 568.531 261.62 520.989 269.015 520.587C271.444 520.453 319.703 545.079 376.258 575.316ZM189.906 534.133C184.48 539.566 181.482 552.169 181.482 569.566C181.482 591.774 180.002 596.006 173.16 593.378C168.388 591.549 166.238 592.45 168.114 595.486C172.64 602.817 165.197 602.136 138.778 592.815C122.531 587.082 113.297 586.379 105.929 590.321C91.6391 597.969 92.8456 620.134 108.101 630.13C119.19 637.397 123.828 637.397 151.771 630.12C180.855 622.542 183.772 622.638 193.74 631.493C204.159 640.754 204.261 640.701 197.472 629.637C191.483 619.882 192.014 616.063 201.194 602.822C216.959 580.083 221.613 568.998 208.245 586.042C201.88 594.15 194.464 600.79 191.762 600.79C189.054 600.79 186.845 587.811 186.845 571.948C186.845 541.384 195.751 527.167 211.183 533.093C216.009 534.943 218.181 534.058 216.299 531.012C211.446 523.155 199.467 524.571 189.906 534.133ZM850.854 569.76C846.006 588.299 842.88 604.334 843.899 605.386C846.8 608.383 863.525 547.616 861.487 541.497C860.484 538.499 855.701 551.22 850.854 569.76ZM564.69 625.706C553.896 663.622 542.888 696.937 540.223 699.736C532.217 708.167 534.646 664.244 543.939 632.603C552.642 602.967 578.257 550.71 582.166 554.62C583.346 555.8 575.485 587.79 564.69 625.706ZM898.229 556.1C892.926 561.404 893.896 584.701 899.419 584.701C902.041 584.701 903.848 580.48 903.441 575.316C902.883 568.306 906.352 566.177 917.13 566.896C927.672 567.604 930.772 565.796 928.622 560.192C925.63 552.394 904.744 549.579 898.229 556.1ZM1392.32 581.043C1390.27 595.411 1375.4 598.232 1344.95 590.032C1319.63 583.21 1320.58 580.314 1352.22 567.861C1378.67 557.452 1394.92 562.793 1392.32 581.043ZM587.078 620.354C578.981 659.198 558.98 708.049 551.172 708.049C547.103 708.049 555.462 672.31 567.473 638.33C570.079 630.956 576.45 610.443 581.63 592.745C593.877 550.919 597.609 569.845 587.078 620.354ZM152.039 603.836C177.595 614.519 170.844 622.778 133.63 626.355C112.015 628.43 105.919 627.202 103.248 620.236C93.9984 596.129 115.946 588.755 152.039 603.836ZM263.223 606.228C269.39 616.074 242.911 659.782 230.782 659.782C224.503 659.782 223.715 654.392 226.691 631.932C228.723 616.621 231.672 602.002 233.249 599.449C237.555 592.482 257.432 596.977 263.223 606.228ZM1192.63 614.578C1183.39 623.829 1181.41 641.328 1189.07 646.064C1191.74 647.721 1192.78 644.675 1191.38 639.306C1187.55 624.639 1203.78 613.13 1216.82 621.271C1228.21 628.382 1230.75 622.665 1220.67 612.588C1211.93 603.846 1202.71 604.501 1192.63 614.578ZM826.027 635.767C819.608 648.976 815.485 659.782 816.863 659.782C820.493 659.782 842.162 616.219 839.733 613.795C838.612 612.669 832.44 622.558 826.027 635.767ZM348.193 630.865C354.273 638.196 353.807 640.62 345.072 647.008C336.24 653.464 333.709 653.443 327.114 646.841C318.261 637.987 322.336 622.241 333.479 622.241C337.634 622.241 344.257 626.124 348.193 630.865ZM406.694 651.738C406.694 656.205 401.927 659.782 395.97 659.782C390.012 659.782 385.245 656.205 385.245 651.738C385.245 647.27 390.012 643.693 395.97 643.693C401.927 643.693 406.694 647.27 406.694 651.738ZM1013.96 647.185C1010.28 648.708 1007.26 653.851 1007.26 658.618C1007.26 665.365 1008.69 665.858 1013.69 660.855C1023.1 651.448 1028.41 652.912 1034.15 666.486C1038.83 677.517 1039.15 677.174 1038 662.512C1036.77 646.766 1028.2 641.301 1013.96 647.185ZM189.343 660.833C218.17 674.841 213.012 681.03 172.415 681.154C142.596 681.239 135.915 676.643 141.282 659.734C145.663 645.919 159.294 646.23 189.343 660.833ZM1310.22 686.597C1310.22 698.422 1307.66 700.192 1288.58 701.597C1276.68 702.471 1261.49 701.173 1254.84 698.712C1243.47 694.507 1244.14 693.499 1265.75 682.333C1295.14 667.151 1310.22 668.599 1310.22 686.597ZM1266.08 727.656C1262.45 729.125 1255.22 729.216 1250 727.854C1244.78 726.492 1247.75 725.291 1256.6 725.183C1265.45 725.076 1269.72 726.186 1266.08 727.656ZM276.001 1301.99L469.726 1303.47L473.062 1320.16C479.523 1352.45 476.842 1355 458.825 1333.7C444.594 1316.87 438.47 1313.44 425.392 1314.93C411.766 1316.47 409.128 1319.3 407.718 1333.87C405.879 1352.87 415.595 1360.37 458.766 1373.25C479.914 1379.57 481.566 1381.48 484.88 1403.59C486.826 1416.56 487.068 1428.53 485.421 1430.18C483.775 1431.83 474.788 1424.48 465.453 1413.84C448.068 1394.04 430.282 1389.15 418.491 1400.94C400.736 1418.7 416.609 1437.19 461.656 1451.22L492.489 1460.82V1484.81V1508.79L480.933 1498.58L469.378 1488.36L477.764 1501.77C490.928 1522.83 499.701 1574.56 493.245 1593.08C489.438 1603.99 489.507 1609.87 493.475 1612.32C497.111 1614.57 498.049 1628.72 496.065 1651.32C494.081 1673.88 494.677 1682.88 497.701 1676.06C500.318 1670.16 502.629 1653.07 502.838 1638.08C503.042 1623.08 504.891 1609.13 506.945 1607.08C508.993 1605.03 511.138 1600.18 511.707 1596.3C513.369 1584.98 540.373 1544.67 546.293 1544.67C549.269 1544.67 554.508 1551.31 557.929 1559.42C561.355 1567.53 575.098 1585.64 588.472 1599.67C611.433 1623.75 612.719 1626.7 611.588 1652.69C610.929 1667.82 605.379 1711.85 599.25 1750.53C593.121 1789.22 586.724 1831.7 585.035 1844.93L581.962 1869L595.727 1853C604.001 1843.38 607.298 1835.63 603.99 1833.58C591.855 1826.09 634.613 1743.1 650.603 1743.1C654.437 1743.1 658.958 1739.48 660.657 1735.05C668.02 1715.87 640.496 1733.37 621.015 1760.27C601.813 1786.78 601.904 1788.17 615.905 1678.74C627.659 1586.89 629.321 1544.67 621.181 1544.67C618.232 1544.67 615.819 1540.74 615.819 1535.93C615.819 1513.75 546.716 1372.51 536.266 1373.34C534.308 1373.49 526.383 1386.16 518.661 1401.49C510.935 1416.82 502.489 1428.79 499.894 1428.1C491.818 1425.92 490.88 1373.07 498.913 1372.97C504.404 1372.91 504.334 1371.9 498.586 1368.26C492.687 1364.52 494.022 1358.94 505.513 1339.33C521.112 1312.71 532.791 1305.24 544.11 1314.63C557.468 1325.72 552.223 1339.77 530.083 1352.21C505.342 1366.12 504.822 1372.68 529.477 1359.93C552.556 1347.99 564.589 1328.55 557.307 1314.95C551.923 1304.88 553.548 1304.38 591.925 1304.23L632.195 1304.07L631.096 1362.18C630.254 1406.59 631.922 1423.25 638.163 1432.87C660.877 1467.86 714.306 1679.12 703.062 1689.47C701.458 1690.94 699.136 1689.35 697.909 1685.91C693.469 1673.54 652.646 1619.75 647.697 1619.75C630.812 1619.75 656.55 1678.5 687.152 1709.81C707.244 1730.36 709.635 1735.54 709.459 1758.08C709.341 1773.01 704.429 1793.01 697.431 1807.05C690.927 1820.1 686.701 1831.87 688.042 1833.21C689.388 1834.55 693.125 1829.91 696.343 1822.89C699.758 1815.46 719.963 1800.25 744.79 1786.43C768.212 1773.39 800.197 1750 815.876 1734.45C845.867 1704.68 867.391 1671.14 860.752 1664.51C854.934 1658.68 800.793 1686.8 765.45 1713.99C748.484 1727.05 733.653 1737.74 732.489 1737.74C731.326 1737.74 734.623 1721.44 739.814 1701.54C745.004 1681.63 749.396 1658.9 749.562 1651.03C749.734 1643.17 752.104 1635.93 754.833 1634.94C769.585 1629.63 774.491 1434.15 762.448 1331.65L759.08 1302.99L825.528 1304.51L891.971 1306.02L890.041 1354.28C888.979 1380.83 887.183 1403.54 886.051 1404.76C881.477 1409.65 862.029 1386.27 857.809 1370.81C854.543 1358.85 855.439 1351.8 861.042 1345.3C871.445 1333.22 867.637 1317.11 853.91 1315.15C838.124 1312.88 826.225 1328.23 834.649 1339.99C841.862 1350.05 848.527 1364.61 854.082 1382.44C857.122 1392.2 855.776 1394.51 847.068 1394.51C841.148 1394.51 834.735 1391.98 832.826 1388.88C830.408 1384.97 827.266 1384.99 822.499 1388.95C817.523 1393.08 813.705 1392.3 808.573 1386.12C802.691 1379.03 802.793 1376.78 809.2 1372.7C813.437 1370.01 820.043 1368.96 823.882 1370.37C827.721 1371.78 829.389 1370.55 827.587 1367.63C822.349 1359.15 803.474 1361.51 799.79 1371.1C793.693 1387 805.597 1396.64 833.427 1398.34C847.932 1399.22 866.436 1402.63 874.544 1405.92C887.242 1411.07 889.29 1414.93 889.29 1433.75C889.29 1472.11 877.643 1579.35 872.93 1584.35C870.281 1587.16 862.769 1585.48 854.892 1580.32L841.395 1571.48L852.216 1553.13C862.249 1536.13 862.377 1534.42 853.964 1529.71C843.358 1523.78 849.057 1510.31 860.34 1514.64C864.468 1516.22 867.841 1515.44 867.841 1512.9C867.841 1504.44 852.929 1502.4 843.191 1509.53C834.001 1516.25 833.995 1517.18 843.025 1530.97C850.457 1542.31 851.111 1547.03 846.092 1553.07C836.553 1564.57 831.974 1562.53 825.469 1543.87C817.126 1519.94 818.15 1506.71 828.965 1498.6C837.625 1492.12 837.491 1491.79 827.25 1494.36C811.962 1498.2 799.629 1483.39 808.857 1472.27C818.493 1460.65 829.909 1462.38 835.502 1476.29C838.478 1483.69 840.483 1485.15 840.693 1480.05C841.513 1459.9 808.257 1450.5 798.953 1468.25C793.698 1478.28 799.023 1498.37 808.482 1504.22C811.635 1506.16 814.273 1513.05 814.337 1519.51C814.563 1542.11 834.649 1576.61 854.35 1588.23C866.994 1595.69 872.705 1602.54 871.112 1608.31C862.286 1640.27 861.836 1644.1 868.05 1634.15C875.075 1622.9 889.242 1540.8 889.269 1511.15C889.29 1490.99 896.245 1484.21 901.87 1498.86C903.521 1503.17 917.302 1512.99 932.488 1520.69C958.789 1534.02 959.942 1535.5 956.709 1551.74C954.843 1561.13 953.234 1573.03 953.143 1578.19C952.928 1589.93 952.408 1589.9 926.611 1576.74C896.894 1561.57 897.033 1540.47 926.825 1544.48C932.901 1545.3 933.367 1544.02 928.734 1539.25C915.232 1525.35 889.263 1544.35 896.39 1562.91C898.282 1567.85 912.546 1577.77 928.075 1584.96L956.317 1598.02L959.341 1642.4L962.36 1686.79L963.363 1642.99L964.36 1599.19L987.15 1590.76C1006.24 1583.71 1007.11 1582.83 992.512 1585.38C970.806 1589.17 970.232 1582.45 990.335 1559.95C1008.51 1539.6 1026.22 1541.5 1022.05 1563.34C1020.66 1570.59 1021.6 1575.25 1024.12 1573.69C1030.81 1569.55 1029.73 1553.2 1022.27 1545.74C1010.98 1534.45 998.024 1538.75 981.149 1559.42L964.72 1579.53L964.543 1557.75C964.36 1536.1 964.521 1535.93 990.86 1529.18C1005.43 1525.44 1020.15 1519.02 1023.57 1514.9C1028.88 1508.5 1027.56 1508.49 1014.5 1514.77C972.972 1534.75 964.58 1529.69 990.85 1500.51C1005.13 1484.65 1007.72 1483.67 1018.24 1490.11C1027.91 1496.02 1029.48 1496.02 1027.53 1490.11C1023.37 1477.48 1003.83 1479.38 986.324 1494.11C976.945 1502.01 968.505 1507.56 967.578 1506.45C966.645 1505.35 966.977 1495.67 968.318 1484.94C970.575 1466.89 972.356 1465.17 992.249 1461.99C1018.64 1457.77 1044.82 1444.76 1044.71 1435.93C1044.65 1431.07 1043.48 1431.17 1040.21 1436.34C1035.52 1443.72 985.815 1460.66 981.498 1456.34C977.771 1452.61 1006.98 1415.73 1016.58 1412.04C1021.08 1410.32 1029.88 1412.09 1036.12 1415.97C1046.44 1422.4 1046.8 1422.23 1040.12 1414.14C1028.88 1400.55 1017.72 1403.32 995.043 1425.34L974.329 1445.46L965.326 1433.98C960.371 1427.66 952.204 1414.99 947.185 1405.82C940.762 1394.1 934.391 1389.36 925.737 1389.87C914.476 1390.54 914.374 1390.8 924.536 1392.81C933.565 1394.59 958.998 1433.55 958.998 1445.6C958.998 1452.05 943.566 1446.89 924.868 1434.18C908.642 1423.16 904.846 1417.56 906.76 1407.53C908.095 1400.55 907.028 1396.17 904.385 1397.8C901.655 1399.49 900.256 1380.36 901.14 1353.39L902.695 1306.02L1132.99 1304.51C1259.65 1303.68 1364.42 1301.87 1365.8 1300.49C1367.18 1299.11 1078.96 1298.55 725.299 1299.24C371.636 1299.95 169.455 1301.18 276.001 1301.99ZM506.345 1326.08C498.891 1338.59 490.639 1349.54 488.011 1350.41C482.638 1352.2 475.26 1314.88 479.603 1307.86C481.137 1305.37 490.837 1303.34 501.154 1303.34H519.906L506.345 1326.08ZM748.967 1324.74C749.948 1335.04 752.597 1344.69 754.866 1346.19C757.134 1347.69 760.598 1376.07 762.566 1409.26C765.429 1457.41 764.727 1469.59 759.086 1469.59C754.78 1469.59 749.482 1457.29 745.519 1438.11C738.64 1404.81 708.37 1339.83 698.359 1336.88C694.825 1335.84 691.05 1346.59 689.023 1363.48C678.208 1453.56 695.549 1532.59 736.918 1581.77C750.013 1597.33 750.973 1601.5 747.766 1628.79C742.452 1674.02 722.07 1750.78 717.614 1742.34C715.502 1738.33 712.322 1715.18 710.547 1690.89C706.204 1631.38 684.669 1538.55 658.663 1467.19C639.552 1414.76 637.268 1403.24 637.268 1359.49C637.268 1332.54 638.957 1308.8 641.021 1306.73C643.091 1304.67 667.821 1303.66 695.983 1304.5L747.192 1306.02L748.967 1324.74ZM914.315 1317.64C906.798 1325.15 911.237 1344.82 922.804 1355.25C929.442 1361.24 944.81 1371.58 956.961 1378.24C977.128 1389.28 981.541 1389.8 1007.68 1384.19C1035.33 1378.26 1055.52 1366.17 1055.52 1355.54C1055.52 1352.72 1051.3 1355.23 1046.13 1361.12C1034.74 1374.11 991.171 1386.08 991.171 1376.22C991.171 1365.99 1024.73 1336.64 1039.43 1334.01C1051.71 1331.81 1051.5 1331.55 1036.98 1330.88C1025.34 1330.34 1015.7 1335.44 1000.78 1350.01C989.595 1360.93 980.447 1366.82 980.447 1363.1C980.447 1359.38 978.458 1357.56 976.023 1359.07C973.594 1360.57 966.387 1351.06 960.006 1337.93C950.322 1317.99 945.904 1314.06 933.153 1314.06C924.755 1314.06 916.278 1315.67 914.315 1317.64ZM446.894 1328.22C460.536 1341.86 472.826 1362.33 469.421 1365.73C464.423 1370.73 421.322 1354.37 415.606 1345.31C402.511 1324.55 428.845 1310.17 446.894 1328.22ZM860.677 1327.83C865.149 1339.48 853.803 1350.43 845.679 1342.31C838.816 1335.44 843.068 1319.43 851.755 1319.43C854.892 1319.43 858.903 1323.21 860.677 1327.83ZM957.974 1344.9C964.296 1359.46 966.773 1371.18 963.749 1372.25C954.542 1375.52 916.101 1346.54 916.101 1336.33C916.101 1323.52 920.696 1319.43 935.078 1319.43C944.059 1319.43 949.566 1325.56 957.974 1344.9ZM731.39 1409.33C738.64 1430.19 746.12 1465.55 748.007 1487.91C749.9 1510.28 753.504 1528.58 756.024 1528.58C763.627 1528.58 761.15 1559.4 753.3 1562.41C747.884 1564.49 743.004 1551.85 734.387 1513.38C723.223 1463.58 706.997 1375.88 706.981 1365.28C706.965 1352.4 719.395 1374.84 731.39 1409.33ZM706.692 1409.26C710.091 1429.16 718.96 1472.83 726.398 1506.3C733.83 1539.76 738.559 1568.5 736.897 1570.16C729.583 1577.47 700.809 1498.52 695.335 1456.12C690.417 1418.02 692.198 1373.06 698.627 1373.06C699.662 1373.06 703.292 1389.35 706.692 1409.26ZM467.388 1422.64C476.306 1433.68 482.156 1444.17 480.386 1445.94C474.949 1451.38 445.489 1442.62 431.092 1431.3C419.815 1422.43 418.437 1418.71 423.156 1409.89C431.473 1394.35 448.53 1399.27 467.388 1422.64ZM530.024 1421.13C530.024 1431.76 526.319 1439.02 518.839 1443.02C503.042 1451.48 501.374 1446.99 512.018 1424.67C523.257 1401.09 530.024 1399.77 530.024 1421.13ZM570.138 1496.4C584.257 1542.12 597.083 1585.56 598.638 1592.94C601.207 1605.15 600.628 1605.66 592.134 1598.64C579.426 1588.13 556.754 1542.4 548.1 1509.81C538.711 1474.44 532.319 1400.75 539.263 1407.91C542.121 1410.86 556.015 1450.68 570.138 1496.4ZM577.538 1454.9C601.448 1504.35 610.264 1532.6 613.921 1571.48C618.779 1623.19 609.958 1607.66 581.935 1515.17C568.524 1470.93 555.779 1430.11 553.602 1424.46C544.47 1400.74 562.347 1423.48 577.538 1454.9ZM930.053 1445.56C959.996 1463.59 961.32 1465.3 959.711 1483.97C956.607 1520 939.046 1524.73 913.43 1496.41C903.033 1484.93 903.028 1484.57 913.05 1477.24C921.002 1471.42 925.141 1471.17 931.748 1476.09C938.113 1480.83 937.941 1479.9 931.045 1472.37C923.318 1463.91 919.704 1463.31 908.256 1468.52C894.797 1474.66 894.652 1474.47 894.652 1450.71C894.652 1437.49 895.564 1426.68 896.684 1426.68C897.8 1426.68 912.819 1435.18 930.053 1445.56ZM532.657 1453.42C536.453 1459.57 509.921 1507.13 502.704 1507.13C500.033 1507.13 497.851 1496.19 497.851 1482.82C497.851 1462.63 499.894 1457.7 509.916 1453.67C525.965 1447.21 528.801 1447.19 532.657 1453.42ZM422.587 1480.67C413.933 1496.85 427.429 1514.34 454.937 1522.58C484.735 1531.51 488.842 1526.47 459.694 1516.76C434.373 1508.31 424.62 1497.23 430.052 1483.07C432.835 1475.82 437.425 1474.39 449.94 1476.9C460.026 1478.91 464.97 1478.14 462.948 1474.87C456.809 1464.94 428.856 1468.96 422.587 1480.67ZM628.152 1501.77C628.152 1517.99 629.155 1524.62 630.383 1516.51C631.611 1508.41 631.611 1495.13 630.383 1487.02C629.155 1478.91 628.152 1485.54 628.152 1501.77ZM540.373 1504.92C540.577 1508.14 534.716 1513.52 527.343 1516.88C516.259 1521.93 513.937 1521.58 513.937 1514.87C513.937 1510.41 518.023 1500.51 523.021 1492.89C531.381 1480.12 532.426 1479.82 536.051 1489.05C538.223 1494.57 540.164 1501.71 540.373 1504.92ZM546.111 1531.75C546.111 1536.09 542.797 1540.92 538.743 1542.47C534.689 1544.03 526.903 1553.6 521.434 1563.76C508.103 1588.52 503.213 1586.99 503.213 1558.09C503.213 1535.96 504.645 1533.38 520.64 1526.66C539.858 1518.6 546.111 1519.84 546.111 1531.75ZM425.204 1557.72C418.555 1567.86 417.976 1573.23 422.587 1581.85C425.853 1587.95 430.867 1592.94 433.741 1592.94C436.754 1592.94 436.315 1588.7 432.706 1582.92C423.542 1568.25 430.695 1555.41 448.085 1555.32C459.683 1555.25 461.211 1554.08 454.953 1550.03C442.122 1541.74 434.357 1543.75 425.204 1557.72ZM449.591 1598.3C454.015 1601.16 460.048 1603.5 462.997 1603.5C465.946 1603.5 464.739 1601.16 460.316 1598.3C455.892 1595.44 449.859 1593.1 446.91 1593.1C443.961 1593.1 445.168 1595.44 449.591 1598.3ZM680.691 1672.39C697.817 1699.4 700.772 1710.63 687.956 1699.99C675.977 1690.04 660.749 1667.34 656.164 1652.6C650.239 1633.52 662.132 1643.12 680.691 1672.39ZM800.814 1713.83C760.925 1750.37 723.062 1777.71 723.062 1769.97C723.062 1756.27 810.997 1683.87 827.201 1684.24C830.386 1684.31 818.509 1697.63 800.814 1713.83ZM828.043 1713.53C810.707 1736.26 763.231 1772.65 744.511 1777.56C733.54 1780.44 735.428 1777.38 754.903 1760.75C767.992 1749.57 791.907 1728.94 808.053 1714.92C824.193 1700.89 838.553 1690.57 839.963 1691.98C841.374 1693.38 836.006 1703.09 828.043 1713.53Z" fill="#EF5A4A"/>
<path d="M728.595 821C732.997 825.42 735.199 831.119 735.199 838.098C735.199 843.913 733.924 849.845 731.375 855.894L649.346 1065.26L640.523 1067L594.642 920.796L542.986 1065.26L534.163 1067L457 821H491.544L550.761 1027.57L589.904 915.213L563.36 821H597.904L657.121 1027.57L724.204 855.894C726.753 850.078 729.5 842.251 729.5 836C728.5 828.5 726.29 826.583 722.814 823.094L728.595 821Z" fill="#EF5A4A"/>
<path d="M908.191 821V827.489H798.703V936.149H900.197V942.638H798.703V1065.26H764.854V821H908.191Z" fill="#EF5A4A"/>
<path d="M1083 821V827.489H973.512V936.149H1075.01V942.638H973.512V1065.26H939.663V821H1083Z" fill="#EF5A4A"/>
<path d="M493.208 1136.13C494.532 1137.46 495.195 1139.17 495.195 1141.27C495.195 1143.01 494.811 1144.8 494.044 1146.61L469.365 1209.48L466.215 1210L452.411 1166.1L437.366 1209.48L434.215 1210L411 1136.13H421.889L437.607 1198.16L450.888 1164.42L443.999 1136.13H453.888L470.607 1198.16L490.789 1146.61C491.556 1144.87 491.94 1143.05 491.94 1141.16C491.94 1139.28 491.417 1137.81 490.371 1136.76L493.208 1136.13Z" fill="#EF5A4A"/>
<path d="M505.408 1183.91C505.408 1192.57 506.907 1197.93 509.904 1201.98C512.972 1206.03 516.981 1208.06 521.93 1208.06C528.902 1208.06 535.107 1207.01 540.544 1204.91L540.858 1206.65C535.281 1208.81 528.972 1209.9 521.93 1209.9C514.959 1209.9 509.277 1207.8 504.885 1203.61C500.493 1199.42 498.297 1192.96 498.297 1184.23C498.297 1175.49 500.597 1168.72 505.199 1163.9C509.8 1159.08 515.656 1156.67 522.767 1156.67C528.484 1156.67 533.294 1158.38 537.198 1161.8C541.102 1165.23 543.054 1170.29 543.054 1177C543.054 1177.35 543.054 1178.69 543.054 1178.04L505.721 1179.04C505.512 1180.93 505.408 1180.89 505.408 1183.91ZM535.943 1176.21C535.873 1169.5 534.584 1165.54 532.074 1162.33C529.564 1159.11 526.322 1157.51 522.349 1157.51C518.375 1157.51 514.819 1159.25 511.682 1162.75C508.615 1166.24 506.663 1171.06 505.826 1177.21L535.943 1176.21Z" fill="#EF5A4A"/>
<path d="M626.488 1136.13V1138.18H593.548V1170.71H624.083V1172.76H593.548V1209.48H584.868V1136.13H626.488Z" fill="#EF5A4A"/>
<path d="M642.948 1209.48C640.09 1209.48 637.894 1208.85 636.36 1207.59C634.896 1206.33 634.129 1205.08 634.059 1203.82L633.955 1202.04V1157.09H641.275V1202.04C641.275 1204.06 641.658 1205.63 642.425 1206.75C643.262 1207.8 644.063 1208.36 644.83 1208.43L646.085 1208.64H649.327V1209.48H642.948ZM634.582 1145.35C633.745 1144.52 633.327 1143.47 633.327 1142.21C633.327 1140.95 633.745 1139.91 634.582 1139.07C635.419 1138.16 636.464 1137.71 637.719 1137.71C638.974 1137.71 640.02 1138.16 640.856 1139.07C641.763 1139.91 642.216 1140.95 642.216 1142.21C642.216 1143.47 641.763 1144.52 640.856 1145.35C640.02 1146.19 638.974 1146.61 637.719 1146.61C636.464 1146.61 635.419 1146.19 634.582 1145.35Z" fill="#EF5A4A"/>
<path d="M699.065 1209.48C696.207 1209.48 694.011 1208.85 692.477 1207.59C691.013 1206.33 690.246 1205.08 690.177 1203.82L690.072 1202.04V1169.14C690.072 1163.62 688.643 1162.09 685.785 1160.56C684.321 1159.86 682.508 1159.51 680.347 1159.51C675.885 1159.51 671.876 1160.29 668.321 1163.85C664.765 1167.34 662.988 1171.49 662.988 1174.28V1209.48H655.667V1157.09H662.988V1169.03C664.173 1166.03 666.369 1163.24 669.576 1160.65C672.783 1158 676.303 1156.67 680.138 1156.67C683.972 1156.67 687.074 1157.05 689.445 1157.82C691.885 1158.52 693.662 1159.53 694.778 1160.86C696.521 1163.03 697.392 1165.82 697.392 1169.24V1202.04C697.392 1204.06 697.776 1205.63 698.543 1206.75C699.379 1207.8 700.216 1208.36 701.052 1208.43L702.203 1208.64H705.444V1209.48H699.065Z" fill="#EF5A4A"/>
<path d="M709.69 1185.17C709.69 1176.09 711.886 1169.07 716.278 1164.11C720.67 1159.15 727.259 1156.67 736.043 1156.67C740.156 1156.67 744.304 1157.72 748.487 1159.81V1131H755.807V1202.04C755.807 1204.06 756.191 1205.63 756.957 1206.75C757.794 1207.8 758.631 1208.36 759.467 1208.43L760.617 1208.64H763.859V1209.48H757.48C754.622 1209.48 752.426 1208.85 750.892 1207.59C749.428 1206.33 748.661 1205.08 748.591 1203.82L748.487 1202.04V1200.36C747.162 1202.81 744.966 1204.97 741.899 1206.86C738.831 1208.74 735.206 1209.69 731.023 1209.69C716.801 1209.34 709.69 1201.16 709.69 1185.17ZM731.128 1207.85C735.799 1207.85 739.807 1206.59 743.154 1204.08C746.5 1201.56 748.278 1199.08 748.487 1196.64V1161.76C743.537 1159.59 739.284 1158.51 735.729 1158.51C729.524 1158.51 724.853 1159.95 721.716 1164.84C718.579 1169.66 717.01 1176.44 717.01 1185.17C717.01 1200.95 721.716 1207.85 731.128 1207.85Z" fill="#EF5A4A"/>
<path d="M848.196 1136.13V1138.18H815.255V1170.71H845.791V1172.76H815.255V1209.48H806.576V1136.13H848.196Z" fill="#EF5A4A"/>
<path d="M868.291 1209.48C862.156 1209.48 858.287 1207.87 856.684 1204.66C856.335 1203.96 856.161 1203.33 856.161 1202.77V1131H863.481V1202.04C863.481 1204.06 863.864 1205.63 864.631 1206.75C865.468 1207.8 866.304 1208.36 867.141 1208.43L868.291 1208.64H871.533V1209.48H868.291Z" fill="#EF5A4A"/>
<path d="M898.993 1209.9C891.673 1209.9 885.713 1207.8 881.111 1203.61C876.51 1199.42 874.21 1192.96 874.21 1184.23C874.21 1175.49 876.58 1168.72 881.32 1163.9C886.131 1159.08 892.196 1156.67 899.516 1156.67C906.906 1156.67 912.902 1158.77 917.503 1162.96C922.104 1167.15 924.405 1173.61 924.405 1182.34C924.405 1191.07 922 1197.85 917.189 1202.67C912.448 1207.49 906.383 1209.9 898.993 1209.9ZM899.725 1157.51C894.427 1157.51 890.035 1159.88 886.549 1164.63C883.063 1169.31 881.32 1175.88 881.32 1184.33C881.32 1192.71 882.924 1198.93 886.131 1202.98C889.338 1207.03 893.59 1209.06 898.889 1209.06C904.187 1209.06 908.579 1206.72 912.065 1202.04C915.551 1197.29 917.294 1190.72 917.294 1182.34C917.294 1173.89 915.69 1167.64 912.483 1163.58C909.276 1159.53 905.024 1157.51 899.725 1157.51Z" fill="#EF5A4A"/>
<path d="M1000.61 1157.72L1002.24 1157.09C1002.52 1157.23 1002.87 1157.65 1003.28 1158.35C1003.77 1159.04 1004.05 1159.67 1004.12 1160.23C1004.26 1160.79 1004.33 1161.31 1004.33 1161.8C1004.33 1163.69 1003.91 1165.61 1003.07 1167.57L984.043 1209.48H982.997L967.938 1168.93L949.533 1209.48H948.488L929.037 1157.09H936.357L951.357 1200.47L966.415 1167.67L963.546 1157.09H970.866L985.866 1200.47L1001.03 1167.57C1001.87 1166.1 1002.28 1164.35 1002.28 1162.33C1002.28 1160.3 1001.73 1158.77 1000.61 1157.72Z" fill="#EF5A4A"/>
<path d="M1017.25 1183.91C1017.25 1192.57 1018.74 1197.93 1021.74 1201.98C1024.81 1206.03 1028.82 1208.06 1033.77 1208.06C1040.74 1208.06 1046.94 1207.01 1052.38 1204.91L1052.7 1206.65C1047.12 1208.81 1040.81 1209.9 1033.77 1209.9C1026.8 1209.9 1021.11 1207.8 1016.72 1203.61C1012.33 1199.42 1010.13 1192.96 1010.13 1184.23C1010.13 1175.49 1012.44 1168.72 1017.04 1163.9C1021.64 1159.08 1027.49 1156.67 1034.6 1156.67C1040.32 1156.67 1045.13 1158.38 1049.04 1161.8C1052.94 1165.23 1054.89 1170.29 1054.89 1177C1054.89 1177.35 1055 1178.69 1055 1179.04H1017.66C1017.45 1180.93 1017.25 1181.89 1017.25 1183.91ZM1047.78 1177.21C1047.71 1170.5 1046.42 1165.54 1043.91 1162.33C1041.4 1159.11 1038.16 1157.51 1034.19 1157.51C1030.21 1157.51 1026.66 1159.25 1023.52 1162.75C1020.45 1166.24 1018.5 1171.06 1017.66 1177.21H1047.78Z" fill="#EF5A4A"/>
<path d="M1079.13 1161.59V1160.39C1075.99 1161.65 1073.13 1164.2 1070.55 1168.04C1067.97 1171.81 1066.61 1175.38 1066.47 1178.73V1209.48H1059.15V1157.09H1066.47V1173.75C1067.59 1169.7 1069.72 1165.89 1072.85 1162.33C1075.99 1158.7 1079.54 1156.81 1083.52 1156.67H1083.94C1085.33 1156.67 1086.48 1157.16 1087.39 1158.14C1088.36 1159.04 1088.85 1160.2 1088.85 1161.59C1088.85 1162.99 1088.36 1164.14 1087.39 1165.05C1086.48 1165.96 1085.33 1166.41 1083.94 1166.41C1082.54 1166.41 1081.39 1165.96 1080.49 1165.05C1079.58 1164.14 1079.13 1162.99 1079.13 1161.59Z" fill="#EF5A4A"/>
<path d="M1126.25 1161.76C1125.13 1160.85 1123.32 1160.08 1120.81 1159.45C1118.37 1158.82 1116.52 1158.51 1115.27 1158.51C1114.01 1158.51 1113.28 1158.51 1113.07 1158.51C1109.31 1158.58 1106.59 1159.56 1104.92 1161.44C1103.24 1163.26 1102.41 1164.32 1102.41 1166.62C1102.41 1168.93 1103.14 1170.88 1104.6 1172.49C1106.07 1174.03 1107.88 1175.25 1110.04 1176.16C1112.27 1177 1114.64 1177.97 1117.15 1179.09C1119.73 1180.21 1122.1 1181.36 1124.26 1182.55C1126.49 1183.67 1128.34 1185.34 1129.8 1187.58C1131.27 1189.74 1132 1192.47 1132 1195.75C1132 1199.03 1130.85 1201.83 1128.55 1204.13C1126.25 1206.44 1123.67 1207.97 1120.81 1208.74C1118.02 1209.51 1114.99 1209.9 1111.71 1209.9C1104.6 1209.9 1099.27 1208.32 1095.71 1205.18L1096.34 1203.55C1097.73 1204.88 1099.79 1205.96 1102.51 1206.8C1105.3 1207.64 1107.98 1208.06 1110.56 1208.06C1114.68 1208.06 1118.06 1206.94 1120.71 1204.7C1123.42 1202.4 1124.78 1200.57 1124.78 1197.22C1124.78 1193.79 1123.77 1191.07 1121.75 1189.05C1119.73 1186.95 1117.26 1185.34 1114.33 1184.23C1111.47 1183.04 1108.58 1181.89 1105.65 1180.77C1102.72 1179.58 1100.24 1177.97 1098.22 1175.95C1096.2 1173.85 1095.19 1171.44 1095.19 1168.72C1095.19 1165.99 1095.82 1163.79 1097.07 1162.12C1098.33 1160.37 1100 1159.15 1102.09 1158.45C1105.65 1157.26 1109.2 1156.67 1112.76 1156.67C1118.75 1156.67 1123.42 1157.79 1126.77 1160.02L1126.25 1161.76Z" fill="#EF5A4A"/>
</svg>
