<svg width="63" height="25" viewBox="0 0 63 25" fill="none" xmlns="http://www.w3.org/2000/svg">
<path d="M27.3279 0C27.7709 0.444727 27.9924 1.01819 27.9924 1.72039C27.9924 2.30556 27.8642 2.90243 27.6077 3.51101L19.3539 24.577L18.4661 24.7526L13.8496 10.0415L8.65198 24.577L7.76416 24.7526L0 0H3.47587L9.4343 20.7852L13.3729 9.47972L10.702 0H14.1778L20.1363 20.7852L26.8862 3.51101C27.1427 2.92584 27.419 2.13829 27.419 1.5093C27.3184 0.754652 27.096 0.561762 26.7463 0.210662L27.3279 0Z" fill="#EF5A4A"/>
<path d="M45.399 0V0.652961H34.3822V11.5863H44.5946V12.2393H34.3822V24.577H30.9763V0H45.399Z" fill="#EF5A4A"/>
<path d="M62.9883 0V0.652961H51.9716V11.5863H62.1839V12.2393H51.9716V24.577H48.5656V0H62.9883Z" fill="#EF5A4A"/>
</svg>
