<svg width="192" height="21" viewBox="0 0 192 21" fill="none" xmlns="http://www.w3.org/2000/svg">
<path d="M22.7288 1.36472C23.0797 1.71751 23.2552 2.17241 23.2552 2.72944C23.2552 3.19363 23.1536 3.66711 22.9504 4.14987L16.4126 20.8607L15.5781 21L11.9214 9.33024L7.93568 20.8607L7.10113 21L0.951172 1.36472H3.83571L7.99973 17.8528L11.5179 8.88462L9.69305 1.36472H12.3127L16.7416 17.8528L22.0882 4.14987C22.2913 3.68568 22.3929 3.20292 22.3929 2.70159C22.3929 2.20027 22.2544 1.81034 21.9774 1.53183L22.7288 1.36472Z" fill="#EF5A4A"/>
<path d="M25.9607 14.065C25.9607 16.3674 26.3578 17.7912 27.1519 18.8681C27.9645 19.9451 29.0265 20.4835 30.3377 20.4835C32.1845 20.4835 33.8282 20.205 35.2688 19.648L35.3519 20.1088C33.8744 20.6843 32.203 20.9721 30.3377 20.9721C28.4909 20.9721 26.9857 20.4151 25.8222 19.3011C24.6587 18.187 24.0769 16.4695 24.0769 14.1485C24.0769 11.8276 24.6864 10.0265 25.9053 8.74536C27.1242 7.46419 28.6756 6.82361 30.5593 6.82361C32.0737 6.82361 33.348 7.27851 34.3823 8.18833C35.4165 9.09814 35.9336 10.4443 35.9336 12.2268C35.9336 12.3196 35.9336 12.6783 35.9336 12.5053L26.0438 12.7711C25.9884 13.2725 25.9607 13.2607 25.9607 14.065ZM34.0498 12.0167C34.0314 10.2342 33.6897 9.1817 33.0249 8.32759C32.36 7.47348 31.5012 7.04642 30.4485 7.04642C29.3958 7.04642 28.4539 7.51061 27.6229 8.43899C26.8103 9.36737 26.2931 10.6485 26.0715 12.2825L34.0498 12.0167Z" fill="#EF5A4A"/>
<path d="M58.0361 1.36472V1.90906H49.3098V10.5557H57.399V11.1H49.3098V20.8607H47.0105V1.36472H58.0361Z" fill="#EF5A4A"/>
<path d="M62.3965 20.8607C61.6392 20.8607 61.0575 20.6936 60.6512 20.3594C60.2634 20.0252 60.0602 19.691 60.0417 19.3568L60.014 18.8833V6.93501H61.9532V18.8833C61.9532 19.4218 62.0548 19.8395 62.2579 20.1366C62.4796 20.4151 62.6919 20.5637 62.8951 20.5822L63.2275 20.6379H64.0863V20.8607H62.3965ZM60.1803 3.81565C59.9586 3.59284 59.8478 3.31432 59.8478 2.98011C59.8478 2.64589 59.9586 2.36737 60.1803 2.14456C60.4019 1.90318 60.6789 1.78249 61.0113 1.78249C61.3438 1.78249 61.6208 1.90318 61.8424 2.14456C62.0825 2.36737 62.2025 2.64589 62.2025 2.98011C62.2025 3.31432 62.0825 3.59284 61.8424 3.81565C61.6208 4.03846 61.3438 4.14987 61.0113 4.14987C60.6789 4.14987 60.4019 4.03846 60.1803 3.81565Z" fill="#EF5A4A"/>
<path d="M77.2625 20.8607C76.5053 20.8607 75.9236 20.6936 75.5173 20.3594C75.1294 20.0252 74.9263 19.691 74.9078 19.3568L74.8801 18.8833V10.1379C74.8801 8.67109 74.5015 8.26507 73.7443 7.85658C73.3565 7.6709 72.8763 7.57807 72.3038 7.57807C71.1218 7.57807 70.0599 7.78572 69.118 8.73267C68.1761 9.66105 67.7052 10.7624 67.7052 11.5051V20.8607H65.766V6.93501H67.7052V10.1101C68.0191 9.31167 68.6009 8.56897 69.4504 7.88196C70.3 7.17639 71.2326 6.82361 72.2484 6.82361C73.2641 6.82361 74.086 6.92573 74.7139 7.12997C75.3603 7.31565 75.8312 7.58488 76.1267 7.93767C76.5884 8.51326 76.8193 9.25597 76.8193 10.1658V18.8833C76.8193 19.4218 76.9209 19.8395 77.124 20.1366C77.3456 20.4151 77.5673 20.5637 77.7889 20.5822L78.0936 20.6379H78.9524V20.8607H77.2625Z" fill="#EF5A4A"/>
<path d="M80.0771 14.3992C80.0771 11.9854 80.6589 10.1194 81.8224 8.80106C82.9859 7.48276 84.7312 6.82361 87.0582 6.82361C88.1478 6.82361 89.2467 7.10212 90.3548 7.65915V0H92.294V18.8833C92.294 19.4218 92.3955 19.8395 92.5987 20.1366C92.8203 20.4151 93.0419 20.5637 93.2635 20.5822L93.5683 20.6379H94.4271V20.8607H92.7372C91.98 20.8607 91.3982 20.6936 90.9919 20.3594C90.6041 20.0252 90.4009 19.691 90.3825 19.3568L90.3548 18.8833V18.4377C90.0039 19.0875 89.4221 19.6631 88.6095 20.1645C87.7969 20.6658 86.8366 20.9164 85.7285 20.9164C81.9609 20.8236 80.0771 18.6512 80.0771 14.3992ZM85.7562 20.4278C86.9935 20.4278 88.0555 20.0936 88.942 19.4252C89.8284 18.7567 90.2994 18.0976 90.3548 17.4477V8.17564C89.0435 7.60004 87.917 7.31224 86.9751 7.31224C85.3314 7.31224 84.094 7.69629 83.2629 8.99602C82.4319 10.2772 82.0163 12.0782 82.0163 14.3992C82.0163 18.5955 83.2629 20.4278 85.7562 20.4278Z" fill="#EF5A4A"/>
<path d="M116.769 1.36472V1.90906H108.042V10.5557H116.132V11.1H108.042V20.8607H105.743V1.36472H116.769Z" fill="#EF5A4A"/>
<path d="M122.092 20.8607C120.467 20.8607 119.442 20.4337 119.017 19.5796C118.925 19.3939 118.879 19.2268 118.879 19.0782V0H120.818V18.8833C120.818 19.4218 120.919 19.8395 121.123 20.1366C121.344 20.4151 121.566 20.5637 121.787 20.5822L122.092 20.6379H122.951V20.8607H122.092Z" fill="#EF5A4A"/>
<path d="M130.225 20.9721C128.286 20.9721 126.707 20.4151 125.488 19.3011C124.269 18.187 123.66 16.4695 123.66 14.1485C123.66 11.8276 124.288 10.0265 125.544 8.74536C126.818 7.46419 128.425 6.82361 130.364 6.82361C132.322 6.82361 133.91 7.38064 135.129 8.49469C136.348 9.60875 136.957 11.3263 136.957 13.6472C136.957 15.9682 136.32 17.7692 135.046 19.0504C133.79 20.3316 132.183 20.9721 130.225 20.9721ZM130.419 7.04642C129.016 7.04642 127.852 7.67772 126.929 8.94032C126.005 10.1844 125.544 11.9297 125.544 14.1764C125.544 16.4045 125.968 18.057 126.818 19.134C127.668 20.2109 128.794 20.7493 130.198 20.7493C131.601 20.7493 132.765 20.1273 133.688 18.8833C134.612 17.6207 135.073 15.8753 135.073 13.6472C135.073 11.4005 134.649 9.73873 133.799 8.6618C132.949 7.58488 131.823 7.04642 130.419 7.04642Z" fill="#EF5A4A"/>
<path d="M157.145 7.10212L157.576 6.93501C157.65 6.97215 157.742 7.08356 157.853 7.26923C157.982 7.45491 158.056 7.62202 158.075 7.77056C158.112 7.9191 158.13 8.05836 158.13 8.18833C158.13 8.68966 158.019 9.20027 157.798 9.72016L152.756 20.8607H152.479L148.49 10.0822L143.614 20.8607H143.337L138.184 6.93501H140.123L144.097 18.4655L148.086 9.74801L147.326 6.93501H149.265L153.239 18.4655L157.256 9.72016C157.477 9.33024 157.588 8.86605 157.588 8.32759C157.588 7.78912 157.44 7.38064 157.145 7.10212Z" fill="#EF5A4A"/>
<path d="M161.552 14.065C161.552 16.3674 161.949 17.7912 162.743 18.8681C163.555 19.9451 164.617 20.4835 165.929 20.4835C167.775 20.4835 169.419 20.205 170.86 19.648L170.943 20.1088C169.465 20.6843 167.794 20.9721 165.929 20.9721C164.082 20.9721 162.577 20.4151 161.413 19.3011C160.25 18.187 159.668 16.4695 159.668 14.1485C159.668 11.8276 160.277 10.0265 161.496 8.74536C162.715 7.46419 164.266 6.82361 166.15 6.82361C167.665 6.82361 168.939 7.27851 169.973 8.18833C171.007 9.09814 171.524 10.4443 171.524 12.2268C171.524 12.3196 171.552 12.6783 171.552 12.7711H161.662C161.607 13.2725 161.552 13.5265 161.552 14.065ZM169.641 12.2825C169.622 10.5 169.281 9.1817 168.616 8.32759C167.951 7.47348 167.092 7.04642 166.039 7.04642C164.987 7.04642 164.045 7.51061 163.214 8.43899C162.401 9.36737 161.884 10.6485 161.662 12.2825H169.641Z" fill="#EF5A4A"/>
<path d="M177.945 8.13263V7.81357C177.113 8.14779 176.356 8.82551 175.673 9.84672C174.99 10.8494 174.629 11.7963 174.592 12.6876V20.8607H172.653V6.93501H174.592V11.3634C174.888 10.2865 175.451 9.27454 176.282 8.32759C177.113 7.36207 178.055 6.86074 179.108 6.82361H179.219C179.588 6.82361 179.893 6.95358 180.133 7.21353C180.392 7.45491 180.521 7.76127 180.521 8.13263C180.521 8.50398 180.392 8.81035 180.133 9.05172C179.893 9.2931 179.588 9.41379 179.219 9.41379C178.849 9.41379 178.545 9.2931 178.305 9.05172C178.065 8.81035 177.945 8.50398 177.945 8.13263Z" fill="#EF5A4A"/>
<path d="M190.428 8.17564C190.132 7.93426 189.652 7.73001 188.987 7.5629C188.341 7.3958 187.851 7.31224 187.519 7.31224C187.186 7.31224 186.992 7.31224 186.937 7.31224C185.94 7.33081 185.219 7.59076 184.776 8.09208C184.333 8.57484 184.111 8.85676 184.111 9.4695C184.111 10.0822 184.305 10.6021 184.693 11.0292C185.081 11.4377 185.561 11.7626 186.134 12.004C186.725 12.2268 187.353 12.4867 188.017 12.7838C188.701 13.0809 189.329 13.3873 189.901 13.7029C190.492 14 190.982 14.4456 191.369 15.0398C191.757 15.6154 191.951 16.3395 191.951 17.2122C191.951 18.0849 191.646 18.8276 191.037 19.4403C190.428 20.0531 189.744 20.4615 188.987 20.6658C188.248 20.87 187.445 20.9721 186.577 20.9721C184.693 20.9721 183.28 20.5544 182.338 19.7188L182.505 19.2859C182.874 19.6387 183.419 19.9265 184.139 20.1493C184.878 20.3721 185.589 20.4835 186.272 20.4835C187.362 20.4835 188.257 20.1864 188.959 19.5923C189.68 18.9795 190.04 18.4934 190.04 17.6021C190.04 16.6923 189.772 15.9682 189.236 15.4297C188.701 14.8727 188.045 14.4456 187.269 14.1485C186.512 13.8329 185.746 13.5265 184.97 13.2294C184.194 12.9138 183.539 12.4867 183.003 11.9483C182.468 11.3912 182.2 10.7507 182.2 10.0265C182.2 9.30239 182.366 8.71751 182.699 8.27188C183.031 7.80769 183.474 7.48276 184.028 7.29708C184.97 6.98143 185.912 6.82361 186.854 6.82361C188.442 6.82361 189.68 7.12069 190.566 7.71485L190.428 8.17564Z" fill="#EF5A4A"/>
</svg>
