<svg width="66" height="66" viewBox="0 0 66 66" fill="none" xmlns="http://www.w3.org/2000/svg">
<path d="M1.56477 26.7651C1.37479 26.4736 0.99481 26.2792 1.1373 25.842C1.80223 25.6962 1.37478 25.1618 1.46977 24.7731C1.70725 24.1414 1.27979 23.8985 0.70984 23.9471C0.567354 23.5098 0.899828 23.1697 1.04231 22.781C1.37478 22.6353 1.32729 22.3438 1.32729 22.1008C1.61226 22.1494 1.94472 21.9551 2.13471 22.2952C2.2297 22.4409 1.99222 22.7324 2.32468 22.6839C2.56216 22.6353 2.70465 22.3923 2.60966 22.1494C2.32469 21.4692 2.60966 20.8376 2.65716 20.206C3.51208 19.7687 4.3195 19.38 5.31691 19.4772C5.64938 19.5258 5.98184 19.4286 6.21932 19.1371C4.93694 17.1936 4.93694 15.0072 5.93435 13.1124C7.4542 10.1972 10.1614 9.51697 13.2961 10.2458C13.0587 8.98252 13.2487 7.91361 13.5811 6.79613C14.0086 5.43571 15.7184 4.46398 16.9058 4.36681C18.1407 4.26964 19.2806 4.65833 20.373 5.1442C21.0854 5.4843 21.0379 5.43571 21.4179 4.65833C22.0828 3.29792 22.7952 1.93749 24.1726 1.06294C25.9299 -0.00595965 27.8773 0.285563 29.1596 1.98608C29.2546 2.13184 29.3971 2.2776 29.5396 2.37478C29.7296 2.52054 30.0146 2.56912 30.1095 2.2776C30.2995 1.5488 30.8695 1.25729 31.3919 0.868597C31.8194 0.917184 32.1044 0.674254 32.4843 0.528495C32.6743 0.431322 32.9118 0.236976 33.1018 0.285563C34.0042 0.479908 34.9066 0.625664 35.4766 1.45163C35.6665 1.74315 35.7615 1.9375 36.189 1.84032C36.474 1.74315 36.5689 1.98608 36.5689 2.2776C36.5214 2.52053 36.284 2.76347 36.5689 3.10357C36.9014 3.05499 37.3289 2.90922 37.7088 2.95781C37.9938 3.20074 38.0413 3.54084 38.0413 3.88095C37.8038 3.92953 37.4714 3.78378 37.3764 4.12388C37.2339 4.51257 37.5663 4.56116 37.8038 4.60974C38.1363 4.70692 38.3738 4.99844 38.7537 4.90126C38.9437 4.56116 38.6112 4.31823 38.6587 4.02671C39.0862 3.39509 39.5612 2.81205 40.1311 2.2776C42.2209 0.334145 45.1181 0.771422 46.638 3.24932C47.1604 4.07529 47.6829 4.94985 47.8729 6.06733C48.6803 5.58147 49.3452 5.19278 50.1052 4.99844C51.1501 4.70692 52.195 4.65833 53.1449 5.38713C53.9998 6.06734 54.5697 6.8933 54.4747 8.05938C54.4273 8.691 54.4748 9.37121 54.2848 10.0028C54.1423 10.3915 54.2373 10.683 54.7597 10.683C55.2822 10.6344 55.8521 10.7316 56.3271 10.5373C57.467 10.1486 58.5594 10.4401 59.6518 10.8288C60.9341 11.2661 61.6941 12.7237 61.5041 14.0841C61.2666 15.8332 60.8391 17.4851 59.5093 18.7484C59.4143 18.8455 59.3193 18.9913 59.3193 19.1371C59.3668 19.38 59.6043 19.3314 59.7942 19.38C60.7441 19.4772 61.6466 19.6715 62.549 19.9144C64.2113 20.3517 64.5913 21.7607 64.4963 23.1697C64.4013 24.2386 64.1163 25.2589 63.4514 26.1821C62.8814 26.9595 62.9764 27.1538 63.7364 27.7368C65.4937 29.0001 66.1586 30.7978 65.9686 32.9842C65.9212 33.6158 65.8737 34.1988 65.7787 34.8304C65.4462 36.8711 64.1638 38.2801 62.549 39.349C62.4065 39.4461 62.2165 39.4947 62.1215 39.7377C62.169 40.1264 62.454 40.4179 62.644 40.758C63.4989 42.1184 63.8314 43.6732 63.7364 45.1793C63.6414 47.0742 62.549 48.4346 60.8866 49.3092C59.7942 49.8922 58.6069 50.1351 57.372 50.0866C57.1345 50.3295 57.2295 50.621 57.3245 50.9125C57.6095 52.3215 57.4195 53.5848 56.9445 54.9452C56.4221 56.4028 55.3772 57.3259 54.2373 58.0547C53.5723 58.4434 52.6224 58.6863 51.72 58.3462C51.1026 58.1033 50.4851 57.9575 49.9152 57.7146C49.4402 57.5203 49.2502 57.6174 49.1077 58.1033C48.8703 58.9778 48.6803 59.901 48.0154 60.5812C47.6829 60.5326 47.4929 60.6784 47.4929 61.0185C47.1604 61.0185 46.923 61.2128 46.733 61.4558C46.4005 61.7473 45.973 61.9416 45.5931 61.8444C44.9281 61.6501 44.4057 61.7473 44.0732 62.2817C43.6933 62.0388 44.2157 61.5529 43.6933 61.5043C43.3608 61.4557 42.8858 61.31 42.7909 61.7473C42.5534 62.6704 42.2209 62.3303 41.651 62.0388C41.271 61.8444 40.891 61.7473 40.6061 61.4558C40.2736 61.0671 39.8936 61.1156 39.4662 61.31C39.5612 60.8241 39.4662 60.3869 38.8962 60.3383C38.4213 60.2897 38.3738 60.6298 38.3738 61.0185C38.3263 61.1642 38.2788 61.31 38.2313 61.5043C37.7088 61.6501 37.3764 61.893 37.6613 62.5247C37.7088 62.6704 37.7088 62.8162 37.7088 62.9619C37.5188 63.5936 37.0914 63.9823 36.5214 64.3224C36.0465 64.3224 35.809 64.6625 35.619 65.0511C35.4765 65.0511 35.2866 65.0026 35.1916 65.0997C34.5741 65.4884 33.9567 65.6342 33.1968 65.3427C32.7693 65.1969 32.4368 65.3913 32.1994 65.8285C30.8695 65.9257 29.8721 65.2941 28.9697 64.4195C28.3522 63.8365 27.7348 63.1563 27.5448 62.2331C27.4973 61.9416 27.2123 61.893 27.0223 62.136C26.7849 62.3303 26.6424 62.6218 26.4524 62.8648C26.2624 63.1077 26.0724 63.3992 25.835 63.545C24.7901 64.1766 23.5552 64.2252 22.4628 64.2252C21.4654 64.2252 20.6105 63.4964 19.9455 62.5732C19.1381 61.5043 18.6631 60.2897 18.4257 58.9779C18.3782 58.6863 18.3782 58.3462 18.0932 58.0547C17.4283 58.5406 16.6683 58.7349 15.9084 58.9293C12.5837 59.8038 9.35403 57.3259 9.82898 53.9735C9.97147 53.0017 10.2564 52.1758 10.6839 51.3498C10.7314 51.204 10.8264 51.0583 10.6839 50.9125C10.5414 50.7668 10.3989 50.8153 10.2564 50.8639C9.21154 51.3984 8.11914 51.4956 6.97925 51.2526C5.60188 50.9611 4.55698 50.2809 3.70207 49.1148C1.84974 46.7341 3.08462 42.2156 6.07684 40.758C6.17183 40.7094 6.26682 40.6608 6.5043 40.515C5.4119 40.1749 4.46199 39.8348 3.41709 39.5919C1.99222 39.3004 0.947324 38.3287 0.329882 37.114C-0.240064 35.9479 -0.00258908 34.5389 0.519861 33.2757C1.08981 31.8181 2.03971 30.7006 3.27459 29.8261C3.84454 29.4374 3.79704 29.4374 3.27459 28.8543C3.03712 28.5628 2.79964 28.2713 2.56216 27.9798C2.32468 27.4453 2.2297 26.9109 1.56477 26.7651ZM1.75475 23.3155C1.56477 23.3641 1.37478 23.3641 1.42227 23.607C1.42227 23.6556 1.46977 23.6556 1.46977 23.7042C1.70725 23.6556 1.70725 23.4612 1.75475 23.3155C1.84974 23.2669 1.89724 23.2183 1.80225 23.2183C1.80225 23.2183 1.75475 23.2669 1.75475 23.3155Z" fill="#EF5A4A"/>
<path d="M39.3203 61.3586C39.7478 61.1643 40.1277 61.1642 40.4602 61.5044C40.7452 61.8445 41.1726 61.893 41.5051 62.0874C42.0275 62.3789 42.4075 62.6704 42.645 61.7959C42.74 61.3586 43.2149 61.5044 43.5474 61.5529C44.0224 61.6015 43.5474 62.136 43.9274 62.3303C44.2598 61.7473 44.7823 61.6501 45.4472 61.8931C45.8272 61.9902 46.2546 61.7959 46.5871 61.5044C46.8246 61.31 47.0146 61.0671 47.347 61.0671C47.347 61.1157 47.347 61.1643 47.2995 61.1643C46.5871 62.1846 44.1648 63.1563 42.9775 63.0105C41.9801 62.8648 41.0301 62.6704 40.1752 62.1846C39.8428 61.9416 39.4153 61.7959 39.3203 61.3586Z" fill="#EF5A4A"/>
<path d="M37.7075 3.05499C37.2801 3.00641 36.9001 3.15217 36.5676 3.20075C36.2827 2.86065 36.5201 2.61772 36.5676 2.37479C36.6151 2.08327 36.4726 1.84033 36.1877 1.9375C35.7602 2.03468 35.6652 1.79174 35.4752 1.54881C34.9053 0.674258 33.9554 0.528502 33.1005 0.382743C32.9105 0.334157 32.673 0.528502 32.483 0.625675C32.1505 0.771434 31.8181 1.01436 31.3906 0.965778C31.7231 0.285569 32.388 0.188395 32.958 0.0912221C34.0979 -0.103123 35.2853 -0.0545309 36.1402 0.917196C36.8051 1.54882 37.3751 2.18044 37.7075 3.05499Z" fill="#EF5A4A"/>
<path d="M2.65799 20.2546C2.6105 20.8862 2.32552 21.5664 2.61049 22.198C2.70549 22.441 2.563 22.6839 2.32552 22.7325C1.99305 22.7811 2.18304 22.4896 2.13554 22.3438C1.94556 22.0037 1.6131 22.198 1.32812 22.1494C1.51811 21.3235 1.89807 20.6433 2.65799 20.2546Z" fill="#EF5A4A"/>
<path d="M32.0586 65.7799C32.2961 65.3912 32.676 65.1483 33.056 65.294C33.7684 65.5855 34.4334 65.4398 35.0508 65.0511C35.1458 65.0025 35.3358 65.0025 35.4783 65.0025C35.4308 65.0997 35.4308 65.294 35.3833 65.294C34.3384 65.8771 33.246 66.2657 32.0586 65.7799Z" fill="#EF5A4A"/>
<path d="M0.706598 23.9957C1.32404 23.9471 1.70401 24.19 1.46653 24.8217C1.32404 25.1618 1.79899 25.7448 1.13405 25.8906C0.75409 25.3075 0.659102 24.6759 0.706598 23.9957Z" fill="#EF5A4A"/>
<path d="M38.6604 4.12388C38.6129 4.4154 38.9454 4.65833 38.7554 4.99844C38.3755 5.09561 38.138 4.80409 37.8055 4.70692C37.568 4.65833 37.2356 4.60974 37.3781 4.22105C37.473 3.88095 37.8055 3.97812 38.043 3.97812C38.233 4.12388 38.3754 4.26964 38.6604 4.12388Z" fill="#EF5A4A"/>
<path d="M37.5662 62.9619C37.5662 62.8162 37.5662 62.6704 37.5187 62.5246C37.2337 61.893 37.5662 61.6501 38.0887 61.5043C38.2312 62.136 38.0412 62.5732 37.5662 62.9619Z" fill="#EF5A4A"/>
<path d="M38.2305 61.0185C38.2305 60.6784 38.278 60.3383 38.7529 60.3383C39.3704 60.3868 39.4179 60.7755 39.3229 61.31C38.9429 61.2614 38.6579 60.8727 38.2305 61.0185Z" fill="#EF5A4A"/>
<path d="M1.5625 26.7651C2.22744 26.8623 2.36992 27.3968 2.41741 27.9798C1.89496 27.7369 1.61 27.3968 1.5625 26.7651Z" fill="#EF5A4A"/>
<path d="M35.4766 65.0025C35.6665 64.6138 35.904 64.3223 36.379 64.2737C36.284 64.8082 35.9515 65.0025 35.4766 65.0025Z" fill="#EF5A4A"/>
<path d="M1.27837 22.1494C1.27837 22.4409 1.32587 22.7324 0.993398 22.8296C0.850911 22.4895 0.993401 22.2952 1.27837 22.1494Z" fill="#EF5A4A"/>
<path d="M47.3477 61.0671C47.3477 60.727 47.5376 60.5813 47.8701 60.6298C47.7751 60.8728 47.6326 61.0671 47.3477 61.0671Z" fill="#EF5A4A"/>
<path d="M1.75782 23.3155C1.71033 23.4612 1.71033 23.7042 1.47285 23.6556C1.42535 23.6556 1.42535 23.607 1.42535 23.5584C1.37785 23.3155 1.56784 23.3155 1.75782 23.3155Z" fill="#EF5A4A"/>
<path d="M1.75391 23.3155C1.75391 23.2669 1.8014 23.2183 1.8014 23.2183C1.8964 23.2183 1.8489 23.2669 1.75391 23.3155Z" fill="#EF5A4A"/>
<path d="M20.9336 31.0748V38.6978C20.9336 43.01 20.9336 45.1661 22.1598 46.5058C23.386 47.8454 25.3596 47.8454 29.3067 47.8454H37.6798C41.627 47.8454 43.6005 47.8454 44.8268 46.5058C46.053 45.1661 46.053 43.01 46.053 38.6978V31.0748" stroke="#FFF3D6" stroke-width="1.5" stroke-linecap="round"/>
<path d="M37.6817 40.9847C36.7271 41.9105 35.2071 42.5093 33.4952 42.5093C31.7832 42.5093 30.2633 41.9105 29.3086 40.9847" stroke="#FFF3D6" stroke-width="1.5" stroke-linecap="round"/>
<path d="M20.8118 23.048L20.0923 22.836L20.0923 22.836L20.8118 23.048ZM19.8576 26.2866L20.577 26.4985L20.577 26.4985L19.8576 26.2866ZM46.1768 23.048L45.4574 23.2599L45.4574 23.2599L46.1768 23.048ZM47.1309 26.2866L47.8504 26.0746L47.8504 26.0746L47.1309 26.2866ZM30.0353 30.2672C29.7576 29.9599 29.2833 29.9359 28.976 30.2136C28.6687 30.4913 28.6447 30.9656 28.9224 31.2729L30.0353 30.2672ZM38.0662 30.2663C37.7886 29.9589 37.3143 29.9348 37.0069 30.2125C36.6996 30.4901 36.6755 30.9644 36.9531 31.2718L38.0662 30.2663ZM20.0628 29.657L20.6885 29.2434L20.6885 29.2434L20.0628 29.657ZM31.6377 28.1988C31.7333 27.7957 31.4841 27.3915 31.0811 27.2959C30.678 27.2003 30.2738 27.4495 30.1782 27.8525L31.6377 28.1988ZM39.6675 28.1988C39.7632 27.7957 39.514 27.3915 39.1109 27.2959C38.7079 27.2003 38.3037 27.4495 38.2081 27.8525L39.6675 28.1988ZM46.9257 29.657L46.3001 29.2434L46.3001 29.2434L46.9257 29.657ZM47.4125 28.3407L46.67 28.2347L46.67 28.2347L47.4125 28.3407ZM19.576 28.3407L18.8336 28.4468L18.8336 28.4468L19.576 28.3407ZM22.407 19.4536L21.933 18.8724L21.933 18.8724L22.407 19.4536ZM20.0923 22.836L19.1382 26.0746L20.577 26.4985L21.5312 23.2599L20.0923 22.836ZM45.4574 23.2599L46.4115 26.4985L47.8504 26.0746L46.8962 22.836L45.4574 23.2599ZM25.9253 19.6281H41.0633V18.1281H25.9253V19.6281ZM33.4933 31.8494C32.1518 31.8494 30.9265 31.2534 30.0353 30.2672L28.9224 31.2729C30.0717 32.5447 31.6899 33.3494 33.4933 33.3494V31.8494ZM41.5251 31.8494C40.1831 31.8494 38.9575 31.253 38.0662 30.2663L36.9531 31.2718C38.1025 32.5442 39.7211 33.3494 41.5251 33.3494V31.8494ZM25.4635 31.8494C23.6797 31.8494 21.718 30.8007 20.6885 29.2434L19.4372 30.0706C20.7397 32.0408 23.1675 33.3494 25.4635 33.3494V31.8494ZM30.1782 27.8525C29.6232 30.1916 27.6893 31.8494 25.4635 31.8494V33.3494C28.4764 33.3494 30.9445 31.1202 31.6377 28.1988L30.1782 27.8525ZM38.2081 27.8525C37.6531 30.1916 35.7192 31.8494 33.4933 31.8494V33.3494C36.5063 33.3494 38.9744 31.1202 39.6675 28.1988L38.2081 27.8525ZM46.3001 29.2434C45.2705 30.8007 43.3089 31.8494 41.5251 31.8494V33.3494C43.821 33.3494 46.2488 32.0408 47.5513 30.0706L46.3001 29.2434ZM46.4115 26.4985C46.6711 27.3795 46.7501 27.6741 46.67 28.2347L48.155 28.4468C48.2862 27.5278 48.1071 26.9461 47.8504 26.0746L46.4115 26.4985ZM47.5513 30.0706C47.6732 29.8863 47.8104 29.6827 47.9194 29.4148C48.0288 29.146 48.098 28.8455 48.155 28.4468L46.67 28.2347C46.6213 28.5758 46.5741 28.7412 46.5301 28.8495C46.4856 28.9587 46.4323 29.0434 46.3001 29.2434L47.5513 30.0706ZM46.8962 22.836C46.6042 21.845 46.3699 21.0462 46.1152 20.4267C45.8554 19.7949 45.5446 19.2712 45.0556 18.8724L44.1076 20.0349C44.3243 20.2116 44.5147 20.4788 44.7279 20.9971C44.946 21.5278 45.1564 22.2383 45.4574 23.2599L46.8962 22.836ZM41.0633 19.6281C42.0203 19.6281 42.6669 19.6295 43.1648 19.6938C43.6373 19.7548 43.8988 19.8645 44.1076 20.0349L45.0556 18.8724C44.5586 18.4671 43.9984 18.289 43.357 18.2062C42.741 18.1266 41.9813 18.1281 41.0633 18.1281V19.6281ZM19.1382 26.0746C18.8814 26.9461 18.7023 27.5278 18.8336 28.4468L20.3185 28.2347C20.2384 27.6741 20.3175 27.3795 20.577 26.4985L19.1382 26.0746ZM20.6885 29.2434C20.5562 29.0434 20.5029 28.9587 20.4585 28.8495C20.4144 28.7412 20.3672 28.5758 20.3185 28.2347L18.8336 28.4468C18.8905 28.8455 18.9597 29.146 19.0691 29.4148C19.1781 29.6827 19.3154 29.8863 19.4372 30.0706L20.6885 29.2434ZM21.5312 23.2599C21.8322 22.2383 22.0425 21.5278 22.2607 20.9971C22.4738 20.4788 22.6642 20.2116 22.8809 20.0349L21.933 18.8724C21.4439 19.2712 21.1332 19.7949 20.8734 20.4267C20.6187 21.0462 20.3843 21.845 20.0923 22.836L21.5312 23.2599ZM25.9253 18.1281C25.0073 18.1281 24.2476 18.1266 23.6316 18.2062C22.9901 18.289 22.4299 18.4671 21.933 18.8724L22.8809 20.0349C23.0898 19.8645 23.3513 19.7548 23.8237 19.6938C24.3217 19.6295 24.9683 19.6281 25.9253 19.6281V18.1281Z" fill="#FFF3D6"/>
</svg>
