<svg width="66" height="66" viewBox="0 0 66 66" fill="none" xmlns="http://www.w3.org/2000/svg">
<path d="M1.56477 26.7651C1.37479 26.4736 0.99481 26.2792 1.1373 25.842C1.80223 25.6962 1.37478 25.1618 1.46977 24.7731C1.70725 24.1414 1.27979 23.8985 0.70984 23.9471C0.567354 23.5098 0.899828 23.1697 1.04231 22.781C1.37478 22.6353 1.32729 22.3438 1.32729 22.1008C1.61226 22.1494 1.94472 21.9551 2.13471 22.2952C2.2297 22.4409 1.99222 22.7324 2.32468 22.6839C2.56216 22.6353 2.70465 22.3923 2.60966 22.1494C2.32469 21.4692 2.60966 20.8376 2.65716 20.206C3.51208 19.7687 4.3195 19.38 5.31691 19.4772C5.64938 19.5258 5.98184 19.4286 6.21932 19.1371C4.93694 17.1936 4.93694 15.0072 5.93435 13.1124C7.4542 10.1972 10.1614 9.51697 13.2961 10.2458C13.0587 8.98252 13.2487 7.91361 13.5811 6.79613C14.0086 5.43571 15.7184 4.46398 16.9058 4.36681C18.1407 4.26964 19.2806 4.65833 20.373 5.1442C21.0854 5.4843 21.0379 5.43571 21.4179 4.65833C22.0828 3.29792 22.7952 1.93749 24.1726 1.06294C25.9299 -0.00595965 27.8773 0.285563 29.1596 1.98608C29.2546 2.13184 29.3971 2.2776 29.5396 2.37478C29.7296 2.52054 30.0146 2.56912 30.1095 2.2776C30.2995 1.5488 30.8695 1.25729 31.3919 0.868597C31.8194 0.917184 32.1044 0.674254 32.4843 0.528495C32.6743 0.431322 32.9118 0.236976 33.1018 0.285563C34.0042 0.479908 34.9066 0.625664 35.4766 1.45163C35.6665 1.74315 35.7615 1.9375 36.189 1.84032C36.474 1.74315 36.5689 1.98608 36.5689 2.2776C36.5214 2.52053 36.284 2.76347 36.5689 3.10357C36.9014 3.05499 37.3289 2.90922 37.7088 2.95781C37.9938 3.20074 38.0413 3.54084 38.0413 3.88095C37.8038 3.92953 37.4714 3.78378 37.3764 4.12388C37.2339 4.51257 37.5663 4.56116 37.8038 4.60974C38.1363 4.70692 38.3738 4.99844 38.7537 4.90126C38.9437 4.56116 38.6112 4.31823 38.6587 4.02671C39.0862 3.39509 39.5612 2.81205 40.1311 2.2776C42.2209 0.334145 45.1181 0.771422 46.638 3.24932C47.1604 4.07529 47.6829 4.94985 47.8729 6.06733C48.6803 5.58147 49.3452 5.19278 50.1052 4.99844C51.1501 4.70692 52.195 4.65833 53.1449 5.38713C53.9998 6.06734 54.5697 6.8933 54.4747 8.05938C54.4273 8.691 54.4748 9.37121 54.2848 10.0028C54.1423 10.3915 54.2373 10.683 54.7597 10.683C55.2822 10.6344 55.8521 10.7316 56.3271 10.5373C57.467 10.1486 58.5594 10.4401 59.6518 10.8288C60.9341 11.2661 61.6941 12.7237 61.5041 14.0841C61.2666 15.8332 60.8391 17.4851 59.5093 18.7484C59.4143 18.8455 59.3193 18.9913 59.3193 19.1371C59.3668 19.38 59.6043 19.3314 59.7942 19.38C60.7441 19.4772 61.6466 19.6715 62.549 19.9144C64.2113 20.3517 64.5913 21.7607 64.4963 23.1697C64.4013 24.2386 64.1163 25.2589 63.4514 26.1821C62.8814 26.9595 62.9764 27.1538 63.7364 27.7368C65.4937 29.0001 66.1586 30.7978 65.9686 32.9842C65.9212 33.6158 65.8737 34.1988 65.7787 34.8304C65.4462 36.8711 64.1638 38.2801 62.549 39.349C62.4065 39.4461 62.2165 39.4947 62.1215 39.7377C62.169 40.1264 62.454 40.4179 62.644 40.758C63.4989 42.1184 63.8314 43.6732 63.7364 45.1793C63.6414 47.0742 62.549 48.4346 60.8866 49.3092C59.7942 49.8922 58.6069 50.1351 57.372 50.0866C57.1345 50.3295 57.2295 50.621 57.3245 50.9125C57.6095 52.3215 57.4195 53.5848 56.9445 54.9452C56.4221 56.4028 55.3772 57.3259 54.2373 58.0547C53.5723 58.4434 52.6224 58.6863 51.72 58.3462C51.1026 58.1033 50.4851 57.9575 49.9152 57.7146C49.4402 57.5203 49.2502 57.6174 49.1077 58.1033C48.8703 58.9778 48.6803 59.901 48.0154 60.5812C47.6829 60.5326 47.4929 60.6784 47.4929 61.0185C47.1604 61.0185 46.923 61.2128 46.733 61.4558C46.4005 61.7473 45.973 61.9416 45.5931 61.8444C44.9281 61.6501 44.4057 61.7473 44.0732 62.2817C43.6933 62.0388 44.2157 61.5529 43.6933 61.5043C43.3608 61.4557 42.8858 61.31 42.7909 61.7473C42.5534 62.6704 42.2209 62.3303 41.651 62.0388C41.271 61.8444 40.891 61.7473 40.6061 61.4558C40.2736 61.0671 39.8936 61.1156 39.4662 61.31C39.5612 60.8241 39.4662 60.3869 38.8962 60.3383C38.4213 60.2897 38.3738 60.6298 38.3738 61.0185C38.3263 61.1642 38.2788 61.31 38.2313 61.5043C37.7088 61.6501 37.3764 61.893 37.6613 62.5247C37.7088 62.6704 37.7088 62.8162 37.7088 62.9619C37.5188 63.5936 37.0914 63.9823 36.5214 64.3224C36.0465 64.3224 35.809 64.6625 35.619 65.0511C35.4765 65.0511 35.2866 65.0026 35.1916 65.0997C34.5741 65.4884 33.9567 65.6342 33.1968 65.3427C32.7693 65.1969 32.4368 65.3913 32.1994 65.8285C30.8695 65.9257 29.8721 65.2941 28.9697 64.4195C28.3522 63.8365 27.7348 63.1563 27.5448 62.2331C27.4973 61.9416 27.2123 61.893 27.0223 62.136C26.7849 62.3303 26.6424 62.6218 26.4524 62.8648C26.2624 63.1077 26.0724 63.3992 25.835 63.545C24.7901 64.1766 23.5552 64.2252 22.4628 64.2252C21.4654 64.2252 20.6105 63.4964 19.9455 62.5732C19.1381 61.5043 18.6631 60.2897 18.4257 58.9779C18.3782 58.6863 18.3782 58.3462 18.0932 58.0547C17.4283 58.5406 16.6683 58.7349 15.9084 58.9293C12.5837 59.8038 9.35403 57.3259 9.82898 53.9735C9.97147 53.0017 10.2564 52.1758 10.6839 51.3498C10.7314 51.204 10.8264 51.0583 10.6839 50.9125C10.5414 50.7668 10.3989 50.8153 10.2564 50.8639C9.21154 51.3984 8.11914 51.4956 6.97925 51.2526C5.60188 50.9611 4.55698 50.2809 3.70207 49.1148C1.84974 46.7341 3.08462 42.2156 6.07684 40.758C6.17183 40.7094 6.26682 40.6608 6.5043 40.515C5.4119 40.1749 4.46199 39.8348 3.41709 39.5919C1.99222 39.3004 0.947324 38.3287 0.329882 37.114C-0.240064 35.9479 -0.00258908 34.5389 0.519861 33.2757C1.08981 31.8181 2.03971 30.7006 3.27459 29.8261C3.84454 29.4374 3.79704 29.4374 3.27459 28.8543C3.03712 28.5628 2.79964 28.2713 2.56216 27.9798C2.32468 27.4453 2.2297 26.9109 1.56477 26.7651ZM1.75475 23.3155C1.56477 23.3641 1.37478 23.3641 1.42227 23.607C1.42227 23.6556 1.46977 23.6556 1.46977 23.7042C1.70725 23.6556 1.70725 23.4612 1.75475 23.3155C1.84974 23.2669 1.89724 23.2183 1.80225 23.2183C1.80225 23.2183 1.75475 23.2669 1.75475 23.3155Z" fill="#EF5A4A"/>
<path d="M39.3203 61.3586C39.7478 61.1643 40.1277 61.1642 40.4602 61.5044C40.7452 61.8445 41.1726 61.893 41.5051 62.0874C42.0275 62.3789 42.4075 62.6704 42.645 61.7959C42.74 61.3586 43.2149 61.5044 43.5474 61.5529C44.0224 61.6015 43.5474 62.136 43.9274 62.3303C44.2598 61.7473 44.7823 61.6501 45.4472 61.8931C45.8272 61.9902 46.2546 61.7959 46.5871 61.5044C46.8246 61.31 47.0146 61.0671 47.347 61.0671C47.347 61.1157 47.347 61.1643 47.2995 61.1643C46.5871 62.1846 44.1648 63.1563 42.9775 63.0105C41.9801 62.8648 41.0301 62.6704 40.1752 62.1846C39.8428 61.9416 39.4153 61.7959 39.3203 61.3586Z" fill="#EF5A4A"/>
<path d="M37.7075 3.05499C37.2801 3.00641 36.9001 3.15217 36.5676 3.20075C36.2827 2.86065 36.5201 2.61772 36.5676 2.37479C36.6151 2.08327 36.4726 1.84033 36.1877 1.9375C35.7602 2.03468 35.6652 1.79174 35.4752 1.54881C34.9053 0.674258 33.9554 0.528502 33.1005 0.382743C32.9105 0.334157 32.673 0.528502 32.483 0.625675C32.1505 0.771434 31.8181 1.01436 31.3906 0.965778C31.7231 0.285569 32.388 0.188395 32.958 0.0912221C34.0979 -0.103123 35.2853 -0.0545309 36.1402 0.917196C36.8051 1.54882 37.3751 2.18044 37.7075 3.05499Z" fill="#EF5A4A"/>
<path d="M2.65799 20.2546C2.6105 20.8862 2.32552 21.5664 2.61049 22.198C2.70549 22.441 2.563 22.6839 2.32552 22.7325C1.99305 22.7811 2.18304 22.4896 2.13554 22.3438C1.94556 22.0037 1.6131 22.198 1.32812 22.1494C1.51811 21.3235 1.89807 20.6433 2.65799 20.2546Z" fill="#EF5A4A"/>
<path d="M32.0586 65.7799C32.2961 65.3912 32.676 65.1483 33.056 65.294C33.7684 65.5855 34.4334 65.4398 35.0508 65.0511C35.1458 65.0025 35.3358 65.0025 35.4783 65.0025C35.4308 65.0997 35.4308 65.294 35.3833 65.294C34.3384 65.8771 33.246 66.2657 32.0586 65.7799Z" fill="#EF5A4A"/>
<path d="M0.706598 23.9957C1.32404 23.9471 1.70401 24.19 1.46653 24.8217C1.32404 25.1618 1.79899 25.7448 1.13405 25.8906C0.75409 25.3075 0.659102 24.6759 0.706598 23.9957Z" fill="#EF5A4A"/>
<path d="M38.6604 4.12388C38.6129 4.4154 38.9454 4.65833 38.7554 4.99844C38.3755 5.09561 38.138 4.80409 37.8055 4.70692C37.568 4.65833 37.2356 4.60974 37.3781 4.22105C37.473 3.88095 37.8055 3.97812 38.043 3.97812C38.233 4.12388 38.3754 4.26964 38.6604 4.12388Z" fill="#EF5A4A"/>
<path d="M37.5662 62.9619C37.5662 62.8162 37.5662 62.6704 37.5187 62.5246C37.2337 61.893 37.5662 61.6501 38.0887 61.5043C38.2312 62.136 38.0412 62.5732 37.5662 62.9619Z" fill="#EF5A4A"/>
<path d="M38.2305 61.0185C38.2305 60.6784 38.278 60.3383 38.7529 60.3383C39.3704 60.3868 39.4179 60.7755 39.3229 61.31C38.9429 61.2614 38.6579 60.8727 38.2305 61.0185Z" fill="#EF5A4A"/>
<path d="M1.5625 26.7651C2.22744 26.8623 2.36992 27.3968 2.41741 27.9798C1.89496 27.7369 1.61 27.3968 1.5625 26.7651Z" fill="#EF5A4A"/>
<path d="M35.4766 65.0025C35.6665 64.6138 35.904 64.3223 36.379 64.2737C36.284 64.8082 35.9515 65.0025 35.4766 65.0025Z" fill="#EF5A4A"/>
<path d="M1.27837 22.1494C1.27837 22.4409 1.32587 22.7324 0.993398 22.8296C0.850911 22.4895 0.993401 22.2952 1.27837 22.1494Z" fill="#EF5A4A"/>
<path d="M47.3477 61.0671C47.3477 60.727 47.5376 60.5813 47.8701 60.6298C47.7751 60.8728 47.6326 61.0671 47.3477 61.0671Z" fill="#EF5A4A"/>
<path d="M1.75782 23.3155C1.71033 23.4612 1.71033 23.7042 1.47285 23.6556C1.42535 23.6556 1.42535 23.607 1.42535 23.5584C1.37785 23.3155 1.56784 23.3155 1.75782 23.3155Z" fill="#EF5A4A"/>
<path d="M1.75391 23.3155C1.75391 23.2669 1.8014 23.2183 1.8014 23.2183C1.8964 23.2183 1.8489 23.2669 1.75391 23.3155Z" fill="#EF5A4A"/>
<path d="M45.7345 42.5093C46.7802 42.5093 47.6119 41.7904 48.3587 40.7852C49.8874 38.7275 47.3774 37.083 46.4202 36.2777C45.447 35.459 44.3605 34.9952 43.2588 34.8864M41.8633 31.8372C43.7901 31.8372 45.3521 30.1307 45.3521 28.0257C45.3521 25.9206 43.7901 24.2142 41.8633 24.2142" stroke="#FFF3D6" stroke-width="1.5" stroke-linecap="round"/>
<path d="M21.247 42.5093C20.2013 42.5093 19.3696 41.7904 18.6228 40.7852C17.0941 38.7275 19.6041 37.083 20.5614 36.2777C21.5345 35.459 22.6211 34.9952 23.7227 34.8864M24.4205 31.8372C22.4937 31.8372 20.9317 30.1307 20.9317 28.0257C20.9317 25.9206 22.4937 24.2142 24.4205 24.2142" stroke="#FFF3D6" stroke-width="1.5" stroke-linecap="round"/>
<path d="M28.0276 38.1051C26.6017 39.0683 22.8631 41.0352 25.1401 43.4964C26.2525 44.6987 27.4914 45.5585 29.0489 45.5585H37.9366C39.4942 45.5585 40.733 44.6987 41.8454 43.4964C44.1225 41.0352 40.3838 39.0683 38.9579 38.1051C35.6142 35.8462 31.3714 35.8462 28.0276 38.1051Z" stroke="#FFF3D6" stroke-width="1.5" stroke-linecap="round" stroke-linejoin="round"/>
<path d="M38.3741 26.5011C38.3741 29.4481 36.1873 31.8372 33.4898 31.8372C30.7923 31.8372 28.6055 29.4481 28.6055 26.5011C28.6055 23.554 30.7923 21.165 33.4898 21.165C36.1873 21.165 38.3741 23.554 38.3741 26.5011Z" stroke="#FFF3D6" stroke-width="1.5"/>
</svg>
