<svg width="1920" height="1082" viewBox="0 0 1920 1082" fill="none" xmlns="http://www.w3.org/2000/svg">
<rect width="1920" height="1082" fill="#FFF3D6"/>
<path d="M1411.04 904.957C1411.04 906.259 1411.04 907.615 1411.09 908.971L1430.05 887.653C1428.71 878.377 1430.48 863.569 1430.05 856.788C1426.4 798.313 1458.26 731.863 1463.26 718.465C1481.2 670.296 1492.97 644.584 1492.97 644.584C1482.28 647.947 1472.55 662.05 1472.55 662.05C1472.55 662.05 1469.38 679.137 1463.63 694.76C1444.35 747.269 1410.98 782.69 1409.58 843.01C1408.83 873.604 1411.63 890.203 1411.09 904.957H1411.04Z" fill="url(#paint0_linear_97_53)"/>
<path d="M1441.55 776.778C1441.55 776.778 1448.64 754.7 1457.18 733.219C1469.81 701.541 1509.41 701.161 1543.68 685.322C1577.91 669.482 1616.48 635.362 1635.99 611.712C1655.49 588.061 1726.57 556.545 1740 529.802C1740 529.802 1693.8 547.378 1659.57 556.382C1625.35 565.387 1585.7 577.266 1561.79 603.846C1537.88 630.426 1506.72 635.634 1487.59 659.067C1468.47 682.501 1446.87 723.51 1436.02 753.561C1431.29 766.634 1441.55 776.778 1441.55 776.778Z" fill="url(#paint1_linear_97_53)"/>
<path d="M1409.42 868.722C1409.42 868.722 1406.2 832.053 1396.63 811.006C1383.36 781.822 1355.1 784.372 1318.51 775.205C1281.98 766.037 1237.82 739.729 1214.28 720.201C1190.75 700.618 1115.16 682.989 1097 659.23C1097 659.23 1145.62 667.801 1180.87 670.242C1216.17 672.683 1257.32 676.914 1285.63 698.557C1314 720.201 1345.59 719.441 1368.69 738.915C1391.85 758.389 1420.59 825.055 1422.05 838.888C1423.44 852.72 1409.37 868.722 1409.37 868.722H1409.42Z" fill="url(#paint2_linear_97_53)"/>
<path d="M1406.95 697.744C1406.95 697.744 1404.32 644.313 1398.94 615.943C1389.27 564.736 1350.11 565.875 1318.57 530.779C1286.98 495.629 1259.31 437.37 1248.46 400.538C1237.55 363.706 1171.3 292.32 1168.89 255C1168.89 255 1213.37 298.016 1248.24 325.301C1283.11 352.586 1322.87 385.892 1337.37 428.203C1351.88 470.513 1385.14 491.94 1395.67 528.338C1406.25 564.736 1414.42 638.02 1414.85 665.088C1415.12 682.447 1406.95 697.635 1406.95 697.635V697.744Z" fill="url(#paint3_linear_97_53)"/>
<path d="M1436.01 479.789C1436.01 479.789 1415.11 519.117 1413.88 552.26C1412.64 585.458 1418.33 839.593 1418.33 839.593L1403.61 810.518C1403.61 810.518 1407.37 791.587 1407.37 768.207C1407.37 744.828 1403.51 551.229 1406.94 533.98C1410.38 516.73 1415.11 499.046 1415.11 499.046C1415.11 499.046 1424.89 483.749 1436.01 479.789Z" fill="url(#paint4_linear_97_53)"/>
<path d="M1442.78 426.467C1442.78 426.467 1446.06 376.237 1424.57 348.681C1403.08 321.124 1358 320.69 1358 320.69C1365.58 327.851 1369.18 337.561 1372.4 352.098C1375.57 366.636 1390.29 384.102 1405.33 391.479C1420.38 398.857 1438.27 415.456 1442.78 426.467Z" fill="url(#paint5_linear_97_53)"/>
<path d="M1456.69 422.724C1456.69 422.724 1476.14 376.345 1507.57 361.482C1539 346.565 1579.51 366.69 1579.51 366.69C1569.57 369.673 1562 376.671 1552.7 388.225C1543.41 399.725 1522.45 408.729 1505.75 408.458C1488.98 408.241 1465.61 414.913 1456.69 422.724Z" fill="url(#paint6_radial_97_53)"/>
<path d="M1441.28 449.358C1441.28 449.358 1479.37 407.265 1504.03 387.465C1542.01 356.926 1551.95 313.15 1551.95 313.15C1538.95 321.938 1535.41 324.867 1528.96 324.542C1522.51 324.162 1514.45 326.874 1507.2 329.261C1499.95 331.594 1491.19 300.078 1480.44 302.03C1469.7 303.983 1463.84 307.835 1459.87 303.441C1455.94 298.993 1438.64 286.408 1432.79 286.516C1435.1 293.839 1436.93 305.936 1425.27 313.53C1413.55 321.124 1407 345.86 1413.55 371.084C1420.11 396.362 1441.28 449.413 1441.28 449.413V449.358Z" fill="url(#paint7_linear_97_53)"/>
<path d="M1438.59 450.389C1438.59 450.389 1438.75 450.01 1439.07 449.25C1439.4 448.491 1439.88 447.406 1440.52 445.996C1441.81 443.229 1443.69 439.269 1446.22 434.713C1447.4 432.38 1448.96 429.993 1450.41 427.39C1451.97 424.84 1453.58 422.128 1455.41 419.47C1457.23 416.758 1459.06 413.937 1461.16 411.225C1462.18 409.869 1463.2 408.458 1464.22 407.102L1467.5 403.034C1469.59 400.267 1471.95 397.718 1474.16 395.114C1476.31 392.51 1478.83 390.232 1481.03 387.791C1483.24 385.35 1485.66 383.343 1487.75 381.282C1489.9 379.22 1492.05 377.376 1494.09 375.749C1496.13 374.122 1497.85 372.44 1499.41 371.03C1500.97 369.565 1502.26 368.209 1503.28 366.961C1505.32 364.52 1506.29 362.73 1506.29 362.73C1507.58 360.235 1510.64 359.313 1513.11 360.615C1515.58 361.917 1516.49 365.009 1515.2 367.504C1514.4 369.077 1512.89 369.999 1511.23 370.162H1511.07C1511.07 370.162 1509.19 370.379 1506.29 371.409C1504.84 371.898 1503.12 372.603 1501.29 373.579C1499.41 374.556 1497.58 376.02 1495.54 377.593C1493.5 379.166 1491.3 380.848 1489.15 382.855C1486.94 384.862 1484.53 386.76 1482.27 389.093C1480.01 391.371 1477.54 393.65 1475.34 396.199C1473.08 398.694 1470.72 401.19 1468.57 403.902L1465.35 407.916C1464.33 409.326 1463.3 410.682 1462.34 412.038C1460.3 414.751 1458.47 417.571 1456.7 420.229C1454.92 422.942 1453.31 425.6 1451.81 428.149C1450.36 430.753 1448.96 433.194 1447.83 435.472C1445.47 440.083 1443.75 443.988 1442.57 446.809C1442.03 448.22 1441.6 449.304 1441.33 450.064C1441.06 450.823 1440.9 451.203 1440.9 451.203C1440.69 451.908 1439.93 452.234 1439.29 452.017C1438.64 451.8 1438.32 451.04 1438.54 450.389C1438.54 450.389 1438.54 450.389 1438.54 450.335L1438.59 450.389Z" fill="url(#paint8_linear_97_53)"/>
<path d="M1438.81 447.623C1438.81 447.623 1438.86 447.297 1439.02 446.646C1439.13 445.995 1439.35 445.073 1439.67 443.934C1440.26 441.602 1441.07 438.293 1442.3 434.387C1442.89 432.434 1443.7 430.373 1444.4 428.095C1445.2 425.925 1446.01 423.592 1447.03 421.206C1448 418.873 1449.02 416.378 1450.15 413.991C1450.74 412.798 1451.27 411.55 1451.87 410.357L1453.75 406.722C1454.93 404.281 1456.32 401.949 1457.67 399.616C1458.96 397.23 1460.52 395.114 1461.8 392.944C1463.09 390.775 1464.65 388.822 1466 386.869C1467.34 384.916 1468.68 383.18 1470.02 381.607C1471.37 380.034 1472.44 378.515 1473.41 377.105C1474.38 375.749 1475.18 374.501 1475.77 373.362C1476.96 371.192 1477.44 369.619 1477.44 369.619C1478.08 367.504 1480.29 366.31 1482.38 366.907C1484.48 367.558 1485.66 369.782 1485.07 371.897C1484.69 373.199 1483.67 374.176 1482.44 374.555H1482.33C1482.33 374.555 1480.93 375.044 1478.89 376.291C1477.82 376.888 1476.63 377.702 1475.34 378.786C1474.05 379.817 1472.87 381.227 1471.53 382.746C1470.19 384.265 1468.79 385.947 1467.39 387.791C1466 389.635 1464.44 391.534 1463.04 393.649C1461.64 395.765 1460.09 397.881 1458.8 400.213C1457.45 402.491 1456 404.769 1454.77 407.21L1452.89 410.791C1452.3 412.038 1451.76 413.232 1451.17 414.425C1449.98 416.812 1449.07 419.253 1448.1 421.585C1447.14 423.918 1446.33 426.25 1445.53 428.42C1444.83 430.644 1444.13 432.705 1443.59 434.712C1442.46 438.618 1441.76 441.927 1441.28 444.205C1441.07 445.344 1440.91 446.267 1440.85 446.863C1440.74 447.46 1440.69 447.84 1440.69 447.84C1440.64 448.436 1440.1 448.762 1439.56 448.708C1439.02 448.599 1438.65 448.111 1438.7 447.568L1438.81 447.623Z" fill="url(#paint9_linear_97_53)"/>
<path d="M1440.58 433.086C1440.58 433.086 1440.58 432.76 1440.47 432.163C1440.47 431.513 1440.31 430.645 1440.15 429.506C1439.83 427.227 1439.4 423.918 1438.59 420.067C1438.22 418.114 1437.68 416.053 1437.25 413.829C1436.71 411.659 1436.17 409.327 1435.48 406.94C1434.78 404.553 1434.08 402.112 1433.22 399.671C1432.79 398.423 1432.36 397.23 1431.93 395.982L1430.53 392.294C1429.67 389.798 1428.54 387.412 1427.52 385.079C1426.56 382.693 1425.27 380.468 1424.25 378.244C1423.23 376.02 1421.94 373.959 1420.86 372.006C1419.79 369.999 1418.66 368.209 1417.58 366.528C1416.51 364.9 1415.6 363.273 1414.84 361.863C1414.04 360.452 1413.45 359.15 1412.96 358.065C1412.05 355.841 1411.78 354.323 1411.78 354.323C1411.41 352.261 1409.42 350.851 1407.32 351.231C1405.23 351.611 1403.88 353.617 1404.26 355.733C1404.48 357.035 1405.39 358.066 1406.46 358.554H1406.57C1406.57 358.554 1407.86 359.15 1409.74 360.615C1410.65 361.32 1411.73 362.242 1412.86 363.382C1413.98 364.521 1414.95 365.985 1416.08 367.613C1417.21 369.186 1418.39 370.976 1419.46 372.874C1420.59 374.827 1421.88 376.726 1423.01 378.95C1424.14 381.119 1425.37 383.289 1426.4 385.676C1427.47 388.009 1428.6 390.341 1429.51 392.782L1430.91 396.416C1431.34 397.664 1431.77 398.857 1432.14 400.105C1433 402.546 1433.65 404.933 1434.35 407.32C1434.99 409.652 1435.53 411.985 1436.07 414.154C1436.5 416.324 1436.93 418.44 1437.25 420.338C1437.89 424.19 1438.27 427.444 1438.43 429.668C1438.48 430.807 1438.59 431.675 1438.59 432.272C1438.59 432.869 1438.59 433.194 1438.59 433.194C1438.59 433.737 1439.02 434.17 1439.56 434.17C1440.1 434.17 1440.47 433.737 1440.47 433.194L1440.58 433.086Z" fill="url(#paint10_linear_97_53)"/>
<path d="M1437.79 429.722C1437.79 429.722 1437.9 429.451 1438.16 428.854C1438.43 428.257 1438.75 427.444 1439.13 426.359C1439.94 424.189 1441.07 421.097 1442.19 417.3C1442.78 415.401 1443.27 413.34 1443.91 411.17C1444.45 409.001 1445.04 406.668 1445.58 404.281C1446.06 401.84 1446.6 399.399 1446.98 396.796C1447.19 395.494 1447.4 394.246 1447.57 392.944L1448.05 389.039C1448.43 386.435 1448.59 383.831 1448.8 381.227C1449.07 378.678 1448.96 376.074 1449.12 373.633C1449.29 371.138 1449.12 368.805 1449.12 366.527C1449.12 364.249 1448.96 362.133 1448.75 360.181C1448.53 358.228 1448.53 356.383 1448.48 354.756C1448.48 353.129 1448.48 351.718 1448.64 350.471C1448.86 348.084 1449.34 346.619 1449.34 346.619C1449.98 344.612 1448.86 342.443 1446.87 341.792C1444.88 341.141 1442.68 342.28 1442.09 344.287C1441.66 345.535 1441.98 346.891 1442.73 347.867V347.976C1442.73 347.976 1443.7 349.115 1444.66 351.23C1445.15 352.315 1445.69 353.617 1446.12 355.136C1446.55 356.655 1446.76 358.445 1446.98 360.398C1447.19 362.35 1447.46 364.466 1447.51 366.69C1447.62 368.914 1447.83 371.301 1447.78 373.742C1447.78 376.183 1447.83 378.732 1447.62 381.282C1447.46 383.831 1447.35 386.435 1447.03 389.039L1446.6 392.944C1446.38 394.246 1446.17 395.494 1445.95 396.796C1445.58 399.345 1445.04 401.786 1444.56 404.227C1444.07 406.614 1443.43 408.892 1442.89 411.062C1442.25 413.232 1441.66 415.239 1441.01 417.083C1439.78 420.826 1438.59 423.809 1437.68 425.925C1437.2 426.956 1436.87 427.769 1436.61 428.312C1436.34 428.854 1436.18 429.125 1436.18 429.125C1435.96 429.613 1436.18 430.21 1436.61 430.427C1437.09 430.644 1437.63 430.427 1437.9 429.993L1437.79 429.722Z" fill="url(#paint11_linear_97_53)"/>
<path d="M1439.39 455.109C1439.39 455.109 1439.5 454.675 1439.66 453.861C1439.82 453.047 1440.04 451.854 1440.31 450.335C1440.79 447.297 1441.49 443.012 1441.92 437.805C1442.24 435.201 1442.3 432.38 1442.56 429.397C1442.73 426.413 1442.89 423.267 1442.94 420.012C1442.94 416.758 1442.99 413.395 1442.83 409.977C1442.78 408.241 1442.67 406.56 1442.62 404.824L1442.19 399.617C1442.03 396.145 1441.49 392.673 1441.11 389.31C1440.79 385.893 1440.04 382.584 1439.56 379.383C1439.13 376.129 1438.27 373.091 1437.67 370.162C1437.08 367.178 1436.28 364.466 1435.58 361.971C1434.83 359.476 1434.34 357.143 1433.86 355.028C1433.38 352.966 1433.11 351.068 1432.95 349.44C1432.62 346.24 1432.84 344.233 1432.84 344.233C1433.16 341.412 1431.17 338.917 1428.38 338.591C1425.59 338.266 1423.11 340.273 1422.79 343.094C1422.58 344.83 1423.28 346.511 1424.57 347.542L1424.67 347.65C1424.67 347.65 1426.12 348.844 1427.9 351.393C1428.81 352.641 1429.83 354.214 1430.8 356.058C1431.76 357.903 1432.52 360.181 1433.27 362.622C1434.07 365.063 1434.93 367.721 1435.58 370.596C1436.28 373.471 1437.19 376.454 1437.73 379.655C1438.32 382.855 1439.07 386.11 1439.45 389.473C1439.88 392.836 1440.47 396.253 1440.68 399.725L1441.11 404.878C1441.17 406.614 1441.22 408.296 1441.27 410.032C1441.44 413.449 1441.38 416.758 1441.33 420.012C1441.33 423.267 1441.06 426.359 1440.9 429.343C1440.63 432.326 1440.41 435.092 1440.04 437.642C1439.39 442.795 1438.64 447.026 1438 449.955C1437.67 451.42 1437.41 452.559 1437.19 453.319C1436.98 454.078 1436.87 454.512 1436.87 454.512C1436.71 455.217 1437.08 455.922 1437.78 456.085C1438.43 456.248 1439.13 455.868 1439.34 455.217C1439.34 455.217 1439.34 455.217 1439.34 455.163L1439.39 455.109Z" fill="url(#paint12_linear_97_53)"/>
<path d="M1439.88 452.017C1439.88 452.017 1439.88 451.583 1439.88 450.769C1439.88 449.955 1439.99 448.708 1440.1 447.189C1440.37 444.151 1440.63 439.757 1441.44 434.604C1441.76 432 1442.3 429.234 1442.78 426.251C1443.32 423.321 1443.91 420.175 1444.61 417.029C1445.36 413.829 1446.06 410.574 1447.08 407.265C1447.57 405.638 1448 403.956 1448.48 402.275L1450.09 397.338C1451.06 393.975 1452.35 390.775 1453.53 387.574C1454.66 384.32 1456.16 381.282 1457.34 378.298C1458.53 375.261 1460.03 372.494 1461.32 369.782C1462.56 367.07 1463.95 364.575 1465.24 362.296C1466.58 360.072 1467.61 357.903 1468.52 355.95C1469.49 354.051 1470.18 352.261 1470.72 350.742C1471.74 347.759 1472.01 345.697 1472.01 345.697C1472.33 342.877 1474.86 340.924 1477.65 341.25C1480.45 341.575 1482.38 344.124 1482.06 346.945C1481.84 348.681 1480.77 350.146 1479.32 350.851L1479.16 350.959C1479.16 350.959 1477.49 351.773 1475.13 353.834C1473.95 354.811 1472.6 356.112 1471.21 357.686C1469.81 359.259 1468.57 361.266 1467.28 363.49C1465.94 365.714 1464.49 368.1 1463.15 370.704C1461.8 373.362 1460.19 376.02 1458.96 379.004C1457.67 381.933 1456.16 384.916 1454.98 388.117C1453.74 391.263 1452.45 394.463 1451.43 397.772L1449.82 402.708C1449.34 404.39 1448.91 406.017 1448.48 407.645C1447.51 410.899 1446.81 414.208 1446.12 417.355C1445.42 420.501 1444.88 423.593 1444.34 426.522C1443.91 429.451 1443.48 432.218 1443.27 434.821C1442.68 439.974 1442.46 444.26 1442.41 447.297C1442.41 448.816 1442.41 449.955 1442.41 450.769C1442.41 451.583 1442.41 452.017 1442.41 452.017C1442.41 452.722 1441.87 453.319 1441.17 453.373C1440.47 453.373 1439.88 452.83 1439.88 452.125V452.017Z" fill="url(#paint13_linear_97_53)"/>
<path d="M1455.14 417.191C1455.14 417.191 1478.03 394.571 1506.61 390.774C1535.19 386.977 1551.58 394.083 1563.08 404.39C1552.81 402.871 1536.1 400.321 1520.74 408.133C1506.93 415.184 1497.53 428.528 1481.95 432.488C1466.37 436.448 1455.19 417.246 1455.19 417.246L1455.14 417.191Z" fill="url(#paint14_radial_97_53)"/>
<path d="M1446.38 445.127C1446.38 445.127 1461.31 436.828 1481.62 440.625C1501.93 444.476 1536.75 448.599 1560.55 442.523C1562.91 435.092 1572.8 410.573 1562.16 401.84C1551.52 393.107 1517.62 404.498 1503.06 413.177C1489.41 414.316 1453.74 418.873 1446.43 445.073L1446.38 445.127Z" fill="url(#paint15_radial_97_53)"/>
<path d="M1415.11 499.046C1415.11 499.046 1427.63 499.751 1440.36 471.056C1449.76 449.846 1484.36 430.481 1500.27 426.63C1500.27 426.63 1478.24 422.236 1458.9 415.455C1439.5 408.675 1431.23 406.017 1431.23 406.017C1431.23 406.017 1436.76 470.568 1415.17 499.1L1415.11 499.046Z" fill="#FFE9C7"/>
<path d="M1421.88 487.058C1421.02 490.855 1416.18 495.521 1415.06 499.047C1420.81 498.558 1427.41 493.188 1433.11 484.455C1438.64 467.151 1445.84 435.418 1443.53 422.996C1442.56 417.625 1439.02 411.984 1434.18 406.939C1432.09 406.234 1431.12 405.909 1431.12 405.909C1431.12 405.909 1435.37 455.542 1421.88 487.004V487.058Z" fill="#FFDDA8"/>
<path d="M1428.65 412.147C1428.65 412.147 1436.55 402.329 1446.28 404.77C1456 407.211 1464.49 415.13 1472.23 417.137C1479.96 419.144 1496.72 422.291 1500.22 426.63C1503.76 430.915 1500.27 442.469 1490.28 445.236C1445.36 432.76 1446.92 412.906 1428.6 412.201L1428.65 412.147Z" fill="url(#paint16_radial_97_53)"/>
<path d="M1415.12 499.046C1415.12 499.046 1425.59 496.497 1431.23 480.006C1436.82 463.516 1444.99 428.854 1442.57 415.781C1440.15 402.654 1422.8 387.791 1407 384.699C1407 384.699 1420.81 393.703 1424.09 420.771C1427.37 447.839 1423.55 477.077 1415.12 499.046Z" fill="url(#paint17_radial_97_53)"/>
<path d="M1442.89 419.144C1442.89 419.144 1430.59 407.21 1410.01 405.583C1389.43 403.955 1354.72 398.856 1333.29 386.76C1332.91 379.003 1329.69 352.694 1342.21 347.053C1354.72 341.411 1384.54 361.265 1396.36 373.524C1409.26 378.189 1442.51 391.913 1442.83 419.144H1442.89Z" fill="url(#paint18_radial_97_53)"/>
<path d="M1306.27 606.45C1306.27 606.45 1338.29 637.153 1349.78 668.289C1355 682.447 1390.29 750.09 1403.56 810.518C1411.73 847.513 1411.41 940.216 1411.41 940.216L1429.51 924.974C1429.51 924.974 1432.15 877.998 1424.89 855.812C1420.06 841.003 1424.03 824.025 1414.42 793.16C1395.4 732.352 1355.96 658.199 1350.59 648.707C1341.94 633.41 1332 618.113 1332 618.113C1332 618.113 1317.98 606.667 1306.16 606.45H1306.27Z" fill="url(#paint19_linear_97_53)"/>
<path d="M1283.27 557.956C1283.27 557.956 1264.57 511.306 1276.39 478.325C1288.21 445.344 1330.98 430.698 1330.98 430.698C1326.04 439.92 1325.55 450.28 1327.06 465.089C1328.56 479.898 1320.02 501.162 1307.99 512.933C1295.95 524.704 1284.13 546.13 1283.27 558.01V557.956Z" fill="url(#paint20_linear_97_53)"/>
<path d="M1268.93 558.824C1268.93 558.824 1236.1 520.961 1201.61 516.784C1167.12 512.607 1134.93 544.503 1134.93 544.503C1145.3 544.178 1154.65 548.463 1167.06 556.437C1179.47 564.411 1202.15 566.309 1217.94 560.776C1233.74 555.244 1258.07 554.213 1268.98 558.769L1268.93 558.824Z" fill="url(#paint21_radial_97_53)"/>
<path d="M1291.82 579.219C1291.82 579.219 1242.6 551.283 1213.05 540.272C1167.49 523.293 1144.5 484.834 1144.5 484.834C1159.6 489.065 1163.84 490.747 1169.86 488.36C1175.87 485.973 1184.36 486.027 1191.94 485.919C1199.57 485.81 1198.06 453.155 1208.92 451.582C1219.72 450.009 1226.48 451.853 1228.85 446.374C1231.21 440.896 1243.73 423.538 1249.32 421.748C1249.37 429.396 1251.41 441.492 1264.85 445.018C1278.33 448.49 1292.25 469.917 1293.86 495.954C1295.47 521.991 1291.87 579.111 1291.87 579.111L1291.82 579.219Z" fill="url(#paint22_linear_97_53)"/>
<path d="M1294.71 579.328C1294.71 579.328 1294.45 579.003 1293.91 578.352C1293.37 577.701 1292.57 576.833 1291.49 575.748C1289.4 573.524 1286.44 570.378 1282.57 566.852C1280.69 565.062 1278.54 563.272 1276.34 561.265C1274.08 559.312 1271.72 557.305 1269.14 555.298C1266.56 553.291 1263.93 551.229 1261.14 549.277C1259.74 548.3 1258.34 547.324 1256.94 546.347L1252.59 543.527C1249.75 541.574 1246.74 539.892 1243.78 538.157C1240.88 536.366 1237.82 534.956 1235.02 533.383C1232.18 531.756 1229.28 530.616 1226.59 529.315C1223.9 528.013 1221.27 526.982 1218.85 526.06C1216.43 525.138 1214.23 524.107 1212.35 523.239C1210.42 522.371 1208.75 521.449 1207.41 520.635C1204.72 518.954 1203.27 517.544 1203.27 517.544C1201.28 515.591 1198.06 515.645 1196.13 517.706C1194.19 519.768 1194.25 522.968 1196.29 524.921C1197.58 526.168 1199.3 526.548 1200.85 526.223H1201.02C1201.02 526.223 1202.84 525.735 1205.9 525.843C1207.46 525.843 1209.29 526.006 1211.33 526.331C1213.43 526.657 1215.63 527.47 1218.05 528.338C1220.46 529.152 1223.1 530.074 1225.78 531.322C1228.47 532.515 1231.37 533.546 1234.22 535.065C1237.07 536.529 1240.13 537.885 1243.03 539.621C1245.93 541.303 1248.99 542.93 1251.84 544.829L1256.14 547.649C1257.54 548.626 1258.93 549.602 1260.28 550.579C1263.07 552.477 1265.65 554.593 1268.17 556.545C1270.7 558.553 1273.06 560.614 1275.27 562.512C1277.41 564.519 1279.51 566.418 1281.28 568.262C1284.94 571.842 1287.84 575.043 1289.77 577.321C1290.74 578.46 1291.49 579.382 1291.97 580.033C1292.46 580.684 1292.73 581.01 1292.73 581.01C1293.16 581.606 1293.91 581.661 1294.5 581.227C1295.04 580.793 1295.14 580.033 1294.71 579.436V579.328Z" fill="url(#paint23_linear_97_53)"/>
<path d="M1293.58 576.779C1293.58 576.779 1293.42 576.508 1293.1 575.911C1292.78 575.314 1292.3 574.555 1291.65 573.524C1290.36 571.517 1288.59 568.588 1286.17 565.279C1284.99 563.597 1283.59 561.862 1282.19 560.017C1280.74 558.173 1279.24 556.22 1277.57 554.322C1275.91 552.369 1274.24 550.362 1272.36 548.463C1271.45 547.487 1270.54 546.51 1269.57 545.534L1266.67 542.713C1264.79 540.761 1262.69 538.971 1260.76 537.18C1258.82 535.336 1256.67 533.817 1254.74 532.136C1252.81 530.454 1250.76 529.098 1248.88 527.688C1247.06 526.277 1245.18 525.084 1243.46 523.945C1241.74 522.86 1240.23 521.775 1238.89 520.744C1237.55 519.768 1236.42 518.846 1235.51 517.978C1233.68 516.296 1232.77 514.94 1232.77 514.94C1231.53 513.15 1229.06 512.662 1227.23 513.964C1225.46 515.211 1224.98 517.707 1226.27 519.551C1227.07 520.69 1228.31 521.287 1229.6 521.287H1229.7C1229.7 521.287 1231.15 521.287 1233.52 521.775C1234.7 521.992 1236.1 522.426 1237.66 523.023C1239.21 523.619 1240.77 524.541 1242.49 525.572C1244.21 526.603 1246.09 527.742 1247.97 529.044C1249.85 530.4 1251.95 531.647 1253.88 533.221C1255.87 534.794 1257.96 536.312 1259.95 538.103C1261.94 539.838 1264.04 541.574 1265.92 543.473L1268.82 546.293C1269.73 547.27 1270.64 548.246 1271.56 549.223C1273.38 551.121 1275.05 553.128 1276.71 555.081C1278.33 557.034 1279.83 558.933 1281.28 560.777C1282.62 562.675 1283.97 564.411 1285.04 566.147C1287.3 569.51 1289.02 572.385 1290.2 574.446C1290.74 575.477 1291.17 576.291 1291.44 576.833C1291.7 577.376 1291.87 577.701 1291.87 577.701C1292.13 578.189 1292.67 578.406 1293.21 578.189C1293.69 577.972 1293.91 577.376 1293.64 576.887L1293.58 576.779Z" fill="url(#paint24_linear_97_53)"/>
<path d="M1287.41 563.542C1287.41 563.542 1287.36 563.217 1287.19 562.62C1287.03 562.024 1286.87 561.101 1286.66 559.962C1286.23 557.684 1285.64 554.429 1285.21 550.524C1284.94 548.571 1284.83 546.401 1284.56 544.177C1284.4 541.899 1284.19 539.566 1284.13 537.071C1284.08 534.63 1283.97 532.081 1284.02 529.477C1284.02 528.175 1284.02 526.873 1284.02 525.571L1284.24 521.666C1284.29 519.062 1284.62 516.404 1284.83 513.854C1284.99 511.251 1285.53 508.756 1285.8 506.315C1286.07 503.874 1286.66 501.541 1287.03 499.317C1287.41 497.093 1287.95 495.032 1288.48 493.079C1289.02 491.18 1289.34 489.39 1289.67 487.817C1289.99 486.244 1290.15 484.834 1290.26 483.586C1290.47 481.199 1290.26 479.626 1290.26 479.626C1289.99 477.511 1291.44 475.558 1293.48 475.287C1295.58 475.015 1297.51 476.48 1297.78 478.596C1297.94 479.897 1297.46 481.145 1296.54 482.013L1296.44 482.122C1296.44 482.122 1295.36 483.044 1294.07 484.997C1293.43 485.973 1292.67 487.166 1291.98 488.577C1291.28 490.041 1290.79 491.723 1290.2 493.621C1289.67 495.466 1289.07 497.527 1288.59 499.697C1288.11 501.867 1287.46 504.145 1287.14 506.586C1286.76 508.972 1286.23 511.468 1286.01 514.017C1285.74 516.567 1285.37 519.171 1285.26 521.774L1285.05 525.68C1285.05 526.982 1285.05 528.284 1285.05 529.585C1284.99 532.135 1285.1 534.684 1285.21 537.125C1285.31 539.566 1285.53 541.899 1285.69 544.177C1285.96 546.401 1286.17 548.517 1286.5 550.415C1287.09 554.267 1287.73 557.467 1288.27 559.691C1288.54 560.776 1288.75 561.644 1288.91 562.241C1289.07 562.837 1289.18 563.109 1289.18 563.109C1289.34 563.651 1289.02 564.193 1288.54 564.302C1288.05 564.465 1287.52 564.139 1287.36 563.651L1287.41 563.542Z" fill="url(#paint25_linear_97_53)"/>
<path d="M1289.02 559.474C1289.02 559.474 1288.8 559.257 1288.37 558.769C1287.94 558.281 1287.4 557.576 1286.65 556.708C1285.25 554.918 1283.16 552.314 1280.96 549.114C1279.77 547.486 1278.7 545.696 1277.41 543.798C1276.23 541.899 1274.94 539.892 1273.7 537.777C1272.52 535.661 1271.23 533.437 1270.05 531.105C1269.46 529.966 1268.87 528.772 1268.28 527.633L1266.61 524.053C1265.43 521.72 1264.52 519.279 1263.5 516.892C1262.42 514.506 1261.72 512.065 1260.81 509.786C1259.9 507.508 1259.36 505.176 1258.66 503.006C1257.96 500.836 1257.48 498.775 1256.99 496.822C1256.57 494.869 1256.03 493.134 1255.6 491.615C1255.17 490.042 1254.63 488.74 1254.15 487.6C1253.18 485.376 1252.27 484.129 1252.27 484.129C1251.03 482.393 1251.41 480.006 1253.07 478.759C1254.79 477.511 1257.16 477.891 1258.39 479.627C1259.14 480.711 1259.31 482.068 1258.88 483.207V483.315C1258.88 483.315 1258.34 484.671 1258.07 487.004C1257.91 488.143 1257.85 489.553 1257.91 491.181C1257.91 492.754 1258.34 494.544 1258.71 496.442C1259.09 498.341 1259.52 500.456 1260.16 502.572C1260.76 504.742 1261.24 507.02 1262.1 509.353C1262.9 511.685 1263.6 514.126 1264.57 516.459C1265.54 518.845 1266.4 521.286 1267.53 523.619L1269.14 527.145C1269.73 528.284 1270.32 529.423 1270.91 530.562C1272.04 532.84 1273.33 535.01 1274.56 537.126C1275.8 539.241 1277.09 541.194 1278.27 543.093C1279.51 544.937 1280.74 546.673 1281.92 548.246C1284.23 551.392 1286.33 553.887 1287.83 555.569C1288.59 556.382 1289.18 557.088 1289.61 557.467C1290.04 557.901 1290.25 558.118 1290.25 558.118C1290.63 558.498 1290.63 559.095 1290.25 559.474C1289.88 559.854 1289.28 559.854 1288.91 559.474H1289.02Z" fill="url(#paint26_linear_97_53)"/>
<path d="M1295.36 584.101C1295.36 584.101 1295.14 583.722 1294.71 583.017C1294.28 582.311 1293.75 581.227 1293.05 579.87C1291.65 577.158 1289.66 573.307 1287.62 568.479C1286.55 566.092 1285.58 563.434 1284.4 560.722C1283.32 557.901 1282.19 554.972 1281.12 551.88C1280.1 548.788 1278.97 545.588 1278.11 542.279C1277.63 540.652 1277.2 538.97 1276.71 537.288L1275.48 532.189C1274.57 528.826 1273.97 525.409 1273.28 522.046C1272.52 518.683 1272.2 515.32 1271.66 512.119C1271.07 508.919 1270.97 505.718 1270.59 502.789C1270.21 499.806 1270.16 496.985 1270.05 494.381C1270.05 491.777 1269.73 489.391 1269.51 487.221C1269.3 485.105 1269.03 483.207 1268.66 481.634C1267.96 478.487 1267.1 476.643 1267.1 476.643C1265.92 474.094 1267.04 471.056 1269.57 469.863C1272.09 468.669 1275.1 469.808 1276.28 472.358C1277.04 473.985 1276.88 475.775 1276.02 477.131L1275.91 477.294C1275.91 477.294 1274.94 478.921 1273.97 481.851C1273.49 483.315 1273.01 485.105 1272.68 487.221C1272.31 489.282 1272.36 491.669 1272.36 494.273C1272.36 496.876 1272.36 499.643 1272.63 502.626C1272.9 505.556 1272.9 508.702 1273.38 511.902C1273.81 515.103 1274.08 518.466 1274.78 521.775C1275.42 525.138 1275.96 528.501 1276.77 531.864L1278 536.909C1278.49 538.536 1278.97 540.218 1279.4 541.845C1280.31 545.1 1281.39 548.246 1282.41 551.338C1283.48 554.375 1284.61 557.305 1285.69 560.071C1286.87 562.783 1287.94 565.387 1289.07 567.72C1291.27 572.385 1293.32 576.182 1294.82 578.785C1295.57 580.087 1296.22 581.064 1296.65 581.715C1297.08 582.366 1297.35 582.745 1297.35 582.745C1297.72 583.342 1297.56 584.156 1296.97 584.535C1296.38 584.915 1295.63 584.752 1295.25 584.156C1295.25 584.156 1295.25 584.156 1295.25 584.101H1295.36Z" fill="url(#paint27_linear_97_53)"/>
<path d="M1293.96 581.281C1293.96 581.281 1293.8 580.847 1293.53 580.088C1293.26 579.328 1292.78 578.189 1292.24 576.779C1291.06 573.958 1289.4 569.944 1287.09 565.279C1286.01 562.892 1284.61 560.451 1283.22 557.793C1281.77 555.189 1280.32 552.423 1278.6 549.602C1276.88 546.836 1275.21 543.906 1273.22 541.14C1272.26 539.73 1271.34 538.265 1270.38 536.855L1267.31 532.678C1265.33 529.803 1263.12 527.145 1261.03 524.433C1258.99 521.72 1256.62 519.279 1254.53 516.784C1252.43 514.289 1250.12 512.119 1248.13 509.949C1246.09 507.78 1244 505.881 1242.06 504.091C1240.13 502.409 1238.46 500.619 1236.96 499.1C1235.45 497.582 1234.22 496.171 1233.31 494.869C1231.37 492.374 1230.51 490.53 1230.51 490.53C1229.33 487.98 1226.32 486.895 1223.8 488.089C1221.27 489.282 1220.2 492.32 1221.38 494.869C1222.13 496.442 1223.58 497.473 1225.19 497.744H1225.35C1225.35 497.744 1227.23 498.016 1230.03 499.209C1231.48 499.751 1233.14 500.565 1234.92 501.65C1236.74 502.735 1238.52 504.254 1240.45 505.935C1242.44 507.563 1244.53 509.407 1246.63 511.522C1248.73 513.584 1251.09 515.645 1253.18 518.086C1255.33 520.473 1257.7 522.86 1259.79 525.518C1261.94 528.121 1264.2 530.725 1266.19 533.546L1269.25 537.723C1270.22 539.133 1271.13 540.597 1272.1 542.008C1274.03 544.829 1275.7 547.703 1277.36 550.47C1279.03 553.236 1280.48 556.003 1281.87 558.607C1283.22 561.265 1284.45 563.76 1285.47 566.147C1287.62 570.866 1289.18 574.88 1290.15 577.701C1290.63 579.111 1291.01 580.25 1291.22 581.01C1291.44 581.769 1291.6 582.203 1291.6 582.203C1291.81 582.908 1292.51 583.288 1293.16 583.071C1293.8 582.854 1294.18 582.149 1294.02 581.498C1294.02 581.498 1294.02 581.498 1294.02 581.444L1293.96 581.281Z" fill="url(#paint28_linear_97_53)"/>
<path d="M1268.66 553.074C1268.66 553.074 1239.91 538.862 1211.6 544.286C1183.29 549.711 1169.96 561.644 1162.22 575.043C1171.52 570.378 1186.62 562.621 1203.59 565.17C1218.91 567.448 1231.96 577.158 1247.97 576.019C1263.98 574.88 1268.66 553.074 1268.66 553.074Z" fill="url(#paint29_radial_97_53)"/>
<path d="M1285.69 576.779C1285.69 576.779 1268.93 573.632 1250.82 583.668C1232.71 593.703 1200.96 608.674 1176.46 610.41C1171.95 604.118 1154.92 583.939 1162.33 572.276C1169.75 560.614 1205.48 560.722 1222.02 564.356C1235.35 561.102 1270.59 554.159 1285.69 576.779Z" fill="url(#paint30_radial_97_53)"/>
<path d="M1332.11 618.112C1332.11 618.112 1320.45 622.723 1299.44 599.507C1283.91 582.365 1245.07 574.88 1228.79 576.236C1228.79 576.236 1248.35 565.116 1264.63 552.531C1280.91 539.946 1288 534.793 1288 534.793C1288 534.793 1302.77 597.825 1332.16 618.112H1332.11Z" fill="#FFE9C7"/>
<path d="M1321.9 608.891C1323.89 612.254 1329.96 615.129 1332.11 618.112C1326.52 619.469 1318.57 616.431 1310.4 609.976C1299.76 595.275 1283.11 567.448 1281.39 554.918C1280.64 549.547 1282.25 543.038 1285.31 536.746C1287.09 535.444 1287.95 534.793 1287.95 534.793C1287.95 534.793 1299.28 583.288 1321.9 608.891Z" fill="#FFDDA8"/>
<path d="M1292.3 539.892C1292.3 539.892 1281.72 533.057 1273.23 538.428C1264.74 543.798 1259.1 554.05 1252.38 558.39C1245.66 562.729 1230.73 571.028 1228.74 576.236C1226.75 581.443 1233.58 591.262 1243.95 590.719C1282.74 564.682 1275.11 546.293 1292.25 539.838L1292.3 539.892Z" fill="url(#paint31_radial_97_53)"/>
<path d="M1332.11 618.113C1332.11 618.113 1321.37 618.981 1310.94 605.148C1300.52 591.316 1281.98 560.939 1280.21 547.758C1278.44 534.522 1290.31 514.94 1304.39 506.966C1304.39 506.966 1294.07 519.876 1299.34 546.619C1304.66 573.361 1317.28 599.941 1332.11 618.167V618.113Z" fill="url(#paint32_radial_97_53)"/>
<path d="M1280.91 551.013C1280.91 551.013 1288.86 535.824 1307.93 527.742C1327.01 519.713 1358.33 503.874 1374.93 485.594C1372.84 478.108 1367.79 452.125 1354.14 450.715C1340.49 449.358 1318.36 477.62 1310.89 492.971C1300.09 501.487 1272.74 525.084 1280.91 551.013Z" fill="url(#paint33_radial_97_53)"/>
<path d="M1501.23 594.354C1501.23 594.354 1506.07 546.998 1486.73 520.147C1467.39 493.296 1424.73 491.344 1424.73 491.344C1431.6 498.395 1434.72 507.671 1437.24 521.558C1439.72 535.39 1453.04 552.477 1467.01 559.963C1480.98 567.448 1497.36 583.83 1501.23 594.354Z" fill="url(#paint34_linear_97_53)"/>
<path d="M1514.51 591.37C1514.51 591.37 1534.49 548.246 1564.79 535.281C1595.04 522.317 1632.65 542.767 1632.65 542.767C1623.14 545.262 1615.73 551.609 1606.54 562.187C1597.35 572.764 1577.26 580.467 1561.41 579.653C1545.61 578.84 1523.26 584.373 1514.51 591.424V591.37Z" fill="url(#paint35_radial_97_53)"/>
<path d="M1498.98 615.943C1498.98 615.943 1536.48 577.484 1560.45 559.637C1597.46 532.081 1608.32 491.072 1608.32 491.072C1595.69 498.883 1592.31 501.596 1586.18 500.999C1580.11 500.456 1572.43 502.735 1565.44 504.687C1558.51 506.64 1551.31 476.535 1541.1 477.999C1530.84 479.464 1525.2 482.935 1521.66 478.596C1518.11 474.256 1502.21 461.78 1496.62 461.672C1498.55 468.669 1499.9 480.169 1488.56 486.95C1477.22 493.676 1470.13 516.838 1475.45 540.977C1480.77 565.116 1498.93 616.051 1498.93 616.051L1498.98 615.943Z" fill="url(#paint36_linear_97_53)"/>
<path d="M1496.4 616.865C1496.4 616.865 1496.56 616.485 1496.88 615.78C1497.21 615.075 1497.74 614.044 1498.39 612.742C1499.73 610.193 1501.61 606.504 1504.19 602.273C1505.43 600.157 1506.93 597.933 1508.43 595.547C1509.99 593.214 1511.6 590.719 1513.43 588.224C1515.26 585.728 1517.08 583.125 1519.13 580.629C1520.15 579.382 1521.17 578.08 1522.19 576.832L1525.41 573.089C1527.51 570.54 1529.82 568.207 1532.02 565.875C1534.17 563.488 1536.59 561.427 1538.74 559.203C1540.88 556.979 1543.25 555.189 1545.34 553.29C1547.44 551.392 1549.53 549.764 1551.52 548.3C1553.51 546.835 1555.18 545.316 1556.73 544.014C1558.29 542.712 1559.53 541.465 1560.55 540.326C1562.59 538.102 1563.5 536.42 1563.5 536.42C1564.85 534.088 1567.75 533.328 1570.06 534.684C1572.37 536.04 1573.12 538.97 1571.78 541.248C1570.97 542.713 1569.47 543.526 1567.96 543.635H1567.8C1567.8 543.635 1566.03 543.743 1563.29 544.611C1561.89 545.045 1560.28 545.642 1558.45 546.51C1556.68 547.378 1554.85 548.679 1552.87 550.09C1550.88 551.5 1548.73 553.019 1546.63 554.863C1544.48 556.653 1542.12 558.389 1539.92 560.505C1537.72 562.566 1535.3 564.627 1533.09 566.96C1530.89 569.238 1528.53 571.516 1526.43 574.011L1523.26 577.7C1522.24 578.948 1521.27 580.25 1520.25 581.497C1518.21 583.992 1516.44 586.596 1514.61 589.037C1512.84 591.533 1511.23 594.028 1509.72 596.36C1508.27 598.747 1506.88 601.025 1505.75 603.195C1503.33 607.426 1501.56 611.115 1500.38 613.718C1499.78 615.02 1499.35 616.051 1499.09 616.756C1498.82 617.461 1498.66 617.841 1498.66 617.841C1498.44 618.492 1497.74 618.763 1497.1 618.546C1496.51 618.329 1496.18 617.624 1496.45 616.973L1496.4 616.865Z" fill="url(#paint37_linear_97_53)"/>
<path d="M1496.77 614.261C1496.77 614.261 1496.83 613.936 1496.99 613.339C1497.15 612.742 1497.37 611.874 1497.69 610.79C1498.33 608.62 1499.19 605.473 1500.54 601.839C1501.18 599.995 1501.99 598.042 1502.74 595.981C1503.6 593.919 1504.46 591.75 1505.42 589.58C1506.45 587.41 1507.47 585.078 1508.65 582.854C1509.24 581.714 1509.83 580.575 1510.42 579.436L1512.3 576.073C1513.54 573.795 1514.93 571.625 1516.28 569.509C1517.57 567.34 1519.12 565.333 1520.47 563.326C1521.81 561.319 1523.32 559.528 1524.66 557.738C1525.95 555.948 1527.34 554.375 1528.63 552.911C1529.92 551.5 1531 550.036 1531.97 548.788C1532.93 547.54 1533.74 546.401 1534.33 545.371C1535.51 543.364 1535.99 541.899 1535.99 541.899C1536.64 539.946 1538.79 538.861 1540.78 539.512C1542.71 540.163 1543.79 542.333 1543.14 544.34C1542.71 545.588 1541.74 546.456 1540.56 546.781H1540.45C1540.45 546.781 1539.11 547.161 1537.12 548.3C1536.1 548.842 1534.97 549.547 1533.68 550.524C1532.45 551.446 1531.27 552.748 1529.92 554.158C1528.63 555.569 1527.18 557.087 1525.84 558.769C1524.5 560.505 1522.94 562.186 1521.54 564.139C1520.15 566.092 1518.64 568.045 1517.3 570.16C1515.95 572.276 1514.5 574.391 1513.27 576.615L1511.39 579.979C1510.8 581.118 1510.21 582.257 1509.67 583.342C1508.49 585.566 1507.52 587.844 1506.5 590.014C1505.53 592.184 1504.67 594.353 1503.87 596.415C1503.11 598.476 1502.42 600.429 1501.82 602.273C1500.64 605.908 1499.84 608.999 1499.3 611.169C1499.08 612.254 1498.87 613.122 1498.76 613.665C1498.65 614.261 1498.6 614.587 1498.6 614.587C1498.49 615.129 1498.01 615.455 1497.53 615.346C1497.04 615.238 1496.67 614.749 1496.77 614.261Z" fill="url(#paint38_linear_97_53)"/>
<path d="M1498.92 600.538C1498.92 600.538 1498.92 600.212 1498.87 599.67C1498.87 599.073 1498.76 598.205 1498.65 597.12C1498.44 594.951 1498.17 591.859 1497.53 588.17C1497.26 586.326 1496.83 584.373 1496.45 582.257C1496.02 580.196 1495.59 577.972 1495 575.694C1494.41 573.416 1493.87 571.083 1493.12 568.751C1492.8 567.557 1492.42 566.364 1492.05 565.225L1490.81 561.699C1490.06 559.312 1489.09 557.034 1488.23 554.755C1487.43 552.477 1486.3 550.307 1485.38 548.192C1484.47 546.022 1483.34 544.069 1482.43 542.171C1481.52 540.218 1480.5 538.482 1479.53 536.909C1478.56 535.336 1477.81 533.763 1477.06 532.407C1476.36 531.051 1475.82 529.803 1475.44 528.718C1474.64 526.603 1474.42 525.138 1474.42 525.138C1474.16 523.131 1472.33 521.775 1470.34 522.046C1468.35 522.317 1467.01 524.162 1467.28 526.169C1467.44 527.416 1468.25 528.447 1469.27 528.935H1469.37C1469.37 528.935 1470.61 529.586 1472.27 530.996C1473.13 531.701 1474.1 532.569 1475.12 533.708C1476.14 534.848 1477.06 536.258 1478.02 537.831C1478.99 539.404 1480.07 541.086 1481.09 542.93C1482.05 544.774 1483.24 546.673 1484.2 548.788C1485.17 550.85 1486.3 553.02 1487.16 555.244C1488.07 557.468 1489.04 559.746 1489.84 562.078L1491.03 565.55C1491.4 566.743 1491.72 567.937 1492.1 569.076C1492.8 571.409 1493.39 573.741 1493.93 575.965C1494.46 578.243 1494.89 580.413 1495.32 582.474C1495.7 584.536 1496.02 586.543 1496.24 588.387C1496.72 592.076 1496.94 595.113 1497.04 597.283C1497.04 598.368 1497.1 599.182 1497.1 599.778C1497.1 600.375 1497.1 600.646 1497.1 600.646C1497.1 601.189 1497.47 601.568 1498.01 601.568C1498.49 601.568 1498.92 601.189 1498.92 600.646V600.538Z" fill="url(#paint39_linear_97_53)"/>
<path d="M1496.4 597.283C1496.4 597.283 1496.51 597.012 1496.78 596.47C1497.04 595.927 1497.37 595.114 1497.8 594.137C1498.6 592.13 1499.84 589.255 1500.97 585.729C1501.61 583.993 1502.15 581.986 1502.79 579.979C1503.38 577.918 1504.03 575.748 1504.57 573.524C1505.1 571.246 1505.69 568.913 1506.12 566.527C1506.34 565.333 1506.61 564.086 1506.82 562.892L1507.41 559.204C1507.84 556.763 1508.11 554.267 1508.38 551.826C1508.7 549.385 1508.7 546.999 1508.97 544.666C1509.19 542.334 1509.08 540.055 1509.19 537.94C1509.24 535.77 1509.19 533.763 1509.08 531.919C1508.97 530.02 1509.02 528.339 1509.02 526.765C1509.02 525.247 1509.13 523.891 1509.29 522.751C1509.62 520.473 1510.1 519.117 1510.1 519.117C1510.8 517.218 1509.83 515.157 1507.95 514.452C1506.07 513.747 1503.97 514.723 1503.33 516.622C1502.9 517.815 1503.11 519.063 1503.81 519.985V520.093C1503.81 520.093 1504.67 521.178 1505.53 523.24C1505.96 524.27 1506.39 525.518 1506.77 526.982C1507.14 528.447 1507.25 530.129 1507.41 531.973C1507.57 533.817 1507.74 535.824 1507.74 537.94C1507.74 540.055 1507.9 542.279 1507.74 544.612C1507.63 546.944 1507.63 549.331 1507.31 551.718C1507.09 554.159 1506.88 556.6 1506.45 559.041L1505.85 562.675C1505.64 563.869 1505.37 565.062 1505.16 566.255C1504.73 568.642 1504.08 570.975 1503.54 573.199C1502.95 575.423 1502.31 577.593 1501.72 579.6C1501.07 581.607 1500.43 583.505 1499.73 585.241C1498.44 588.713 1497.2 591.533 1496.29 593.486C1495.81 594.463 1495.43 595.222 1495.16 595.71C1494.89 596.198 1494.73 596.47 1494.73 596.47C1494.52 596.958 1494.68 597.5 1495.11 597.717C1495.54 597.934 1496.08 597.772 1496.35 597.338L1496.4 597.283Z" fill="url(#paint40_linear_97_53)"/>
<path d="M1497.04 621.313C1497.04 621.313 1497.15 620.934 1497.31 620.174C1497.53 619.415 1497.74 618.276 1498.01 616.865C1498.55 613.99 1499.35 609.976 1500 605.04C1500.37 602.599 1500.54 599.941 1500.91 597.12C1501.13 594.3 1501.45 591.316 1501.56 588.224C1501.66 585.132 1501.88 581.986 1501.83 578.732C1501.83 577.104 1501.83 575.477 1501.83 573.849L1501.61 568.913C1501.61 565.604 1501.23 562.35 1500.97 559.095C1500.8 555.84 1500.16 552.694 1499.84 549.656C1499.52 546.564 1498.82 543.635 1498.39 540.869C1497.96 538.048 1497.26 535.444 1496.67 533.058C1496.02 530.671 1495.65 528.393 1495.27 526.44C1494.89 524.433 1494.68 522.643 1494.63 521.178C1494.41 518.14 1494.73 516.242 1494.73 516.242C1495.11 513.638 1493.34 511.143 1490.7 510.763C1488.07 510.383 1485.65 512.173 1485.28 514.777C1485.01 516.405 1485.65 518.032 1486.78 519.063L1486.89 519.171C1486.89 519.171 1488.23 520.364 1489.84 522.805C1490.65 523.999 1491.56 525.518 1492.42 527.362C1493.28 529.152 1493.87 531.322 1494.52 533.654C1495.22 535.987 1495.92 538.536 1496.45 541.303C1496.99 544.069 1497.8 546.944 1498.17 549.928C1498.6 552.965 1499.25 556.057 1499.46 559.258C1499.73 562.458 1500.16 565.713 1500.27 568.967L1500.48 573.849C1500.48 575.477 1500.48 577.104 1500.48 578.732C1500.48 581.932 1500.32 585.078 1500.21 588.17C1500.05 591.208 1499.73 594.191 1499.51 596.958C1499.14 599.724 1498.82 602.382 1498.39 604.769C1497.63 609.597 1496.72 613.556 1496.02 616.323C1495.65 617.679 1495.38 618.764 1495.16 619.469C1494.95 620.174 1494.79 620.554 1494.79 620.554C1494.57 621.205 1494.95 621.91 1495.54 622.073C1496.18 622.29 1496.83 621.91 1497.04 621.259C1497.04 621.259 1497.04 621.259 1497.04 621.205V621.313Z" fill="url(#paint41_linear_97_53)"/>
<path d="M1497.58 618.438C1497.58 618.438 1497.58 618.004 1497.69 617.245C1497.69 616.486 1497.85 615.292 1498.01 613.882C1498.33 611.007 1498.82 606.884 1499.73 602.057C1500.11 599.616 1500.75 597.012 1501.29 594.245C1501.93 591.479 1502.52 588.604 1503.33 585.566C1504.13 582.583 1504.94 579.491 1505.96 576.453C1506.44 574.88 1506.93 573.361 1507.47 571.788L1509.19 567.177C1510.21 564.031 1511.55 561.048 1512.78 558.01C1513.91 554.972 1515.47 552.152 1516.71 549.331C1517.94 546.51 1519.5 543.961 1520.74 541.411C1522.03 538.862 1523.42 536.583 1524.71 534.468C1526.06 532.407 1527.08 530.345 1528.04 528.609C1529.01 526.819 1529.76 525.192 1530.3 523.782C1531.37 520.961 1531.7 519.063 1531.7 519.063C1532.13 516.405 1534.6 514.669 1537.18 515.048C1539.81 515.482 1541.58 517.923 1541.15 520.581C1540.88 522.209 1539.81 523.565 1538.41 524.216H1538.25C1538.25 524.216 1536.64 525.029 1534.38 526.819C1533.2 527.687 1531.91 528.881 1530.57 530.345C1529.22 531.81 1527.99 533.654 1526.65 535.715C1525.3 537.777 1523.85 539.947 1522.51 542.388C1521.17 544.829 1519.55 547.324 1518.26 550.09C1516.92 552.857 1515.42 555.623 1514.18 558.607C1512.95 561.536 1511.55 564.519 1510.47 567.611L1508.81 572.222C1508.33 573.795 1507.84 575.314 1507.36 576.833C1506.34 579.871 1505.59 582.962 1504.78 585.892C1504.03 588.875 1503.38 591.75 1502.79 594.517C1502.25 597.283 1501.77 599.887 1501.45 602.328C1500.7 607.155 1500.37 611.224 1500.21 614.099C1500.16 615.509 1500.11 616.648 1500.11 617.408C1500.11 618.167 1500.11 618.547 1500.11 618.547C1500.11 619.252 1499.57 619.74 1498.92 619.74C1498.28 619.74 1497.74 619.198 1497.74 618.547C1497.74 618.547 1497.74 618.547 1497.74 618.493L1497.58 618.438Z" fill="url(#paint42_linear_97_53)"/>
<path d="M1513.27 586.054C1513.27 586.054 1535.68 565.495 1562.81 562.892C1589.94 560.288 1605.2 567.611 1615.73 577.754C1606.06 575.964 1590.32 572.927 1575.54 579.762C1562.22 585.891 1552.87 598.205 1538.04 601.405C1523.16 604.606 1513.27 586.054 1513.27 586.054Z" fill="url(#paint43_radial_97_53)"/>
<path d="M1503.97 612.146C1503.97 612.146 1518.37 604.823 1537.44 609.162C1556.52 613.502 1589.29 618.655 1612.02 613.719C1614.49 606.776 1624.7 583.939 1614.92 575.314C1605.14 566.689 1572.69 576.236 1558.61 583.939C1545.66 584.535 1511.76 587.573 1503.97 612.092V612.146Z" fill="url(#paint44_radial_97_53)"/>
<path d="M1472.55 661.996C1472.55 661.996 1484.37 663.135 1497.42 636.393C1507.09 616.702 1540.46 599.561 1555.61 596.469C1555.61 596.469 1534.98 591.532 1516.87 584.426C1498.77 577.32 1491.03 574.5 1491.03 574.5C1491.03 574.5 1494.04 635.742 1472.6 661.942L1472.55 661.996Z" fill="#FFE9C7"/>
<path d="M1479.37 650.931C1478.4 654.511 1473.67 658.742 1472.49 662.051C1477.92 661.834 1484.36 656.897 1490.06 648.923C1495.92 632.759 1503.81 602.978 1502.09 591.153C1501.34 586.054 1498.23 580.575 1493.82 575.639C1491.89 574.934 1490.92 574.554 1490.92 574.554C1490.92 574.554 1493.23 621.638 1479.37 650.876V650.931Z" fill="#FFDDA8"/>
<path d="M1488.34 580.359C1488.34 580.359 1496.18 571.354 1505.26 574.012C1514.4 576.67 1522.13 584.427 1529.39 586.597C1536.64 588.767 1552.38 592.347 1555.55 596.524C1558.72 600.755 1555.07 611.495 1545.5 613.773C1503.44 600.375 1505.64 581.661 1488.34 580.359Z" fill="url(#paint45_radial_97_53)"/>
<path d="M1472.55 661.997C1472.55 661.997 1482.54 659.935 1488.45 644.584C1494.3 629.233 1503.28 596.741 1501.4 584.264C1499.57 571.788 1483.67 557.088 1468.84 553.616C1468.84 553.616 1481.57 562.621 1483.72 588.333C1485.87 614.045 1481.25 641.546 1472.55 662.051V661.997Z" fill="url(#paint46_radial_97_53)"/>
<path d="M1501.61 587.411C1501.61 587.411 1490.44 575.694 1470.99 573.416C1451.59 571.138 1418.98 565.116 1399.1 552.857C1399.05 545.48 1396.85 520.528 1408.93 515.646C1420.97 510.764 1448.48 530.617 1459.22 542.551C1471.26 547.433 1502.26 561.591 1501.56 587.357L1501.61 587.411Z" fill="url(#paint47_radial_97_53)"/>
<defs>
<linearGradient id="paint0_linear_97_53" x1="1466.16" y1="641.329" x2="1447.93" y2="758.987" gradientUnits="userSpaceOnUse">
<stop stop-color="#AFD132"/>
<stop offset="1" stop-color="#697D2F"/>
</linearGradient>
<linearGradient id="paint1_linear_97_53" x1="1566.24" y1="673.584" x2="1497.94" y2="790.085" gradientUnits="userSpaceOnUse">
<stop stop-color="#AAB03E"/>
<stop offset="1" stop-color="#697D2F"/>
</linearGradient>
<linearGradient id="paint2_linear_97_53" x1="1293.21" y1="769.021" x2="1381.85" y2="870.538" gradientUnits="userSpaceOnUse">
<stop stop-color="#879E3C"/>
<stop offset="1" stop-color="#496E29"/>
</linearGradient>
<linearGradient id="paint3_linear_97_53" x1="1241.74" y1="326.982" x2="1386.2" y2="580.746" gradientUnits="userSpaceOnUse">
<stop stop-color="#879E3C"/>
<stop offset="1" stop-color="#496E29"/>
</linearGradient>
<linearGradient id="paint4_linear_97_53" x1="1443.69" y1="482.176" x2="1419.83" y2="636.162" gradientUnits="userSpaceOnUse">
<stop stop-color="#AFD132"/>
<stop offset="1" stop-color="#697D2F"/>
</linearGradient>
<linearGradient id="paint5_linear_97_53" x1="1412.64" y1="369.348" x2="1378.1" y2="336.481" gradientUnits="userSpaceOnUse">
<stop stop-color="#FFF1C9"/>
<stop offset="1" stop-color="white"/>
</linearGradient>
<radialGradient id="paint6_radial_97_53" cx="0" cy="0" r="1" gradientUnits="userSpaceOnUse" gradientTransform="translate(1508 391.751) scale(57.9172 58.4756)">
<stop stop-color="#FFF1C9"/>
<stop offset="1" stop-color="white"/>
</radialGradient>
<linearGradient id="paint7_linear_97_53" x1="1451.97" y1="430.319" x2="1468.98" y2="371.821" gradientUnits="userSpaceOnUse">
<stop stop-color="#FFF1C9"/>
<stop offset="1" stop-color="white"/>
</linearGradient>
<linearGradient id="paint8_linear_97_53" x1="1489.44" y1="367.792" x2="1465.34" y2="445.275" gradientUnits="userSpaceOnUse">
<stop stop-color="#FFDB26"/>
<stop offset="1" stop-color="#4B9916"/>
</linearGradient>
<linearGradient id="paint9_linear_97_53" x1="1475.69" y1="363.545" x2="1451.59" y2="440.975" gradientUnits="userSpaceOnUse">
<stop stop-color="#FFDB26"/>
<stop offset="1" stop-color="#4B9916"/>
</linearGradient>
<linearGradient id="paint10_linear_97_53" x1="1435.48" y1="351.03" x2="1411.32" y2="428.455" gradientUnits="userSpaceOnUse">
<stop stop-color="#FFDB26"/>
<stop offset="1" stop-color="#4B9916"/>
</linearGradient>
<linearGradient id="paint11_linear_97_53" x1="1449.76" y1="355.468" x2="1425.66" y2="432.897" gradientUnits="userSpaceOnUse">
<stop stop-color="#FFDB26"/>
<stop offset="1" stop-color="#4B9916"/>
</linearGradient>
<linearGradient id="paint12_linear_97_53" x1="1444.78" y1="353.94" x2="1420.68" y2="431.37" gradientUnits="userSpaceOnUse">
<stop stop-color="#FFDB26"/>
<stop offset="1" stop-color="#4B9916"/>
</linearGradient>
<linearGradient id="paint13_linear_97_53" x1="1469.28" y1="361.558" x2="1445.19" y2="438.987" gradientUnits="userSpaceOnUse">
<stop stop-color="#FFDB26"/>
<stop offset="1" stop-color="#4B9916"/>
</linearGradient>
<radialGradient id="paint14_radial_97_53" cx="0" cy="0" r="1" gradientUnits="userSpaceOnUse" gradientTransform="translate(1462.5 407.916) scale(32.5045 32.8179)">
<stop stop-color="#FFF1C9"/>
<stop offset="1" stop-color="white"/>
</radialGradient>
<radialGradient id="paint15_radial_97_53" cx="0" cy="0" r="1" gradientUnits="userSpaceOnUse" gradientTransform="translate(1443.58 441.199) rotate(-168.019) scale(79.6015 80.3032)">
<stop stop-color="#FFF1C9"/>
<stop offset="1" stop-color="white"/>
</radialGradient>
<radialGradient id="paint16_radial_97_53" cx="0" cy="0" r="1" gradientUnits="userSpaceOnUse" gradientTransform="translate(1502.72 444.484) rotate(3.2005) scale(49.3761 49.8491)">
<stop stop-color="#FFF1C9"/>
<stop offset="1" stop-color="white"/>
</radialGradient>
<radialGradient id="paint17_radial_97_53" cx="0" cy="0" r="1" gradientUnits="userSpaceOnUse" gradientTransform="translate(1419.22 507.072) rotate(3.20049) scale(21.3839 21.5887)">
<stop stop-color="#80CF55"/>
<stop offset="1" stop-color="#FFE9C7"/>
</radialGradient>
<radialGradient id="paint18_radial_97_53" cx="0" cy="0" r="1" gradientUnits="userSpaceOnUse" gradientTransform="translate(1445.91 416.859) rotate(3.2005) scale(79.5713 80.3337)">
<stop stop-color="#FFF1C9"/>
<stop offset="1" stop-color="white"/>
</radialGradient>
<linearGradient id="paint19_linear_97_53" x1="1291.11" y1="615.058" x2="1359.66" y2="748.494" gradientUnits="userSpaceOnUse">
<stop stop-color="#AFD132"/>
<stop offset="1" stop-color="#829A3A"/>
</linearGradient>
<linearGradient id="paint20_linear_97_53" x1="1294.2" y1="493.741" x2="1316.72" y2="451.519" gradientUnits="userSpaceOnUse">
<stop stop-color="#FFF1C9"/>
<stop offset="1" stop-color="white"/>
</linearGradient>
<radialGradient id="paint21_radial_97_53" cx="0" cy="0" r="1" gradientUnits="userSpaceOnUse" gradientTransform="translate(1210.58 545.169) rotate(161.586) scale(57.9722 58.4201)">
<stop stop-color="#FFF1C9"/>
<stop offset="1" stop-color="white"/>
</radialGradient>
<linearGradient id="paint22_linear_97_53" x1="1275.76" y1="564.079" x2="1241.28" y2="514.033" gradientUnits="userSpaceOnUse">
<stop stop-color="#FFF1C9"/>
<stop offset="1" stop-color="white"/>
</linearGradient>
<linearGradient id="paint23_linear_97_53" x1="1221.11" y1="517.765" x2="1268.27" y2="583.501" gradientUnits="userSpaceOnUse">
<stop stop-color="#FFDB26"/>
<stop offset="1" stop-color="#4B9916"/>
</linearGradient>
<linearGradient id="paint24_linear_97_53" x1="1232.84" y1="509.33" x2="1280.01" y2="575.116" gradientUnits="userSpaceOnUse">
<stop stop-color="#FFDB26"/>
<stop offset="1" stop-color="#4B9916"/>
</linearGradient>
<linearGradient id="paint25_linear_97_53" x1="1267.19" y1="484.704" x2="1314.37" y2="550.49" gradientUnits="userSpaceOnUse">
<stop stop-color="#FFDB26"/>
<stop offset="1" stop-color="#4B9916"/>
</linearGradient>
<linearGradient id="paint26_linear_97_53" x1="1254.97" y1="493.508" x2="1302.12" y2="559.244" gradientUnits="userSpaceOnUse">
<stop stop-color="#FFDB26"/>
<stop offset="1" stop-color="#4B9916"/>
</linearGradient>
<linearGradient id="paint27_linear_97_53" x1="1259.2" y1="490.434" x2="1306.37" y2="556.22" gradientUnits="userSpaceOnUse">
<stop stop-color="#FFDB26"/>
<stop offset="1" stop-color="#4B9916"/>
</linearGradient>
<linearGradient id="paint28_linear_97_53" x1="1238.36" y1="505.397" x2="1285.51" y2="571.133" gradientUnits="userSpaceOnUse">
<stop stop-color="#FFDB26"/>
<stop offset="1" stop-color="#4B9916"/>
</linearGradient>
<radialGradient id="paint29_radial_97_53" cx="0" cy="0" r="1" gradientUnits="userSpaceOnUse" gradientTransform="translate(1258.76 546.15) rotate(161.586) scale(32.5354 32.7868)">
<stop stop-color="#FFF1C9"/>
<stop offset="1" stop-color="white"/>
</radialGradient>
<radialGradient id="paint30_radial_97_53" cx="0" cy="0" r="1" gradientUnits="userSpaceOnUse" gradientTransform="translate(1286.9 573.264) rotate(-30.3593) scale(79.7628 80.1409)">
<stop stop-color="#FFF1C9"/>
<stop offset="1" stop-color="white"/>
</radialGradient>
<radialGradient id="paint31_radial_97_53" cx="0" cy="0" r="1" gradientUnits="userSpaceOnUse" gradientTransform="translate(1232.29 594.746) rotate(158.382) scale(49.4385 49.7864)">
<stop stop-color="#FFF1C9"/>
<stop offset="1" stop-color="white"/>
</radialGradient>
<radialGradient id="paint32_radial_97_53" cx="0" cy="0" r="1" gradientUnits="userSpaceOnUse" gradientTransform="translate(1331.01 627.768) rotate(158.382) scale(21.4108 21.5614)">
<stop stop-color="#80CF55"/>
<stop offset="1" stop-color="#FFE9C7"/>
</radialGradient>
<radialGradient id="paint33_radial_97_53" cx="0" cy="0" r="1" gradientUnits="userSpaceOnUse" gradientTransform="translate(1277.69 550.591) rotate(158.382) scale(79.6718 80.2324)">
<stop stop-color="#FFF1C9"/>
<stop offset="1" stop-color="white"/>
</radialGradient>
<linearGradient id="paint34_linear_97_53" x1="1474.76" y1="539.35" x2="1443.18" y2="507.001" gradientUnits="userSpaceOnUse">
<stop stop-color="#FFF1C9"/>
<stop offset="1" stop-color="white"/>
</linearGradient>
<radialGradient id="paint35_radial_97_53" cx="0" cy="0" r="1" gradientUnits="userSpaceOnUse" gradientTransform="translate(1564.13 563.914) rotate(2.14042) scale(54.8017 55.3287)">
<stop stop-color="#FFF1C9"/>
<stop offset="1" stop-color="white"/>
</radialGradient>
<linearGradient id="paint36_linear_97_53" x1="1509.81" y1="598.361" x2="1527.99" y2="543.711" gradientUnits="userSpaceOnUse">
<stop stop-color="#FFF1C9"/>
<stop offset="1" stop-color="white"/>
</linearGradient>
<linearGradient id="paint37_linear_97_53" x1="1547.39" y1="540.49" x2="1521.91" y2="612.847" gradientUnits="userSpaceOnUse">
<stop stop-color="#FFDB26"/>
<stop offset="1" stop-color="#4B9916"/>
</linearGradient>
<linearGradient id="paint38_linear_97_53" x1="1534.59" y1="535.916" x2="1509.05" y2="608.322" gradientUnits="userSpaceOnUse">
<stop stop-color="#FFDB26"/>
<stop offset="1" stop-color="#4B9916"/>
</linearGradient>
<linearGradient id="paint39_linear_97_53" x1="1496.96" y1="522.648" x2="1471.42" y2="595.053" gradientUnits="userSpaceOnUse">
<stop stop-color="#FFDB26"/>
<stop offset="1" stop-color="#4B9916"/>
</linearGradient>
<linearGradient id="paint40_linear_97_53" x1="1510.34" y1="527.385" x2="1484.8" y2="599.736" gradientUnits="userSpaceOnUse">
<stop stop-color="#FFDB26"/>
<stop offset="1" stop-color="#4B9916"/>
</linearGradient>
<linearGradient id="paint41_linear_97_53" x1="1505.69" y1="525.751" x2="1480.15" y2="598.103" gradientUnits="userSpaceOnUse">
<stop stop-color="#FFDB26"/>
<stop offset="1" stop-color="#4B9916"/>
</linearGradient>
<linearGradient id="paint42_linear_97_53" x1="1528.52" y1="533.824" x2="1503.04" y2="606.181" gradientUnits="userSpaceOnUse">
<stop stop-color="#FFDB26"/>
<stop offset="1" stop-color="#4B9916"/>
</linearGradient>
<radialGradient id="paint43_radial_97_53" cx="0" cy="0" r="1" gradientUnits="userSpaceOnUse" gradientTransform="translate(1520.57 577.593) rotate(2.14042) scale(30.7856 31.0817)">
<stop stop-color="#FFF1C9"/>
<stop offset="1" stop-color="white"/>
</radialGradient>
<radialGradient id="paint44_radial_97_53" cx="0" cy="0" r="1" gradientUnits="userSpaceOnUse" gradientTransform="translate(1501.22 608.804) rotate(-165.881) scale(75.3671 76.0076)">
<stop stop-color="#FFF1C9"/>
<stop offset="1" stop-color="white"/>
</radialGradient>
<radialGradient id="paint45_radial_97_53" cx="0" cy="0" r="1" gradientUnits="userSpaceOnUse" gradientTransform="translate(1557.32 613.437) rotate(5.34072) scale(46.7459 47.1889)">
<stop stop-color="#FFF1C9"/>
<stop offset="1" stop-color="white"/>
</radialGradient>
<radialGradient id="paint46_radial_97_53" cx="0" cy="0" r="1" gradientUnits="userSpaceOnUse" gradientTransform="translate(1476.2 669.645) rotate(5.34071) scale(20.2028 20.3942)">
<stop stop-color="#80CF55"/>
<stop offset="1" stop-color="#FFE9C7"/>
</radialGradient>
<radialGradient id="paint47_radial_97_53" cx="0" cy="0" r="1" gradientUnits="userSpaceOnUse" gradientTransform="translate(1504.54 585.297) rotate(5.3407) scale(75.277 75.9902)">
<stop stop-color="#FFF1C9"/>
<stop offset="1" stop-color="white"/>
</radialGradient>
</defs>
</svg>
