<svg width="1652" height="460" viewBox="0 0 1652 460" fill="none" xmlns="http://www.w3.org/2000/svg">
<rect width="1644.64" height="451.743" fill="url(#paint0_linear_80_604)"/>
<path d="M1642.63 338.556C1642.08 338.917 1641.44 339.162 1640.84 339.465C1636.28 341.369 1631.46 342.827 1626.78 344.46C1621.54 346.299 1616.68 348.605 1611.74 350.949C1610.55 351.555 1611.46 351.757 1612.02 352.051C1611.7 352.299 1611.44 352.759 1610.98 352.832C1611.49 352.818 1611.75 352.357 1612.02 352.051C1614.53 352.017 1616.66 352.925 1618.99 353.314C1620.96 353.641 1622.52 354.505 1623.78 355.77C1624.65 356.569 1624.59 357.263 1623.48 357.831C1622.71 358.306 1621.84 358.413 1620.86 358.5C1617.43 358.583 1614.02 358.164 1610.8 357.478C1609.77 357.256 1608.72 356.879 1607.69 356.657C1606.42 356.394 1606.26 355.313 1605.46 354.727C1605.09 354.665 1604.72 354.604 1604.35 354.542C1601.54 356.386 1598.13 357.626 1595.27 359.412C1594.35 359.962 1593.4 360.609 1592.19 360.809C1592.17 360.655 1592.2 360.558 1592.17 360.404C1592.15 360.5 1592.17 360.655 1592.19 360.809C1591.97 360.923 1591.72 361.132 1591.55 361.304C1590.53 361.989 1589.46 362.615 1588.44 363.299C1587.82 363.698 1588.13 363.952 1588.67 364.092C1589.04 363.903 1589.34 364.002 1589.71 364.064C1590.35 363.819 1590.94 363.767 1591.38 364.292C1591.89 364.278 1592.46 364.071 1592.98 364.307C1593.2 364.194 1593.37 364.272 1593.54 364.351C1595.16 364.772 1596.6 365.364 1597.64 366.493C1598.59 367.505 1598.3 368.562 1596.99 369.148C1596.39 369.451 1595.65 369.578 1594.99 369.668C1592.67 369.936 1590.35 369.952 1588.12 369.429C1585.35 368.766 1582.39 369.027 1579.75 368.134C1579.16 367.935 1578.69 368.259 1578.24 368.486C1576.87 369.263 1575.51 370.041 1574.05 370.702C1570.85 372.079 1567.96 373.96 1564.82 375.396C1564.52 375.547 1564.22 375.699 1564.31 376.066C1564.36 376.375 1564.8 376.399 1565.09 376.498C1566.1 376.816 1567.22 376.248 1568.14 376.855C1568.34 376.837 1568.54 376.82 1568.63 376.937C1570.46 376.839 1571.3 377.734 1572.1 378.821C1572.29 379.055 1572.41 379.326 1572.28 379.556C1572.54 380.253 1572.51 380.85 1571.74 381.325C1571.71 381.421 1571.57 381.497 1571.49 381.535C1571.39 381.919 1571.16 382.033 1570.67 381.951C1570.25 382.082 1569.95 382.234 1569.53 382.364C1569.36 382.536 1569.19 382.458 1569.02 382.379C1568.87 382.454 1568.79 382.492 1568.62 382.414C1567.54 382.635 1566.42 382.952 1565.3 382.613C1563.91 383.236 1562.56 382.51 1561.19 382.381C1561.02 382.302 1560.97 382.244 1560.8 382.165C1559.79 382.348 1558.95 382.109 1558.3 381.447C1558.18 381.426 1558.05 381.406 1557.96 381.289C1557.32 381.283 1556.88 381.009 1556.59 380.659C1556.15 380.134 1555.63 380.148 1554.99 380.393C1554.62 380.582 1554.2 380.713 1553.9 380.864C1548.32 383.704 1542.74 386.543 1537.15 389.382C1536.04 389.95 1534.97 390.576 1533.85 391.144C1533.63 391.257 1533.45 391.429 1533.57 391.7C1533.72 391.875 1533.91 392.109 1534.26 392.016C1536.28 391.649 1538.16 392.516 1540.11 392.689C1541.85 392.879 1543.32 393.626 1544.48 394.775C1545.09 395.379 1545.08 395.88 1544.38 396.317C1544.13 396.527 1543.83 396.678 1543.59 396.888C1543.35 397.503 1543.03 398.001 1542.07 397.992C1541.72 398.335 1541.15 398.291 1540.66 398.21C1540.04 398.609 1539.45 398.41 1539.06 397.944L1538.87 397.961C1538.69 398.133 1538.52 398.054 1538.35 397.975C1538.03 397.972 1537.66 397.911 1537.34 397.908C1536.25 398.63 1535.6 397.717 1534.69 397.516C1534.61 397.554 1534.49 397.533 1534.37 397.513C1532.94 397.827 1532.14 396.739 1530.96 396.593C1530.69 396.648 1530.57 396.628 1530.42 396.453C1530.11 396.199 1529.64 396.021 1529.2 395.998C1528.56 395.991 1528.07 395.659 1527.73 395.251C1526.46 394.988 1525.47 395.325 1524.47 395.914C1523.93 396.275 1523.35 396.732 1522.52 396.743C1522.37 396.819 1522.19 396.991 1522.04 397.067C1521.67 397.256 1521.22 397.483 1520.78 397.71C1520.16 398.109 1519.56 398.412 1518.94 398.811C1518.42 399.076 1518.14 399.633 1517.33 399.297L1517.26 399.335L1517.11 399.411L1516.96 399.486L1516.79 399.408C1516.78 399.658 1516.68 399.792 1516.34 399.885C1515.74 400.188 1515.15 400.491 1514.55 400.794C1514.18 400.983 1513.81 401.173 1513.56 401.382C1513.41 401.458 1513.33 401.496 1513.19 401.572C1511.74 402.888 1509.57 403.33 1507.75 404.335C1506.56 404.941 1507.27 405.16 1507.81 405.551C1508.54 405.673 1509.31 405.7 1510.04 405.823C1510.19 405.747 1510.32 405.767 1510.41 405.884C1511.88 406.13 1513.46 406.241 1514.9 406.834C1517.25 407.878 1517.34 409.904 1518.37 411.534C1518.83 412.213 1517.84 412.801 1516.53 412.885C1515.62 412.934 1514.86 412.407 1514.12 412.534C1511.66 412.877 1509.33 411.987 1506.95 411.791C1504.86 411.693 1503.12 410.751 1501.71 409.561C1500.31 408.371 1499.91 408.406 1498.08 409.256C1497.33 409.635 1496.51 410.051 1495.77 410.43C1492.52 411.999 1489.03 413.277 1485.93 415.022C1484.71 415.723 1483.35 416.25 1481.84 416.602C1481.81 416.698 1481.74 416.736 1481.62 416.716C1481.49 416.946 1481.19 417.097 1480.92 417.153C1480.77 417.228 1480.7 417.266 1480.55 417.342C1480.25 417.744 1478.6 417.67 1479.84 418.531L1479.96 418.551C1480.09 418.572 1480.28 418.554 1480.41 418.575C1481.72 418.24 1482.54 418.981 1483.62 419.261C1483.82 419.244 1484.06 419.285 1484.19 419.305C1484.55 419.367 1484.75 419.6 1484.94 419.833C1487.95 421.039 1487.95 421.039 1487.03 422.997C1487.08 423.306 1486.95 423.536 1486.58 423.725C1485.03 425.176 1482.32 425.478 1479.85 424.413C1479.77 424.451 1479.65 424.43 1479.55 424.314C1479.23 424.561 1478.84 424.596 1478.55 424.246L1478.42 424.226C1476.97 424.385 1474.69 423.804 1473.3 423.019C1473.15 423.095 1472.9 423.054 1472.81 422.938C1471.85 422.678 1470.94 422.476 1470.06 422.178C1469.29 422.402 1468.53 422.626 1467.78 423.005C1464.86 424.327 1461.84 425.532 1458.91 426.854C1456.14 428.1 1453.38 429.501 1450.65 430.805C1449.61 431.335 1449.63 431.49 1450.71 432.021C1451.91 432.572 1453.51 432.588 1454.5 433.407C1454.63 433.428 1454.87 433.469 1454.99 433.489C1455.19 433.472 1455.34 433.396 1455.46 433.416C1456.55 432.945 1456.94 433.662 1457.37 434.187C1457.49 434.207 1457.66 434.286 1457.79 434.307C1459.77 434.788 1460.16 435.255 1459.67 436.581C1459.89 436.969 1459.86 437.316 1459.51 437.659C1458.13 438.938 1454.61 439.155 1452.88 437.962L1452.76 437.942C1452.36 438.227 1452.01 438.32 1451.47 438.18C1450.4 437.9 1449.29 437.716 1448.36 437.109C1447.77 437.161 1447.41 436.849 1446.94 436.671C1446.67 436.726 1446.5 436.647 1446.36 436.472C1446.23 436.452 1446.19 436.394 1446.09 436.277C1445.92 436.198 1445.67 436.157 1445.5 436.079C1445.11 436.113 1444.91 435.88 1444.65 435.685C1443.88 435.909 1443.66 435.521 1443.47 435.037C1443.25 434.9 1443.01 434.859 1442.79 434.722C1442.32 434.794 1441.88 434.771 1441.69 434.287L1441.52 434.208C1439.29 435.093 1436.98 436.016 1434.8 436.959C1431.43 438.508 1428.09 439.961 1424.5 441.123C1423.44 441.498 1422.25 441.853 1421.79 442.832C1423.36 443.194 1424.58 443.9 1425.75 444.799C1426.24 444.88 1426.55 445.134 1426.8 445.426C1427.45 445.837 1428.04 446.286 1428.7 446.698C1429.57 447.246 1429.51 447.94 1429.13 448.63C1428.53 449.685 1427.19 450.367 1425.47 450.08C1422.33 449.606 1419.06 449.112 1416.5 447.429C1415.84 447.018 1415.11 446.644 1414.32 446.463C1413.61 446.244 1412.83 446.314 1412.86 445.466C1412.9 444.868 1411.94 444.608 1411.95 443.856C1411.93 442.043 1412.37 440.408 1413.26 438.797C1414.45 436.783 1415.81 434.849 1417.22 432.972C1418.02 431.9 1419.14 431.081 1420.53 430.458C1421.69 429.949 1424.31 431.189 1424.1 432.209C1423.63 433.94 1423.87 435.89 1422.37 437.399C1422.06 438.052 1421.83 438.667 1421.18 439.162C1421.94 439.439 1422.32 438.999 1422.84 438.735C1426.38 437.014 1429.98 435.351 1433.74 434.018L1433.82 433.98L1433.79 433.826L1433.96 433.904C1434.16 433.887 1434.31 433.811 1434.51 433.794C1435.08 433.336 1435.83 432.958 1436.59 432.734C1437.58 432.396 1438.5 432.096 1439.29 431.526C1438.91 430.808 1439.02 430.173 1439.15 429.441C1439.6 427.806 1440.7 426.332 1441.61 424.875C1442.9 422.728 1444.31 420.601 1445.77 418.532C1446.88 417.057 1447.59 417.026 1449.47 417.892C1449.65 417.971 1449.82 418.05 1449.99 418.129C1451.75 418.975 1452.25 419.963 1451.51 421.499C1451.03 422.574 1450.3 423.609 1449.86 424.742C1449.38 425.818 1448.3 426.694 1447.99 428.099C1449.97 427.173 1451.83 426.477 1453.54 425.607C1456.32 424.11 1459.44 423.021 1462.32 421.641C1463.65 420.96 1464.97 420.124 1466.58 419.889C1466.9 419.641 1467.22 419.393 1467.67 419.417C1468.19 418.901 1469.55 418.876 1469.41 417.949C1469.12 415.94 1470.58 414.373 1471.83 412.823C1472.69 411.308 1473.6 409.851 1474.46 408.335C1474.97 407.415 1475.94 406.672 1476.88 406.025C1478.62 404.808 1482.13 405.593 1482.35 407.389C1482.62 409.243 1482.29 411.149 1480.25 412.518C1480.32 412.981 1479.97 413.325 1479.52 413.552L1479.42 413.686C1480.06 413.943 1480.51 413.716 1481.03 413.451C1484.7 411.751 1488.44 410.012 1492.06 408.254C1493.75 407.479 1495.38 406.646 1497.12 405.93C1497.84 405.648 1498.06 405.283 1497.93 404.607C1497.77 403.776 1497.83 402.832 1498.19 401.987C1499.06 399.72 1499.93 397.452 1501.05 395.226C1501.63 394.017 1502.78 393.102 1504.49 392.733C1504.83 392.64 1505.25 392.509 1505.72 392.687C1508.46 393.696 1508.82 394.259 1508.36 396.646C1508.23 397.127 1508.35 397.649 1507.97 398.089C1508.04 398.552 1507.81 398.916 1507.29 399.181C1507.24 399.374 1507.26 399.528 1507.21 399.721C1507.38 400.05 1506.9 400.373 1507.36 400.802C1508.41 400.272 1509.4 399.684 1510.49 399.212C1513.19 398.004 1515.6 396.446 1518.4 395.354C1518.68 395.048 1518.98 394.897 1519.44 394.824C1519.84 394.539 1520.27 394.157 1520.81 394.046C1521.03 393.933 1521.33 393.781 1521.55 393.668C1522.33 392.942 1523.3 392.45 1524.53 392.404C1525 392.081 1525.4 391.796 1525.87 391.472C1525.85 391.318 1525.8 391.259 1526.07 391.204C1526.1 391.108 1526.12 391.012 1526.15 390.916C1525.27 390.618 1524.98 390.268 1525.95 389.776C1525.73 389.388 1525.98 389.178 1526.3 388.931C1526.78 388.357 1527.16 387.666 1526.48 387.1C1525.39 386.164 1525.89 385.243 1526.03 384.261C1526.16 383.78 1526.29 383.299 1526.5 382.781C1527.17 381.032 1528.13 379.383 1529.67 377.932C1530.45 377.207 1531.42 376.715 1532.64 376.919C1534.24 377.185 1536.68 378.597 1536.53 380.582C1536.4 382.22 1535.79 383.776 1534.66 385.096C1534.18 385.67 1533.86 386.168 1533.87 386.824C1534.73 386.967 1535.25 386.702 1535.53 386.397C1536.72 385.289 1538.5 384.882 1539.92 384.163C1543.69 382.329 1547.43 380.34 1551.2 378.505C1553.11 377.617 1553.07 377.559 1553.24 375.979C1553.19 375.67 1553.15 375.361 1553.1 375.052C1552.77 374.393 1552.95 373.72 1553.06 373.085C1553.36 371.525 1553.9 370.007 1555.39 368.749L1555.42 368.652C1556.09 366.402 1558.26 365.054 1560.39 363.802C1561.61 363.1 1562.78 363.998 1563.95 364.395C1564.96 364.713 1565.02 365.678 1564.81 366.448C1564.49 367.852 1564.05 369.237 1562.9 370.402C1562.97 370.865 1562.45 371.13 1562.22 371.495C1562.24 371.649 1562.21 371.745 1562.07 371.821L1561.96 371.955C1562.25 372.305 1562.55 372.404 1563 372.177C1563.79 371.857 1564.51 371.574 1565.2 371.138C1567.46 369.906 1569.67 368.616 1571.98 367.442C1574.46 366.097 1577.04 364.868 1579.57 363.581C1579.79 363.467 1579.97 363.295 1579.93 362.986C1579.59 362.578 1578.75 362.339 1578.86 361.703C1579.02 360.876 1578.86 360.045 1579.27 359.258C1580.31 357.07 1581.31 354.823 1582.3 352.576C1582.61 351.923 1583.01 351.387 1583.44 350.755C1583.94 350.085 1584.78 349.572 1585.87 349.602C1586.7 349.59 1588.7 351.23 1588.81 352.002C1588.95 353.835 1588.48 355.567 1587.82 357.315C1587.84 357.47 1587.79 357.662 1587.64 357.738C1587.58 358.181 1587.28 358.583 1586.93 358.927C1587.32 359.393 1587.76 359.417 1588.35 359.114C1588.95 358.811 1589.35 358.275 1590.07 358.243C1590.29 358.13 1590.51 358.016 1590.74 357.902C1591.83 356.929 1593 356.169 1594.63 355.838C1594.86 355.724 1595.15 355.573 1595.38 355.459C1595.5 355.48 1595.67 355.558 1595.82 355.483C1595.75 355.521 1595.57 355.442 1595.38 355.459C1596.31 354.157 1598.09 353.75 1599.6 353.147C1599.6 353.147 1599.74 353.322 1599.79 353.38L1599.91 353.401C1599.84 353.188 1599.94 353.054 1600.14 353.036C1600.03 352.515 1600.52 352.596 1600.94 352.466C1601.17 351.851 1602.7 351.653 1602.12 350.703C1601.3 349.461 1601.99 348.368 1602.79 347.296C1602.9 346.66 1603.01 346.025 1603.7 345.588C1603.61 345.221 1603.71 344.836 1604.16 344.609C1604.19 344.262 1604.22 343.915 1604.54 343.668C1605.67 341.191 1607.35 339.008 1609.62 337.024C1611.64 335.25 1612.6 335.26 1614.59 336.899C1614.91 337.152 1615.03 337.423 1615 337.77C1614.69 340.332 1614.01 342.833 1612.42 345.132C1612.02 345.668 1611.74 346.224 1611.26 347.049C1613.67 345.992 1615.82 345.145 1617.93 344.24C1619.66 343.523 1621.39 342.807 1623.03 341.974C1624.22 341.369 1625.61 340.996 1625.95 339.746C1625.97 339.65 1626.27 339.498 1626.42 339.423C1628.68 337.94 1630.9 336.399 1633.23 334.879C1634.65 333.909 1636.34 333.135 1638.14 332.631C1639.26 332.314 1642.64 333.079 1643.32 333.896C1644.92 335.57 1644.62 337.38 1642.63 338.556ZM1522.29 395.449C1522.22 395.487 1522.19 395.583 1522.16 395.679C1522.24 395.642 1522.26 395.545 1522.29 395.449ZM1559.48 371.893C1559.55 371.855 1559.6 371.913 1559.73 371.934C1559.7 372.03 1559.8 372.146 1559.72 372.184C1559.75 372.088 1559.7 372.03 1559.73 371.934C1559.6 371.913 1559.6 371.913 1559.48 371.893ZM1609.45 346.646C1609.52 346.859 1609.51 347.109 1609.58 347.322C1609.56 347.168 1609.52 346.859 1609.45 346.646C1609.82 346.457 1610.07 346.247 1610.32 346.037C1610.19 346.267 1609.87 346.515 1609.45 346.646ZM1616.76 355.857C1616.89 355.878 1617.06 355.957 1617.03 356.053C1617.01 355.898 1616.81 355.916 1616.76 355.857ZM1610.31 344.629C1610.22 344.513 1610.17 344.454 1610.07 344.338C1610.17 344.454 1610.27 344.571 1610.31 344.629Z" fill="#B2CAAA"/>
<path d="M835.007 63.9291C830.602 60.8574 829.301 57.1462 830.471 52.7791C830.773 51.644 830.634 50.4478 831.128 49.2681C832.302 46.2924 832.37 46.1948 835.299 43.7122C836.534 44.4898 837.222 45.4768 838.034 46.5167C840.441 49.5611 845.159 51.2496 849.474 50.4927C851.232 50.166 853.058 49.7416 854.674 49.0384C857.81 47.6544 858.632 46.2349 858.019 43.5106C857.68 41.7874 857.38 39.8913 855.329 38.8936C852.972 37.6394 850.334 37.0239 847.482 36.9494C844.535 36.8972 841.605 37.1685 838.75 37.9139C837.789 38.1372 837.251 38.0983 837.198 37.1279C836.987 34.6378 837.591 32.3678 839.395 30.2285C839.53 30.0333 839.762 29.8157 839.868 29.5452C841.505 26.1343 844.94 24.4352 848.902 23.0231C852.671 21.6556 856.573 20.9128 860.749 21.1709C860.527 18.929 860.527 18.929 857.907 18.637C850.747 17.6797 845.045 19.742 840.027 23.6111C837.108 25.8456 835.311 28.5565 834.454 31.5405C833.85 33.8105 833.331 36.3064 834.243 38.7155C834.5 39.393 834.286 39.934 833.631 40.4138C831.706 41.6804 830.154 43.1057 829.187 44.9687C827.465 48.1537 826.309 51.4529 826.477 54.9357C826.581 57.6963 826.974 60.3899 829.221 62.7345C829.766 63.345 829.496 63.7355 828.478 63.8083C827.556 63.8587 826.548 63.6833 825.597 63.6585C824.839 63.589 823.985 63.5418 823.244 63.7958C822.504 64.0498 822.041 64.4849 822.451 65.2907C823.06 66.6234 824.047 67.2952 825.908 67.5177C828.653 67.8627 831.427 68.283 834.172 68.628C837.358 69.0343 838.946 68.2558 839.368 65.7823C839.603 64.7449 839.838 63.7075 840.514 62.7313C840.716 62.4385 840.823 62.1679 840.805 61.8445C840.791 60.7012 839.808 59.2096 838.886 59.26C837.454 59.3469 837.095 60.3313 836.583 61.1876C836.071 62.0438 835.711 63.0282 835.007 63.9291ZM850.854 46.4043C849.949 46.7783 849.277 46.9346 848.547 46.9404C847.817 46.9462 847.087 46.952 846.453 46.9354C843.63 46.9362 839.941 44.9267 839.076 42.9164C838.677 41.8625 838.812 41.6672 840.1 41.2039C841.87 40.629 843.81 40.5058 845.75 40.3826C848.42 40.2535 851.136 40.5232 853.397 41.7998C855.285 42.9174 855.289 44.3089 853.527 45.4555C852.612 46.0776 851.651 46.3009 850.854 46.4043Z" fill="#E77C7A" fill-opacity="0.3"/>
<path d="M1325.44 109.946C1326.94 109.284 1327.37 108.169 1328.05 107.133C1330.24 104.298 1333.45 102.583 1337.35 101.77C1341.78 100.782 1345 102.141 1347.14 105.319C1349.87 109.595 1350.15 113.552 1348.2 119.873C1351.23 120.487 1354.17 120.965 1357.07 122.108C1364.66 125.417 1364.15 131.741 1361.59 136.161C1360.78 137.726 1358.83 138.7 1356.6 138.793C1352.47 139.194 1348.78 138.479 1345.31 137.041C1344.73 136.746 1344.08 136.314 1343.13 136.468C1342.63 137.446 1343.05 138.602 1343.15 139.543C1343.36 141.09 1343.33 142.559 1343.2 144.224C1342.86 147.415 1339.97 150.483 1336.95 151.004C1332.97 151.68 1329.85 150.125 1327.38 147.866C1324.2 145.038 1322.83 141.765 1322.98 137.828C1318.4 138.542 1314.47 138.552 1310.3 137.347C1304.96 135.884 1301.6 130.843 1304.97 125.994C1306.23 124.117 1308.31 122.614 1310.72 121.328C1308.12 119.598 1305.71 117.81 1304.62 115.418C1302.53 111.574 1303.8 107.425 1307.44 104.595C1310.07 102.584 1313 102.258 1316.24 103.285C1319.24 104.232 1321.86 105.629 1323.48 107.846C1323.5 108.649 1324.19 109.552 1325.44 109.946ZM1321.52 121.785C1318.59 123.247 1318.76 123.188 1315.91 123.651C1311.93 124.327 1308.82 125.847 1307.39 128.918C1306.58 130.483 1306.55 131.952 1308.42 133.112C1311.59 135.137 1317.18 135.542 1320.64 133.906C1321.44 133.477 1322.07 133.106 1322.95 132.815C1324 132.465 1325 131.645 1326.3 132.51C1327.27 133.158 1327.62 134.178 1327.29 135.097C1326.66 136.604 1326.62 138.072 1326.24 139.658C1325.45 143.161 1327.95 145.087 1331.06 146.642C1334.68 148.354 1336.96 147.596 1338.72 144.741C1340.38 142.082 1339.92 139.319 1339.53 136.694C1339.36 135.617 1339.02 134.597 1339.02 133.461C1339.18 131.464 1340.05 131.173 1342.45 132.158C1345.67 133.517 1348.71 134.935 1352.61 135.258C1356.09 135.56 1358.82 134.489 1359.83 132.533C1361.04 130.186 1360.05 127.599 1357.1 125.986C1354.08 124.235 1350.84 123.209 1346.96 123.689C1345.41 123.881 1343.96 123.877 1342.34 123.932C1340.36 124.103 1340.19 123.026 1340.19 121.89C1340.1 120.95 1341.07 120.462 1341.8 119.896C1347.42 115.758 1348.11 112.45 1344.68 107.272C1343.46 105.408 1341.14 104.56 1338.71 105.044C1336.71 105.548 1334.71 106.052 1333.15 107.38C1330.32 109.782 1327.98 112.342 1327.72 115.671C1327.67 116.336 1327.51 117.198 1326.39 117.41C1325.26 117.623 1324.81 116.799 1324.52 116.25C1323.85 115.015 1323.18 113.779 1322.58 112.681C1321.34 110.015 1319 108.364 1315.85 107.142C1312.38 105.704 1309.78 106.245 1307.69 108.884C1305.61 111.523 1306.15 114.423 1309.14 116.506C1310.83 117.725 1312.73 118.552 1314.7 119.516C1316.67 120.481 1319.42 120.213 1321.52 121.785Z" fill="#FAA57B"/>
<path d="M1101.17 275.946C1102.67 275.284 1103.1 274.169 1103.78 273.133C1105.97 270.298 1109.18 268.583 1113.08 267.77C1117.51 266.782 1120.73 268.141 1122.87 271.319C1125.6 275.595 1125.88 279.552 1123.93 285.873C1126.96 286.487 1129.9 286.965 1132.8 288.108C1140.39 291.417 1139.88 297.741 1137.32 302.161C1136.51 303.726 1134.56 304.7 1132.33 304.793C1128.2 305.194 1124.51 304.479 1121.04 303.041C1120.46 302.746 1119.81 302.314 1118.86 302.468C1118.36 303.446 1118.78 304.602 1118.88 305.543C1119.09 307.09 1119.06 308.559 1118.93 310.224C1118.59 313.415 1115.7 316.483 1112.68 317.004C1108.7 317.68 1105.58 316.125 1103.11 313.866C1099.93 311.038 1098.56 307.765 1098.71 303.828C1094.13 304.542 1090.2 304.552 1086.03 303.347C1080.69 301.884 1077.33 296.843 1080.7 291.994C1081.96 290.117 1084.04 288.614 1086.45 287.328C1083.86 285.598 1081.44 283.81 1080.35 281.418C1078.26 277.574 1079.53 273.425 1083.17 270.595C1085.8 268.584 1088.73 268.258 1091.97 269.285C1094.97 270.232 1097.59 271.629 1099.21 273.846C1099.23 274.649 1099.92 275.552 1101.17 275.946ZM1097.25 287.785C1094.32 289.247 1094.49 289.188 1091.64 289.651C1087.66 290.327 1084.55 291.847 1083.12 294.918C1082.31 296.483 1082.28 297.952 1084.15 299.112C1087.32 301.137 1092.91 301.542 1096.37 299.906C1097.17 299.477 1097.8 299.106 1098.68 298.815C1099.73 298.465 1100.73 297.645 1102.03 298.51C1103 299.158 1103.35 300.178 1103.02 301.097C1102.39 302.604 1102.36 304.072 1101.97 305.658C1101.18 309.161 1103.68 311.087 1106.79 312.642C1110.41 314.354 1112.69 313.596 1114.45 310.741C1116.11 308.082 1115.65 305.319 1115.26 302.694C1115.09 301.617 1114.75 300.597 1114.75 299.461C1114.91 297.464 1115.79 297.173 1118.18 298.158C1121.4 299.517 1124.45 300.935 1128.34 301.258C1131.82 301.56 1134.55 300.489 1135.56 298.533C1136.77 296.186 1135.78 293.599 1132.83 291.986C1129.82 290.235 1126.57 289.209 1122.69 289.689C1121.14 289.881 1119.69 289.877 1118.07 289.932C1116.09 290.103 1115.92 289.026 1115.92 287.89C1115.83 286.95 1116.8 286.462 1117.53 285.896C1123.15 281.758 1123.84 278.45 1120.41 273.272C1119.19 271.408 1116.87 270.56 1114.44 271.044C1112.44 271.548 1110.44 272.052 1108.88 273.38C1106.05 275.782 1103.71 278.342 1103.45 281.671C1103.4 282.336 1103.24 283.198 1102.12 283.41C1100.99 283.623 1100.54 282.799 1100.25 282.25C1099.58 281.015 1098.91 279.779 1098.31 278.681C1097.07 276.015 1094.73 274.364 1091.58 273.142C1088.11 271.704 1085.51 272.245 1083.42 274.884C1081.34 277.523 1081.88 280.423 1084.87 282.506C1086.56 283.725 1088.46 284.552 1090.43 285.516C1092.4 286.481 1095.15 286.213 1097.25 287.785Z" fill="#FAA57B"/>
<path d="M425.297 338.979C426.8 338.316 427.23 337.201 427.909 336.165C430.096 333.331 433.304 331.615 437.207 330.802C441.637 329.814 444.856 331.174 446.993 334.352C449.726 338.628 450.009 342.584 448.058 348.905C451.081 349.52 454.029 349.997 456.924 351.14C464.511 354.449 464.01 360.774 461.441 365.193C460.635 366.758 458.681 367.732 456.455 367.825C452.328 368.226 448.631 367.512 445.161 366.074C444.587 365.778 443.939 365.346 442.988 365.5C442.484 366.478 442.904 367.635 443.001 368.575C443.219 370.123 443.188 371.592 443.056 373.256C442.718 376.447 439.83 379.515 436.802 380.036C432.824 380.712 429.705 379.157 427.239 376.899C424.051 374.071 422.689 370.797 422.831 366.861C418.253 367.574 414.327 367.584 410.157 366.379C404.812 364.917 401.458 359.875 404.829 355.027C406.086 353.15 408.168 351.647 410.573 350.36C407.98 348.63 405.563 346.842 404.473 344.45C402.388 340.607 403.656 336.458 407.293 333.627C409.926 331.616 412.853 331.29 416.099 332.317C419.095 333.264 421.715 334.661 423.331 336.878C423.352 337.681 424.049 338.584 425.297 338.979ZM421.372 350.817C418.441 352.279 418.616 352.221 415.764 352.684C411.786 353.359 408.679 354.879 407.241 357.951C406.435 359.515 406.404 360.984 408.274 362.144C411.441 364.169 417.04 364.575 420.497 362.938C421.299 362.509 421.925 362.139 422.802 361.847C423.853 361.497 424.857 360.677 426.153 361.542C427.126 362.191 427.471 363.21 427.143 364.13C426.511 365.636 426.48 367.105 426.098 368.69C425.309 372.194 427.801 374.119 430.92 375.674C434.538 377.387 436.816 376.629 438.579 373.774C440.24 371.114 439.776 368.352 439.387 365.726C439.217 364.649 438.871 363.63 438.876 362.494C439.034 360.497 439.91 360.205 442.306 361.19C445.526 362.549 448.57 363.967 452.469 364.29C455.943 364.592 458.673 363.522 459.681 361.566C460.891 359.219 459.902 356.631 456.958 355.018C453.94 353.267 450.694 352.241 446.817 352.721C445.266 352.913 443.816 352.91 442.191 352.964C440.215 353.136 440.044 352.058 440.049 350.922C439.953 349.982 440.93 349.495 441.657 348.929C447.275 344.791 447.964 341.483 444.535 336.304C443.318 334.44 440.996 333.593 438.569 334.076C436.567 334.58 434.564 335.085 433.009 336.412C430.173 338.814 427.837 341.374 427.573 344.703C427.521 345.369 427.367 346.23 426.241 346.443C425.115 346.655 424.669 345.832 424.371 345.283C423.701 344.047 423.031 342.812 422.436 341.713C421.197 339.047 418.853 337.396 415.708 336.174C412.239 334.736 409.636 335.278 407.55 337.917C405.464 340.555 406.002 343.455 408.993 345.538C410.689 346.757 412.585 347.584 414.556 348.549C416.527 349.513 419.279 349.246 421.372 350.817Z" fill="#FAA57B"/>
<path d="M134.614 110.55C136.116 109.888 136.546 108.772 137.225 107.736C139.412 104.902 142.62 103.186 146.524 102.373C150.953 101.385 154.173 102.745 156.31 105.923C159.042 110.199 159.326 114.155 157.374 120.476C160.397 121.091 163.345 121.568 166.241 122.711C173.828 126.02 173.326 132.345 170.758 136.764C169.951 138.329 167.997 139.304 165.771 139.396C161.644 139.797 157.947 139.083 154.478 137.645C153.904 137.35 153.255 136.917 152.305 137.071C151.801 138.049 152.221 139.206 152.317 140.146C152.536 141.694 152.504 143.163 152.372 144.827C152.034 148.018 149.146 151.086 146.119 151.607C142.141 152.283 139.022 150.728 136.556 148.47C133.367 145.642 132.006 142.368 132.147 138.432C127.569 139.145 123.643 139.155 119.473 137.95C114.129 136.488 110.774 131.446 114.145 126.598C115.403 124.721 117.484 123.218 119.89 121.931C117.297 120.201 114.879 118.413 113.789 116.021C111.705 112.178 112.972 108.029 116.609 105.198C119.243 103.187 122.169 102.862 125.415 103.888C128.412 104.835 131.031 106.232 132.647 108.449C132.669 109.252 133.365 110.155 134.614 110.55ZM130.689 122.389C127.758 123.85 127.933 123.792 125.081 124.255C121.102 124.931 117.996 126.45 116.558 129.522C115.751 131.086 115.72 132.555 117.591 133.715C120.757 135.74 126.356 136.146 129.813 134.509C130.615 134.08 131.242 133.71 132.118 133.418C133.17 133.068 134.173 132.248 135.47 133.113C136.442 133.762 136.788 134.781 136.459 135.701C135.828 137.207 135.797 138.676 135.415 140.261C134.625 143.765 137.117 145.69 140.236 147.245C143.854 148.958 146.133 148.2 147.895 145.345C149.556 142.685 149.093 139.923 148.703 137.298C148.533 136.22 148.187 135.201 148.192 134.065C148.35 132.068 149.227 131.776 151.623 132.761C154.842 134.12 157.887 135.538 161.786 135.861C165.26 136.163 167.989 135.093 168.998 133.137C170.208 130.79 169.218 128.202 166.275 126.589C163.257 124.839 160.011 123.812 156.133 124.292C154.582 124.484 153.132 124.481 151.507 124.536C149.531 124.707 149.36 123.629 149.365 122.493C149.269 121.553 150.246 121.066 150.974 120.5C156.591 116.362 157.28 113.054 153.851 107.875C152.634 106.011 150.312 105.164 147.885 105.647C145.883 106.152 143.881 106.656 142.325 107.984C139.49 110.385 137.154 112.945 136.89 116.274C136.837 116.94 136.684 117.801 135.558 118.014C134.432 118.226 133.985 117.403 133.687 116.854C133.017 115.618 132.347 114.383 131.752 113.285C130.513 110.618 128.17 108.967 125.024 107.745C121.555 106.307 118.953 106.849 116.866 109.488C114.78 112.126 115.318 115.026 118.31 117.11C120.005 118.328 121.902 119.155 123.873 120.12C125.844 121.084 128.595 120.817 130.689 122.389Z" fill="#FAA57B"/>
<path d="M1456.7 233.654C1456.75 233.511 1456.7 233.352 1456.72 233.281C1456.98 232.727 1457.31 232.261 1458.2 232.198C1458.78 232.155 1458.87 231.87 1458.79 231.48C1458.7 231.162 1458.6 230.843 1457.92 230.869C1457.54 230.873 1457.26 230.823 1456.88 230.828C1456.69 230.493 1456.8 230.136 1456.97 229.868C1457.88 230.035 1458.88 230.218 1459.29 229.166C1459.53 228.382 1459.02 227.837 1457.7 227.444C1457.61 227.427 1457.43 227.394 1457.22 227.432C1457.26 227.289 1457.31 227.146 1457.35 227.004C1458.17 227.154 1457.86 226.27 1458.15 226.249C1458.86 226.454 1458.28 227.1 1459.05 227.091C1461.18 225.752 1460.13 224.13 1459.65 222.537C1461.57 222.515 1461.57 222.515 1462 221.089C1462.02 221.018 1462.04 220.947 1462.04 220.947C1461.87 220.238 1462.04 219.668 1462.99 219.39C1463.82 219.168 1464.63 219.016 1465.59 219.342C1466.19 219.602 1466.82 219.719 1467.44 219.907C1467.58 220.083 1467.72 220.259 1467.86 220.435C1468.02 220.54 1468.18 220.644 1468.27 220.661C1468.63 220.728 1468.86 220.921 1468.98 221.168C1469.02 222.002 1468.7 223.072 1470.38 223.23C1470.5 223.477 1470.71 223.741 1470.83 223.988C1470.87 224.147 1470.79 224.433 1470.97 224.466C1472.07 224.968 1472.35 225.622 1471.98 226.532C1471.92 226.746 1472.22 227.027 1472.23 227.329C1472.23 227.63 1471.9 228.096 1472.67 228.087C1473.26 228.045 1473.57 227.65 1473.42 227.173C1473.33 226.854 1472.73 226.594 1473.23 226.234C1474.3 225.528 1474.21 224.233 1475.65 223.595C1474.39 222.988 1474.07 221.802 1472.57 221.677C1472.75 221.408 1472.95 221.069 1473.03 220.783C1473.6 220.812 1474.26 220.858 1474.79 220.355C1474.25 220.254 1473.9 220.116 1473.45 220.033C1473.56 219.676 1473.64 219.391 1473.84 219.051C1474.86 219.164 1475.56 219.067 1475.68 218.035C1475.75 217.147 1476.53 216.463 1477.22 215.762C1477.49 215.51 1478.01 215.38 1478.02 215.007C1478.14 213.975 1479.07 213.769 1480.15 213.668C1480.16 214.272 1480.74 214.602 1481.11 214.971C1481.73 215.461 1482.88 215.448 1483.08 214.806C1483.51 213.682 1484.41 213.547 1485.57 213.534C1486.36 213.454 1487.1 213.214 1487.8 213.117C1488.43 213.607 1488.1 214.375 1488.88 214.668C1489.04 214.772 1489.29 214.894 1489.13 215.091C1487.84 216.207 1488.72 217.12 1489.51 218.017C1489.64 218.193 1489.74 218.512 1489.59 218.709C1489.19 219.086 1489.02 218.68 1488.79 218.487C1488.65 218.311 1488.42 218.42 1488.2 218.53C1486 219.781 1485.61 220.762 1486.69 222.614C1486.32 223.222 1483.54 222.562 1485.34 224.246C1485.57 224.439 1485.1 224.728 1484.92 224.997C1484.57 225.534 1484.53 225.978 1485.06 226.451C1485.22 226.556 1485.43 226.82 1485.47 226.678C1486.12 225.818 1487.74 226.491 1488.29 225.615C1488.63 225.451 1488.85 225.342 1489.19 225.178C1489.71 225.35 1490.21 225.593 1490.73 225.16C1491.57 225.239 1492.34 225.23 1493.08 224.991C1493.38 224.97 1493.74 225.037 1494.03 225.015C1494.9 225.325 1495.7 225.547 1496.57 225.856C1496.64 225.944 1496.71 226.032 1496.66 226.175C1496.55 226.229 1496.26 226.251 1496.24 226.322C1496.04 226.963 1495.67 227.572 1495.39 228.197C1495.08 228.893 1494.44 229.451 1494.26 230.021C1493.85 231.074 1492.75 230.27 1492.26 230.63C1491.65 231.046 1491.28 231.654 1491.66 232.325C1492.45 232.546 1492.55 231.586 1492.96 231.812C1494.06 232.315 1495.55 231.836 1496.45 232.678C1495.61 234.179 1494.53 235.559 1492.96 236.625C1490.9 238.052 1489.07 239.672 1486.62 240.801C1486.29 240.965 1485.97 241.058 1485.7 241.309C1485.3 241.687 1484.97 242.153 1485.97 242.336C1486.25 242.386 1486.52 242.437 1486.88 242.503C1489.23 243.009 1490.13 243.851 1490.41 245.784C1490.6 247.398 1490.08 248.807 1488.84 250.082C1486.77 252.184 1484.24 253.901 1481.41 255.336C1478.25 256.936 1475.03 258.376 1471.63 259.482C1471.11 259.612 1470.5 259.725 1469.96 259.927C1468.64 259.836 1467.33 260.046 1466.16 260.433C1465.53 260.618 1464.81 260.786 1464.18 260.971C1463.63 260.871 1463.09 260.771 1462.45 260.956C1461.37 261.359 1460.58 261.137 1460.6 260.089C1460.62 259.716 1460.27 259.578 1459.91 259.511C1459.09 259.361 1458.2 259.122 1457.58 259.911C1457.14 260.431 1456.03 260.302 1455.8 260.109C1454.83 259.481 1453.66 258.589 1454.12 257.695C1454.73 256.605 1453.57 256.015 1453.57 255.038C1453.61 253.617 1451.68 254.616 1450.77 254.147C1450.51 254.025 1450.24 253.975 1449.97 253.925L1449.81 253.821C1449.78 253.59 1449.75 253.359 1449.41 253.221C1449.43 253.15 1449.38 252.991 1449.41 252.919C1450.04 253.036 1450.65 252.923 1451.07 252.474C1451.3 252.667 1451.56 252.788 1451.79 252.981C1451.93 253.157 1451.93 253.458 1452.29 253.223C1452.13 253.119 1451.95 253.085 1451.79 252.981C1452.44 252.724 1453.21 252.715 1453.81 252.3C1453.73 252.585 1453.51 252.996 1453.92 253.222C1454.15 253.415 1454.58 253.268 1454.64 253.054C1455.06 252.303 1454.25 252.455 1453.81 252.3C1454.12 251.604 1454.06 251.143 1453.06 250.657C1451.87 250.138 1450.95 249.367 1451.06 248.034C1451.11 247.216 1451.14 246.168 1449.77 245.616C1449.33 245.461 1449.57 244.979 1449.68 244.622C1449.91 243.838 1449.69 242.97 1449.54 242.191C1449.33 241.625 1448.83 241.684 1448.29 241.886C1447.66 242.07 1447.78 242.318 1448.26 242.632C1448.58 242.841 1448.81 243.034 1448.61 243.374C1448.3 243.768 1447.87 243.613 1447.46 243.387C1446.98 243.073 1446.43 242.973 1445.79 242.856C1445.77 242.625 1445.83 242.411 1445.8 242.181C1445.96 241.984 1446.11 241.786 1446.25 241.661C1447.41 240.972 1446.48 240.876 1445.77 240.671C1445.71 239.908 1445.91 239.267 1446.12 238.554C1446.99 239.165 1447.64 239.886 1448.09 240.645C1448.86 240.636 1449.12 240.082 1449.52 240.006C1451.22 239.791 1451.29 238.601 1451.93 237.741C1452.09 237.543 1452.06 237.313 1451.72 237.175C1451.28 237.02 1450.83 236.937 1450.47 237.172C1450.13 237.335 1450.05 237.62 1450.26 237.884C1450.46 238.148 1450.74 238.5 1450.45 238.823C1450.03 238.97 1449.59 238.816 1449.14 238.732C1447.68 238.465 1447.52 238.058 1448.52 237.265C1449.03 236.833 1449.25 236.422 1449.4 235.923C1449.69 235.298 1450.16 235.008 1451.16 235.192C1452.89 235.51 1454.59 235.898 1455.93 236.895C1456.41 237.209 1456.93 237.381 1457.52 237.036C1458.75 236.436 1458.55 235.497 1458.47 234.504C1458.47 233.527 1457.41 233.859 1456.7 233.654ZM1483.26 224.466C1482.42 225.665 1481.8 226.756 1480.76 227.691C1479.29 229.076 1479.25 229.52 1479.46 231.063C1480.29 229.562 1481.97 228.441 1482.55 226.818C1482.66 226.462 1482.7 226.017 1483.1 225.941C1484.59 225.462 1483.56 225.048 1483.26 224.466ZM1475.45 255.068C1476.01 255.097 1476.19 255.131 1476.31 255.076C1478.43 254.412 1479.6 252.747 1481.64 251.995C1481.85 251.957 1481.91 251.743 1481.98 251.529C1482.02 251.387 1481.99 251.156 1481.83 251.051C1481.67 250.947 1481.38 250.968 1481.26 251.022C1479.2 252.147 1477.39 253.394 1475.45 255.068ZM1485.69 229.801C1487.49 230.206 1489.18 229.689 1489.84 228.456C1490.04 228.117 1489.76 227.765 1489.33 227.912C1487.95 228.336 1486.16 228.233 1485.69 229.801ZM1474.84 228.861C1474.38 228.778 1474.25 228.903 1474.21 229.046C1474.06 229.545 1474.4 229.683 1474.86 229.767C1475.13 229.817 1475.51 229.812 1475.51 229.511C1475.52 229.137 1475.11 228.911 1474.84 228.861ZM1452.98 239.362C1453.37 239.358 1453.5 239.232 1453.54 239.089C1453.67 238.662 1453.24 238.507 1452.78 238.423C1452.51 238.373 1452.12 238.378 1452.22 238.696C1452.34 238.944 1452.53 239.279 1452.98 239.362Z" fill="#93BF84"/>
<path d="M1488.49 225.577C1487.92 226.525 1486.32 225.78 1485.68 226.64C1485.54 226.766 1485.43 226.518 1485.27 226.414C1484.74 225.94 1484.77 225.496 1485.12 224.959C1485.3 224.691 1485.77 224.401 1485.54 224.208C1483.74 222.524 1486.52 223.185 1486.89 222.576C1485.82 220.724 1486.21 219.743 1488.4 218.492C1488.63 218.383 1488.85 218.273 1488.99 218.449C1489.22 218.642 1489.41 218.977 1489.79 218.671C1490.04 218.491 1489.85 218.155 1489.71 217.979C1488.94 217.011 1488.06 216.098 1489.34 215.053C1489.58 214.873 1489.33 214.751 1489.08 214.63C1488.3 214.337 1488.63 213.57 1488.01 213.079C1487.28 213.248 1486.54 213.487 1485.77 213.496C1484.59 213.581 1483.69 213.716 1483.28 214.768C1483.09 215.41 1481.91 215.495 1481.31 214.933C1480.85 214.548 1480.37 214.234 1480.36 213.63C1479.27 213.731 1478.32 214.009 1478.23 214.969C1478.21 215.342 1477.69 215.472 1477.43 215.724C1476.76 216.354 1475.89 217.021 1475.88 217.998C1475.76 219.029 1475.06 219.126 1474.04 219.014C1475.58 216.438 1477.53 214.089 1480.08 211.999C1480.97 211.261 1482.11 210.644 1483.17 210.01C1484.44 209.267 1486.17 209.282 1487.72 209.868C1487 210.036 1486.41 210.381 1485.6 210.23C1484.66 210.135 1483.88 210.517 1483.55 211.284C1482.92 211.167 1482.38 211.369 1481.88 211.73C1481.64 211.91 1481.48 212.107 1481.6 212.355C1481.7 212.673 1482.02 212.883 1482.4 212.878C1482.68 212.928 1483.01 212.764 1483.08 212.551C1483.21 212.123 1483.31 211.766 1483.53 211.355C1484.1 211.686 1484.28 212.395 1485.31 212.134C1486.56 211.835 1487.75 211.679 1488.74 212.538C1489.04 212.819 1489.52 212.529 1489.73 212.118C1490.02 211.493 1489.46 211.766 1489.09 211.699C1487.91 211.482 1487.44 210.795 1487.72 209.868C1490.63 210.403 1491.68 211.723 1491.61 214.192C1491.47 216.574 1490.59 218.893 1489.63 221.124C1489.2 222.248 1488.68 223.355 1488.08 224.374C1487.65 225.196 1487.97 225.406 1488.49 225.577ZM1487.38 224.169C1487.31 224.081 1487.35 223.939 1487.28 223.851C1487.03 223.729 1486.73 223.75 1486.58 223.948C1486.56 224.019 1486.61 224.178 1486.61 224.178C1486.84 224.371 1487.11 224.421 1487.38 224.169Z" fill="#93BF84"/>
<path d="M1451.69 252.964C1451.46 252.771 1451.21 252.65 1450.98 252.457C1450.16 252.307 1449.34 252.157 1448.52 252.006C1447 249.395 1446.13 246.528 1445.56 243.64C1445.53 243.41 1445.63 243.053 1445.72 242.768C1446.27 242.868 1446.9 242.985 1447.38 243.299C1447.71 243.509 1448.23 243.68 1448.54 243.286C1448.83 242.963 1448.51 242.753 1448.19 242.544C1447.68 242.301 1447.59 241.983 1448.22 241.798C1448.74 241.667 1449.26 241.537 1449.47 242.103C1449.71 242.899 1449.86 243.679 1449.61 244.534C1449.5 244.891 1449.26 245.373 1449.69 245.528C1451.06 246.08 1451.04 247.129 1450.99 247.946C1450.87 249.279 1451.8 250.05 1452.98 250.569C1454.1 251 1454.07 251.445 1453.74 252.212C1453.23 252.644 1452.34 252.708 1451.69 252.964Z" fill="#93BF84"/>
<path d="M1449.86 253.98C1450.13 254.03 1450.49 254.097 1450.65 254.201C1451.57 254.67 1453.5 253.671 1453.46 255.092C1453.48 255.998 1454.53 256.643 1454.01 257.75C1453.55 258.644 1454.72 259.536 1455.69 260.164C1455.92 260.357 1457.03 260.486 1457.47 259.966C1458.09 259.177 1458.98 259.415 1459.8 259.566C1460.16 259.632 1460.51 259.77 1460.49 260.144C1460.44 261.263 1461.15 261.468 1462.34 261.01C1463 260.754 1463.52 260.925 1464.07 261.026C1462.65 261.593 1461.26 262.39 1459.54 261.398C1458.64 260.858 1457.6 260.816 1456.56 261.077C1455.73 261.3 1455.32 261.074 1454.7 260.584C1452.64 258.476 1450.85 256.419 1449.86 253.98Z" fill="#93BF84"/>
<path d="M1467.46 219.836C1466.85 219.648 1466.21 219.531 1465.61 219.271C1464.77 218.89 1463.84 219.096 1463.01 219.319C1462.06 219.597 1461.89 220.167 1462.06 220.875C1462.04 220.947 1462.02 221.018 1462.02 221.018C1461.59 222.444 1461.59 222.444 1459.67 222.466C1460.15 224.059 1461.2 225.681 1459.07 227.02C1458.32 226.957 1458.88 226.382 1458.17 226.177C1457.79 226.182 1458.1 227.066 1457.37 226.933C1457.72 224.815 1458.15 222.714 1459.41 220.764C1460.31 219.351 1461.82 218.8 1463.49 218.355C1465.34 217.942 1466.53 218.763 1467.46 219.836ZM1461.12 221.153C1461.05 221.065 1461.09 220.922 1461.02 220.834C1460.93 220.817 1460.82 220.872 1460.63 220.839C1460.7 220.927 1460.66 221.069 1460.73 221.157C1460.89 221.262 1460.98 221.279 1461.12 221.153Z" fill="#93BF84"/>
<path d="M1496.54 232.694C1495.64 231.852 1494.15 232.331 1493.05 231.829C1492.64 231.603 1492.55 232.563 1491.75 232.341C1491.46 231.688 1491.75 231.063 1492.35 230.647C1492.84 230.286 1493.92 231.162 1494.36 230.038C1494.64 229.413 1495.2 228.838 1495.48 228.213C1495.76 227.588 1496.13 226.98 1496.33 226.339C1496.35 226.267 1496.55 226.229 1496.75 226.192C1497.53 226.485 1497.77 226.979 1497.78 227.583C1498.02 229.356 1497.69 231.1 1496.54 232.694Z" fill="#93BF84"/>
<path d="M1449.5 235.94C1449.35 236.439 1449.13 236.85 1448.62 237.282C1447.61 238.075 1447.78 238.482 1449.23 238.749C1449.69 238.832 1450.03 238.971 1450.55 238.84C1450.75 238.5 1450.56 238.165 1450.35 237.901C1450.14 237.637 1450.14 237.335 1450.56 237.188C1451.01 236.97 1451.38 237.037 1451.81 237.192C1452.15 237.33 1452.18 237.56 1452.03 237.757C1451.39 238.617 1451.32 239.808 1449.62 240.023C1449.12 240.082 1448.88 240.565 1448.18 240.661C1447.74 239.903 1447.09 239.182 1446.22 238.571C1446.25 237.824 1446.35 237.166 1447.09 236.625C1447.18 236.641 1447.29 236.587 1447.29 236.587C1447.31 236.516 1447.33 236.444 1447.37 236.302C1447.37 236 1447.55 235.731 1447.95 235.656C1448.32 235.723 1448.86 235.823 1449.5 235.94Z" fill="#93BF84"/>
<path d="M1449.5 235.94C1448.95 235.84 1448.41 235.739 1447.77 235.622C1448.19 234.872 1448.93 234.632 1449.88 234.657C1451.79 234.706 1453.76 234.541 1455.28 235.873C1455.9 236.363 1456.55 236.107 1456.67 235.377C1456.75 234.79 1456.45 234.208 1456.8 233.671C1457.51 233.876 1458.54 233.615 1458.54 234.592C1458.65 235.514 1458.85 236.453 1457.59 237.125C1457.01 237.469 1456.48 237.297 1456 236.983C1454.65 236.058 1452.94 235.669 1451.23 235.28C1450.25 235.025 1449.78 235.315 1449.5 235.94ZM1457.73 236.022C1457.77 235.879 1457.84 235.666 1457.56 235.615C1457.56 235.615 1457.32 235.796 1457.29 235.867C1457.25 236.01 1457.26 236.312 1457.35 236.328C1457.62 236.378 1457.59 236.148 1457.73 236.022Z" fill="#93BF84"/>
<path d="M1472.64 221.765C1474.14 221.89 1474.46 223.076 1475.72 223.683C1474.3 224.25 1474.39 225.545 1473.29 226.322C1472.82 226.611 1473.31 226.925 1473.49 227.261C1473.73 227.755 1473.33 228.133 1472.74 228.175C1471.95 228.255 1472.39 227.735 1472.29 227.417C1472.29 227.115 1471.9 226.817 1472.05 226.62C1472.33 225.694 1472.05 225.04 1471.04 224.554C1470.95 224.537 1470.94 224.235 1470.89 224.076C1471.21 223.984 1471.53 223.891 1471.73 223.853C1472.23 223.794 1472.16 223.706 1471.84 223.497C1472.21 222.889 1472.47 222.335 1472.64 221.765Z" fill="#93BF84"/>
<path d="M1457.25 227.36C1457.43 227.394 1457.54 227.339 1457.72 227.373C1459.05 227.766 1459.55 228.31 1459.32 229.095C1459 230.164 1458.02 229.909 1457 229.796C1456.69 228.912 1456.83 228.111 1457.25 227.36Z" fill="#93BF84"/>
<path d="M1456.9 230.757C1457.28 230.752 1457.65 230.819 1457.94 230.798C1458.53 230.755 1458.63 231.074 1458.82 231.409C1458.98 231.816 1458.81 232.084 1458.22 232.127C1457.33 232.19 1457 232.656 1456.74 233.209C1456.32 232.38 1456.76 231.558 1456.9 230.757Z" fill="#93BF84"/>
<path d="M1466.07 260.416C1467.34 260.047 1468.55 259.819 1469.87 259.911C1468.78 260.687 1467.37 260.579 1466.07 260.416Z" fill="#93BF84"/>
<path d="M1470.48 223.246C1468.82 223.017 1469.12 222.019 1469.08 221.185C1470.22 221.544 1469.9 222.614 1470.48 223.246Z" fill="#93BF84"/>
<path d="M1493.2 224.936C1492.47 225.105 1491.59 225.168 1490.84 225.106C1491.87 224.241 1492.05 224.275 1493.2 224.936Z" fill="#93BF84"/>
<path d="M1448.53 252.006C1449.35 252.157 1450.17 252.307 1450.99 252.457C1450.57 252.906 1449.96 253.02 1449.32 252.903C1448.79 252.731 1448.63 252.325 1448.53 252.006Z" fill="#93BF84"/>
<path d="M1496.66 225.873C1495.79 225.564 1495 225.342 1494.13 225.032C1495.28 224.717 1496.17 224.955 1496.66 225.873Z" fill="#93BF84"/>
<path d="M1445.77 240.672C1446.39 240.86 1447.43 240.901 1446.24 241.661C1446.02 241.77 1445.93 242.055 1445.8 242.181C1445.2 241.62 1445.53 241.154 1445.77 240.672Z" fill="#93BF84"/>
<path d="M1473.61 220.138C1473.98 220.204 1474.41 220.359 1474.96 220.459C1474.35 220.875 1473.76 220.917 1473.2 220.888C1473.12 220.498 1473.37 220.318 1473.61 220.138Z" fill="#93BF84"/>
<path d="M1490.93 225.122C1490.42 225.555 1489.91 225.312 1489.39 225.14C1489.86 224.851 1490.38 225.022 1490.93 225.122Z" fill="#93BF84"/>
<path d="M1449.32 253.205C1449.66 253.343 1449.69 253.573 1449.72 253.804C1449.35 253.737 1449.24 253.49 1449.32 253.205Z" fill="#93BF84"/>
<path d="M1447.19 236.268C1447.17 236.34 1447.15 236.411 1447.11 236.554C1447.11 236.554 1447 236.608 1446.91 236.591C1447.04 236.466 1447.17 236.34 1447.19 236.268Z" fill="#93BF84"/>
<path d="M1468.38 220.606C1468.22 220.502 1468.06 220.397 1467.97 220.381C1468.17 220.343 1468.24 220.431 1468.38 220.606Z" fill="#93BF84"/>
<path d="M1471.95 223.442C1472.27 223.652 1472.32 223.811 1471.84 223.799C1471.89 223.656 1471.93 223.514 1471.95 223.442Z" fill="#93BF84"/>
<path d="M1483.26 224.466C1483.66 225.065 1484.68 225.479 1483.22 225.887C1482.79 226.034 1482.75 226.478 1482.67 226.764C1482.18 228.403 1480.41 229.507 1479.57 231.009C1479.27 229.449 1479.31 229.005 1480.87 227.637C1481.81 226.756 1482.42 225.665 1483.26 224.466Z" fill="#93BF84"/>
<path d="M1475.44 255.068C1477.29 253.377 1479.2 252.148 1481.24 251.094C1481.35 251.039 1481.74 251.035 1481.81 251.123C1481.97 251.227 1481.99 251.458 1481.95 251.601C1481.91 251.743 1481.75 251.94 1481.62 252.066C1479.57 252.818 1478.4 254.483 1476.28 255.147C1476.19 255.131 1476.1 255.114 1475.44 255.068Z" fill="#93BF84"/>
<path d="M1485.69 229.801C1486.14 228.304 1487.96 228.336 1489.33 227.912C1489.76 227.765 1490.04 228.117 1489.84 228.456C1489.18 229.69 1487.49 230.206 1485.69 229.801Z" fill="#93BF84"/>
<path d="M1474.84 228.861C1475.09 228.983 1475.52 229.138 1475.51 229.511C1475.51 229.813 1475.13 229.817 1474.86 229.767C1474.4 229.683 1473.97 229.529 1474.21 229.046C1474.25 228.904 1474.4 228.706 1474.84 228.861Z" fill="#93BF84"/>
<path d="M1452.99 239.362C1452.62 239.296 1452.32 239.015 1452.22 238.696C1452.13 238.378 1452.42 238.357 1452.79 238.424C1453.24 238.507 1453.58 238.645 1453.55 239.09C1453.5 239.232 1453.28 239.341 1452.99 239.362Z" fill="#93BF84"/>
<path d="M1453.75 252.212C1454.18 252.367 1455.06 252.303 1454.58 252.966C1454.42 253.163 1454.11 253.256 1453.85 253.134C1453.44 252.908 1453.73 252.585 1453.75 252.212Z" fill="#93BF84"/>
<path d="M1451.7 252.964C1451.86 253.069 1452.04 253.102 1452.2 253.207C1451.84 253.442 1451.83 253.14 1451.7 252.964Z" fill="#93BF84"/>
<path d="M1487.65 210.082C1487.38 211.009 1487.84 211.696 1489.03 211.913C1489.39 211.98 1489.93 211.778 1489.67 212.332C1489.45 212.743 1488.98 213.033 1488.68 212.752C1487.6 211.877 1486.49 212.049 1485.25 212.348C1484.21 212.609 1484.06 211.829 1483.47 211.569C1483.79 210.802 1484.58 210.42 1485.51 210.516C1486.35 210.595 1486.95 210.179 1487.65 210.082Z" fill="#93BF84"/>
<path d="M1483.49 211.498C1483.36 211.926 1483.26 212.282 1483.04 212.693C1482.95 212.978 1482.64 213.071 1482.36 213.021C1481.98 213.025 1481.66 212.816 1481.56 212.497C1481.44 212.25 1481.6 212.053 1481.84 211.872C1482.31 211.583 1482.85 211.381 1483.49 211.498Z" fill="#93BF84"/>
<path d="M1487.37 224.169C1487.22 224.366 1486.93 224.387 1486.67 224.266C1486.58 224.249 1486.56 224.019 1486.65 224.036C1486.8 223.838 1487.12 223.746 1487.35 223.939C1487.35 223.939 1487.31 224.081 1487.37 224.169Z" fill="#93BF84"/>
<path d="M1461.12 221.153C1460.98 221.279 1460.89 221.262 1460.82 221.174C1460.75 221.086 1460.77 221.015 1460.72 220.855C1460.82 220.872 1461.02 220.834 1461.11 220.851C1461.09 220.922 1461.14 221.081 1461.12 221.153Z" fill="#93BF84"/>
<path d="M1457.73 236.022C1457.68 236.164 1457.62 236.378 1457.35 236.328C1457.26 236.311 1457.25 236.01 1457.29 235.867C1457.31 235.796 1457.47 235.599 1457.56 235.615C1457.83 235.665 1457.77 235.879 1457.73 236.022Z" fill="#93BF84"/>
<g opacity="0.5">
<path d="M205.178 359.795C205.427 359.39 205.541 358.914 205.092 358.525C204.573 358.789 203.764 358.364 203.29 358.804C202.997 359.033 202.816 359.244 202.411 359.032C201.985 358.731 202.121 358.343 202.414 358.115C203.7 357.182 204.739 356.197 205.081 354.769C205.217 354.381 205.713 354.03 206.254 353.854C206.731 352.497 206.51 351.156 206.064 349.85C205.462 347.927 204.182 347.025 201.594 346.967C197.678 346.748 194.612 348.047 192.017 350.282C190.189 351.848 189.147 353.75 187.836 355.511C187.588 355.916 187.451 356.304 186.911 356.479C186.011 356.16 185.743 355.56 185.272 355.083C182.738 351.992 180.317 348.883 177.805 345.88C177.11 344.979 177.157 344.239 177.542 343.446C178.813 340.133 179.499 336.819 179.915 333.363C180.283 330.648 179.526 328.106 178.431 325.618C177.715 324.17 176.549 322.792 174.185 322.699C171.124 322.623 168.825 323.712 167.468 325.755C166.948 326.477 166.247 327.41 166.379 328.398C166.446 328.663 166.288 328.962 166.129 329.262C165.993 329.65 165.631 330.072 165.024 329.983C164.439 329.982 164.328 329.541 164.239 329.188C163.886 326.859 161.662 325.461 160.069 323.783C159.261 322.9 158.025 322.174 156.541 321.854C153.234 321.265 150.865 323.007 151.307 325.688C151.728 327.823 153.164 329.342 154.531 331.056C154.846 331.374 155.272 331.674 155.496 332.098C156.191 332.999 155.852 333.51 154.569 333.525C153.038 333.487 151.62 333.431 150.201 333.834C148.106 334.341 147.158 335.221 147.355 336.932C147.465 337.832 147.822 338.785 148.585 339.492C150.492 341.488 152.512 343.467 155.209 344.884C160.175 347.415 165.392 349.083 171.452 347.596C172.781 347.299 173.208 347.599 174.015 348.483C177.626 352.599 180.741 357.067 184.127 361.218C184.441 361.536 184.665 361.96 184.483 362.63C182.08 360.985 179.11 360.344 176.842 358.77C176.258 358.31 175.651 358.221 174.84 358.255C174.255 358.254 173.67 358.252 173.265 358.04C170.657 356.977 168.291 357.801 165.994 358.431C164.146 358.992 162.835 360.753 163.438 362.218C163.796 363.171 164.175 364.212 164.938 364.919C167.183 366.864 168.751 369.371 172.056 370.418C172.907 371.936 174.818 372.557 176.346 373.513C178.143 374.61 180.212 375.39 182.416 375.782C183.159 375.942 182.982 374.778 184.061 375.344C184.87 375.769 184.643 376.263 184.777 376.792C185.881 376.529 187.009 375.438 188.063 376.834C188.31 376.887 188.445 376.958 188.693 377.011C189.233 376.836 189.684 376.766 190.225 376.591C191.847 376.065 191.847 376.065 192.766 377.389C193.303 378.131 193.886 379.049 194.988 379.246C196.093 378.525 196.412 377.467 197.135 376.622C197.203 376.428 197.271 376.234 197.227 376.058C195.611 374.291 195.611 374.291 197.597 372.884C198.296 372.409 199.152 372.094 198.682 371.158C198.481 370.822 198.639 370.523 198.955 370.382C200.848 369.54 198.965 367.173 201.532 366.684C201.532 366.684 201.578 366.402 201.556 366.314C201.177 365.272 201.517 364.303 202.105 363.387C202.848 363.547 202.688 364.305 203.408 364.377C203.882 363.937 203.996 363.461 204.088 362.897C204.043 362.721 203.976 362.456 203.932 362.28C203.732 361.486 201.683 361.711 202.249 360.707C202.905 359.597 204.344 360.199 205.178 359.795Z" fill="#93BF84"/>
<path d="M207.165 380.663C207.075 380.768 207.075 380.768 207.12 380.945C207.744 382.957 205.893 384.434 205.258 386.091C205.212 386.373 204.492 386.301 204.019 386.282C204.557 387.024 204.375 387.694 203.742 388.433C201.158 387 201.046 387.017 198.455 387.876C197.801 388.069 197.238 388.156 196.789 387.767C195.487 386.777 193.89 386.474 192.338 385.889C191.326 385.587 189.569 386.043 189.213 384.631C188.876 384.683 188.606 384.542 188.539 384.277C186.941 384.433 188.513 385.564 187.205 386.408C187.57 384.61 185.792 384.518 185.007 383.723C184.647 383.687 184.4 383.634 184.039 383.598C182.845 383.966 181.721 383.682 180.641 383.574C178.547 383.623 176.744 384.36 175.233 385.327C172.685 386.821 172.539 390.418 174.693 392.468C176.354 393.953 178.445 394.821 180.558 395.778C183.103 395.201 183.238 395.271 183.908 397.001C184.336 396.843 184.786 396.773 185.215 396.616C186.589 396.036 187.49 395.897 187.53 397.449C187.507 397.819 187.956 398.208 188.406 398.139C190.568 397.896 192.254 398.552 193.804 399.595C194.231 399.896 195.019 399.774 195.626 399.863C196.099 399.882 196.503 400.094 196.705 400.43C197.019 400.748 197.401 400.872 197.964 400.785C199.428 400.559 200.893 399.874 202.534 400.812C203.073 401.095 204.042 400.762 203.661 400.179C202.698 398.678 204.679 398.647 205.221 398.013C205.514 397.784 205.83 397.644 206.122 397.873C206.526 398.086 206.728 398.421 206.591 398.809C206.477 399.285 206.071 399.531 205.531 399.706C204.449 400.057 204.245 400.638 204.557 401.415C204.918 401.451 205.255 401.399 205.615 401.435C206.404 401.313 207.033 401.49 207.504 401.968C208.312 402.851 209.168 402.535 209.958 401.955C210.364 401.709 210.725 401.286 211.019 401.057C210.839 400.81 210.66 400.563 210.481 400.316C210.03 400.385 209.67 400.349 209.22 400.419C209.039 400.63 208.949 400.736 208.768 400.947C208.7 401.141 208.61 401.247 208.565 401.07C208.565 401.07 208.656 400.965 208.768 400.947C208.724 400.771 208.701 400.682 208.657 400.506C208.977 398.99 208.78 397.279 211.683 397.196C212.021 397.144 212.315 396.915 212.63 396.775C213.261 396.494 213.601 395.983 214.075 395.543C214.076 395.085 213.56 394.431 214.079 394.168C215.274 393.341 216.2 392.373 217.104 391.317C217.307 391.194 217.779 391.212 218.117 391.16C217.129 390.488 217.333 389.906 218.079 389.149C219.004 388.181 220.425 387.32 219.8 385.767C219.733 385.502 220.231 384.692 220.635 384.904C221.917 385.347 222.078 384.131 222.911 384.185C222.755 383.568 222.622 383.038 223.613 382.794C224.521 380.362 225.069 377.894 225.122 375.319C225.335 371.986 223.157 370.306 218.946 370.774C217.841 371.495 216.242 371.651 215.451 372.69C214.999 373.218 215.38 373.801 215.288 374.365C214.97 375.422 213.826 374.133 213.284 374.767C212.29 375.929 210.577 376.56 209.875 377.952C209.691 379.08 208.518 379.995 207.165 380.663ZM209.028 396.874C208.668 396.838 208.534 396.767 208.467 396.502C208.356 396.061 208.649 395.833 209.212 395.745C209.437 395.711 209.819 395.835 209.774 396.117C209.75 396.487 209.479 396.804 209.028 396.874ZM201.559 388.588C201.424 388.517 201.289 388.446 201.244 388.27C201.222 388.182 201.313 388.076 201.381 387.882C201.516 387.953 201.65 388.024 201.695 388.2C201.739 388.377 201.649 388.482 201.559 388.588Z" fill="#93BF84"/>
<path d="M211.041 401.146C210.658 401.48 210.386 401.797 209.981 402.043C209.191 402.623 208.357 403.027 207.527 402.056C207.056 401.579 206.516 401.295 205.638 401.523C208.104 404.808 209.601 408.426 210.76 412.097C211.917 416.226 213.188 420.338 214.458 424.449C214.68 425.332 214.925 426.302 215.147 427.184C215.28 427.714 215.504 428.137 215.638 428.667C215.995 429.62 217.097 429.816 218.02 429.765C219.056 429.696 218.946 428.797 218.925 428.25C218.93 426.874 218.709 425.533 218.6 424.175C218.008 419.042 217.192 413.944 215.136 409.037C214.063 406.636 212.968 404.147 211.895 401.747C211.603 401.517 211.311 401.287 211.041 401.146Z" fill="#93BF84"/>
<path d="M189.208 384.631C189.564 386.043 191.299 385.499 192.333 385.889C193.862 386.386 195.482 386.777 196.784 387.767C197.346 388.139 197.818 388.157 198.45 387.876C201.041 387.017 201.041 387.017 203.737 388.433C204.392 387.782 204.44 387.042 204.014 386.282C203.496 386.546 202.865 386.827 202.552 386.05C202.082 385.115 201.703 384.073 200.467 383.348C199.814 383.541 199.633 383.752 199.991 384.246C200.35 384.741 200.843 385.306 200.032 385.798C199.223 385.374 199.405 384.704 199.159 384.192C198.913 383.68 198.53 383.556 197.967 383.643C197.988 384.19 198.369 384.772 198.052 385.371C197.852 384.577 197.021 384.064 196.843 383.358C196.665 382.653 196.487 381.947 196.309 381.241C195.837 381.223 195.274 381.31 195.275 380.851C195.367 380.287 195.684 379.688 196.494 379.654C197.192 379.638 197.123 380.29 197.211 380.643C198.203 380.398 198.717 381.51 199.798 381.16C199.038 379.536 198.256 377.824 197.383 376.217C196.66 377.062 196.341 378.12 195.236 378.84C194.021 378.662 193.574 377.814 193.014 376.984C192.095 375.66 192.095 375.66 190.473 376.186C189.932 376.361 189.481 376.431 188.941 376.606C189.21 376.748 189.39 376.995 189.615 376.96C192.068 376.947 192.965 378.184 193.703 379.719C194.53 381.608 195.447 383.391 196.431 385.439C195.17 385.542 194.113 385.522 193.169 385.027C191.887 384.583 190.491 384.616 189.208 384.631Z" fill="#93BF84"/>
<path d="M203.563 364.078C202.842 364.006 202.89 363.265 202.26 363.088C201.694 364.092 201.331 364.973 201.711 366.014C201.733 366.103 201.8 366.367 201.687 366.385C199.119 366.873 200.89 369.258 199.11 370.083C198.794 370.224 198.636 370.523 198.837 370.859C199.419 371.777 198.451 372.11 197.751 372.585C195.653 374.009 195.653 374.009 197.381 375.758C197.832 375.689 198.26 375.531 198.396 375.143C200.298 371.549 202.447 368.009 203.563 364.078Z" fill="#93BF84"/>
<path d="M207.157 380.663C208.509 379.995 209.683 379.08 210.248 378.076C211.063 376.667 212.776 376.035 213.657 374.891C214.199 374.257 215.343 375.547 215.662 374.489C215.753 373.925 215.395 373.43 215.824 372.814C216.728 371.757 218.214 371.619 219.319 370.898C217.227 370.489 215.873 371.615 214.587 372.547C211.475 374.587 209.463 377.281 207.429 379.887C207.113 380.028 207.202 380.38 207.157 380.663Z" fill="#93BF84"/>
<path d="M196.499 400.553C196.297 400.217 195.893 400.005 195.42 399.986C194.813 399.897 193.912 400.036 193.598 399.718C192.026 398.587 190.452 397.913 188.2 398.262C187.862 398.314 187.301 397.942 187.324 397.572C187.284 396.02 186.271 396.177 185.008 396.739C184.58 396.897 184.13 396.966 183.702 397.124C184.306 398.131 185.658 397.922 186.714 398.4C189.097 399.498 191.774 399.909 194.202 400.725C194.945 400.885 195.711 400.675 196.499 400.553Z" fill="#93BF84"/>
<path d="M223.18 384.327C222.235 384.29 222.074 385.506 220.905 385.046C220.5 384.833 219.89 385.661 220.069 385.908C220.695 387.461 219.274 388.323 218.348 389.291C217.603 390.048 217.399 390.629 218.387 391.301C220.937 389.349 222.047 386.794 223.18 384.327Z" fill="#93BF84"/>
<path d="M196.128 381.452C196.305 382.158 196.483 382.864 196.661 383.57C196.886 383.535 196.999 383.518 197.224 383.483C197.494 383.624 197.629 383.695 197.898 383.837C198.484 383.838 198.979 383.945 199.09 384.386C199.336 384.898 199.131 385.479 199.963 385.992C200.752 385.412 200.281 384.935 199.922 384.44C199.564 383.946 199.722 383.646 200.398 383.542C200.445 382.801 200.155 382.113 199.639 381.459C198.67 381.793 198.043 380.698 197.052 380.943C196.737 381.083 196.421 381.224 196.128 381.452Z" fill="#93BF84"/>
<path d="M204.568 401.503C204.256 400.727 204.46 400.145 205.541 399.795C206.082 399.619 206.466 399.285 206.602 398.897C206.626 398.527 206.537 398.174 206.132 397.962C205.728 397.749 205.412 397.89 205.232 398.101C204.577 398.752 202.596 398.784 203.672 400.267C204.053 400.85 202.971 401.201 202.544 400.9C200.904 399.962 199.439 400.647 197.975 400.873C199.931 401.671 202.272 401.675 204.568 401.503Z" fill="#93BF84"/>
<path d="M206.273 353.943C205.733 354.118 205.214 354.381 205.1 354.857C204.758 356.285 203.72 357.271 202.434 358.203C202.028 358.449 202.004 358.819 202.431 359.12C202.723 359.35 203.016 359.121 203.309 358.892C203.783 358.452 204.592 358.877 205.111 358.614C206.489 357.117 206.066 355.441 206.273 353.943Z" fill="#93BF84"/>
<path d="M209.347 400.49C209.797 400.42 210.157 400.456 210.607 400.386C210.52 399.575 210.702 398.905 211.739 398.378C212.348 398.009 213.204 397.693 212.869 396.828C212.554 396.969 212.26 397.198 211.923 397.25C209.019 397.332 209.216 399.043 208.896 400.559C209.009 400.542 209.121 400.525 209.347 400.49Z" fill="#93BF84"/>
<path d="M203.904 386.3C204.376 386.318 205.074 386.302 205.142 386.108C205.755 384.363 207.493 382.903 207.004 380.962C205.401 382.493 204.697 384.344 203.904 386.3Z" fill="#93BF84"/>
<path d="M218.379 391.301C218.041 391.354 217.546 391.247 217.366 391.458C216.44 392.426 215.536 393.483 214.341 394.309C213.844 394.661 214.225 395.244 214.336 395.685C216.41 394.631 217.271 392.939 218.379 391.301Z" fill="#93BF84"/>
<path d="M205.179 359.795C204.345 360.199 202.906 359.597 202.499 360.302C201.843 361.411 203.892 361.186 204.182 361.875C204.227 362.051 204.294 362.316 204.338 362.492C205.083 361.735 204.704 360.694 205.179 359.795Z" fill="#93BF84"/>
<path d="M184.912 383.829C185.697 384.624 187.475 384.716 187.109 386.514C188.417 385.67 186.958 384.521 188.444 384.383C187.411 383.534 186.24 383.532 184.912 383.829Z" fill="#93BF84"/>
<path d="M183.676 397.036C183.006 395.306 183.006 395.306 180.326 395.812C181.427 396.467 182.303 397.157 183.676 397.036Z" fill="#93BF84"/>
<path d="M188.246 376.622C187.192 375.227 186.063 376.318 184.96 376.581C185.994 376.971 187.141 377.343 188.246 376.622Z" fill="#93BF84"/>
<path d="M184.826 376.51C184.693 375.981 184.919 375.487 184.11 375.062C183.032 374.496 183.118 375.766 182.466 375.5C183.275 375.925 184.061 376.262 184.826 376.51Z" fill="#93BF84"/>
<path d="M180.429 383.697C181.622 383.787 182.746 384.072 183.828 383.721C182.727 383.066 181.623 383.329 180.429 383.697Z" fill="#93BF84"/>
<path d="M223.855 382.847C222.864 383.092 222.998 383.621 223.153 384.239C223.762 383.87 224.011 383.464 223.855 382.847Z" fill="#93BF84"/>
<path d="M188.445 384.383C188.625 384.63 188.759 384.701 189.119 384.737C189.052 384.472 188.783 384.33 188.445 384.383Z" fill="#93BF84"/>
<path d="M209.024 396.874C209.587 396.787 209.745 396.487 209.769 396.117C209.815 395.835 209.455 395.799 209.207 395.746C208.622 395.744 208.464 396.044 208.462 396.502C208.416 396.784 208.686 396.926 209.024 396.874Z" fill="#93BF84"/>
<path d="M201.556 388.588C201.646 388.482 201.736 388.377 201.714 388.288C201.692 388.2 201.557 388.129 201.4 387.97C201.31 388.076 201.22 388.182 201.264 388.358C201.286 388.446 201.421 388.517 201.556 388.588Z" fill="#93BF84"/>
<path d="M209.348 400.49C209.235 400.507 209.01 400.542 208.898 400.559C208.942 400.736 208.965 400.824 209.009 401C209.099 400.895 209.167 400.701 209.348 400.49Z" fill="#93BF84"/>
<path d="M208.898 401.018C208.785 401.035 208.694 401.142 208.694 401.142C208.852 401.301 208.83 401.213 208.898 401.018Z" fill="#93BF84"/>
<path d="M196.131 381.452C196.424 381.224 196.74 381.083 197.146 380.837C196.944 380.502 197.014 379.849 196.428 379.848C195.596 379.794 195.301 380.481 195.209 381.045C195.095 381.521 195.658 381.434 196.131 381.452Z" fill="#93BF84"/>
<path d="M197.224 383.483C196.999 383.518 196.886 383.535 196.661 383.57C196.861 384.364 197.783 384.771 197.87 385.583C198.3 384.966 197.919 384.383 197.785 383.854C197.628 383.695 197.381 383.642 197.224 383.483Z" fill="#93BF84"/>
<path d="M197.227 383.483C197.496 383.624 197.631 383.695 197.9 383.837C197.631 383.695 197.384 383.642 197.227 383.483Z" fill="#93BF84"/>
</g>
<defs>
<linearGradient id="paint0_linear_80_604" x1="725.955" y1="424.605" x2="726.464" y2="-9.81335" gradientUnits="userSpaceOnUse">
<stop offset="0.255208" stop-color="#FFF1C9"/>
<stop offset="0.892352" stop-color="#B2CAAA" stop-opacity="0"/>
</linearGradient>
</defs>
</svg>
